G04 EAGLE Gerber X2 export*
%TF.Part,Single*%
%TF.FileFunction,Copper,L1,Top,Mixed*%
%TF.FilePolarity,Positive*%
%TF.GenerationSoftware,Autodesk,EAGLE,8.6.0*%
%TF.CreationDate,2018-09-12T16:35:13Z*%
G75*
%MOMM*%
%FSLAX34Y34*%
%LPD*%
%AMOC8*
5,1,8,0,0,1.08239X$1,22.5*%
G01*
%ADD10C,1.879600*%
%ADD11C,2.286000*%
%ADD12P,1.814519X8X112.500000*%
%ADD13R,1.879600X1.879600*%
%ADD14R,1.800000X1.600000*%
%ADD15C,0.406400*%
%ADD16C,0.254000*%
%ADD17C,0.304800*%

G36*
X669231Y126105D02*
X669231Y126105D01*
X669360Y126104D01*
X704454Y128821D01*
X704534Y128835D01*
X704662Y128848D01*
X739291Y135158D01*
X739369Y135180D01*
X739494Y135206D01*
X773291Y145044D01*
X773367Y145074D01*
X773489Y145113D01*
X806095Y158373D01*
X806167Y158411D01*
X806284Y158462D01*
X837354Y175005D01*
X837422Y175050D01*
X837533Y175113D01*
X866738Y194762D01*
X866800Y194814D01*
X866905Y194888D01*
X893934Y217437D01*
X893991Y217495D01*
X894087Y217579D01*
X918655Y242787D01*
X918705Y242850D01*
X918793Y242944D01*
X940638Y270545D01*
X940682Y270613D01*
X940759Y270715D01*
X959651Y300416D01*
X959687Y300488D01*
X959754Y300598D01*
X975491Y332083D01*
X975520Y332159D01*
X975575Y332275D01*
X987991Y365211D01*
X988012Y365290D01*
X988055Y365411D01*
X997019Y399450D01*
X997032Y399530D01*
X997062Y399654D01*
X1002479Y434435D01*
X1002484Y434515D01*
X1002501Y434643D01*
X1004313Y469795D01*
X1004309Y469877D01*
X1004313Y470005D01*
X1002501Y505157D01*
X1002488Y505238D01*
X1002479Y505365D01*
X997062Y540146D01*
X997042Y540224D01*
X997019Y540350D01*
X988055Y574389D01*
X988027Y574465D01*
X987991Y574589D01*
X975575Y607525D01*
X975539Y607598D01*
X975491Y607717D01*
X959754Y639202D01*
X959710Y639271D01*
X959651Y639384D01*
X940759Y669085D01*
X940709Y669149D01*
X940638Y669255D01*
X918793Y696856D01*
X918736Y696915D01*
X918655Y697013D01*
X894087Y722221D01*
X894025Y722274D01*
X893934Y722363D01*
X866905Y744912D01*
X866838Y744958D01*
X866738Y745038D01*
X837533Y764687D01*
X837462Y764726D01*
X837354Y764795D01*
X806284Y781338D01*
X806209Y781369D01*
X806095Y781427D01*
X773489Y794687D01*
X773411Y794710D01*
X773291Y794756D01*
X739494Y804594D01*
X739414Y804609D01*
X739291Y804642D01*
X704661Y810952D01*
X704581Y810959D01*
X704454Y810979D01*
X669360Y813696D01*
X669278Y813694D01*
X669150Y813701D01*
X633963Y812795D01*
X633882Y812785D01*
X633754Y812779D01*
X598846Y808259D01*
X598767Y808241D01*
X598640Y808222D01*
X564382Y800137D01*
X564305Y800110D01*
X564181Y800078D01*
X530935Y788514D01*
X530862Y788480D01*
X530742Y788435D01*
X498861Y773513D01*
X498792Y773472D01*
X498677Y773415D01*
X468500Y755295D01*
X468435Y755246D01*
X468326Y755178D01*
X440172Y734051D01*
X440112Y733996D01*
X440012Y733917D01*
X414179Y710007D01*
X414125Y709946D01*
X414033Y709857D01*
X390796Y683417D01*
X390749Y683351D01*
X390666Y683253D01*
X370271Y654565D01*
X370231Y654494D01*
X370159Y654388D01*
X352821Y623755D01*
X352789Y623680D01*
X352728Y623568D01*
X338632Y591314D01*
X338607Y591236D01*
X338558Y591118D01*
X327854Y557586D01*
X327837Y557506D01*
X327800Y557383D01*
X320600Y522928D01*
X320592Y522847D01*
X320568Y522722D01*
X316949Y487709D01*
X316949Y487628D01*
X316938Y487500D01*
X316938Y452300D01*
X316946Y452219D01*
X316949Y452091D01*
X320568Y417078D01*
X320584Y416999D01*
X320600Y416872D01*
X327800Y382416D01*
X327825Y382339D01*
X327854Y382214D01*
X338558Y348682D01*
X338591Y348608D01*
X338632Y348486D01*
X352728Y316232D01*
X352735Y316219D01*
X352736Y316217D01*
X352769Y316159D01*
X352821Y316045D01*
X370159Y285412D01*
X370206Y285345D01*
X370271Y285235D01*
X390666Y256547D01*
X390720Y256485D01*
X390796Y256383D01*
X414033Y229943D01*
X414093Y229888D01*
X414179Y229793D01*
X440012Y205883D01*
X440076Y205834D01*
X440172Y205749D01*
X468326Y184622D01*
X468396Y184580D01*
X468500Y184505D01*
X498677Y166385D01*
X498750Y166350D01*
X498861Y166287D01*
X530742Y151365D01*
X530818Y151338D01*
X530935Y151286D01*
X564181Y139722D01*
X564260Y139703D01*
X564382Y139663D01*
X598640Y131578D01*
X598721Y131568D01*
X598846Y131541D01*
X633754Y127021D01*
X633835Y127019D01*
X633963Y127005D01*
X669151Y126099D01*
X669231Y126105D01*
G37*
%LPC*%
G36*
X699028Y388015D02*
X699028Y388015D01*
X698135Y388908D01*
X698135Y406172D01*
X699028Y407065D01*
X701476Y407065D01*
X701520Y407069D01*
X701564Y407067D01*
X701720Y407089D01*
X701877Y407105D01*
X701919Y407118D01*
X701963Y407124D01*
X702111Y407177D01*
X702262Y407223D01*
X702301Y407244D01*
X702342Y407259D01*
X702478Y407340D01*
X702616Y407415D01*
X702650Y407443D01*
X702688Y407465D01*
X702804Y407572D01*
X702925Y407672D01*
X702953Y407707D01*
X702985Y407736D01*
X703079Y407863D01*
X703177Y407986D01*
X703198Y408025D01*
X703224Y408061D01*
X703291Y408204D01*
X703363Y408343D01*
X703375Y408386D01*
X703394Y408426D01*
X703431Y408579D01*
X703474Y408730D01*
X703478Y408774D01*
X703488Y408817D01*
X703494Y408975D01*
X703507Y409132D01*
X703502Y409175D01*
X703504Y409220D01*
X703466Y409481D01*
X703460Y409531D01*
X703458Y409539D01*
X703457Y409548D01*
X702018Y415851D01*
X701998Y415910D01*
X701987Y415970D01*
X701917Y416153D01*
X701890Y416233D01*
X701878Y416253D01*
X701868Y416280D01*
X696614Y427189D01*
X696582Y427242D01*
X696557Y427299D01*
X696448Y427462D01*
X696404Y427533D01*
X696389Y427550D01*
X696372Y427575D01*
X688823Y437041D01*
X688780Y437085D01*
X688743Y437135D01*
X688600Y437270D01*
X688542Y437329D01*
X688523Y437343D01*
X688501Y437363D01*
X679035Y444912D01*
X678982Y444946D01*
X678936Y444986D01*
X678766Y445086D01*
X678696Y445131D01*
X678675Y445139D01*
X678649Y445154D01*
X667740Y450408D01*
X667682Y450429D01*
X667627Y450458D01*
X667440Y450517D01*
X667362Y450546D01*
X667339Y450549D01*
X667311Y450558D01*
X655506Y453252D01*
X655501Y453253D01*
X655497Y453254D01*
X655168Y453300D01*
X649114Y453640D01*
X649065Y453638D01*
X649000Y453643D01*
X499479Y453643D01*
X487816Y456305D01*
X477037Y461496D01*
X467684Y468954D01*
X460226Y478307D01*
X455035Y489086D01*
X454386Y491932D01*
X454326Y492110D01*
X454268Y492290D01*
X454262Y492301D01*
X454258Y492313D01*
X454164Y492476D01*
X454072Y492641D01*
X454063Y492651D01*
X454057Y492662D01*
X453933Y492804D01*
X453810Y492947D01*
X453800Y492955D01*
X453791Y492965D01*
X453641Y493079D01*
X453493Y493195D01*
X453481Y493201D01*
X453471Y493209D01*
X453301Y493292D01*
X453133Y493376D01*
X453121Y493380D01*
X453109Y493385D01*
X452926Y493433D01*
X452745Y493482D01*
X452732Y493483D01*
X452719Y493487D01*
X452532Y493497D01*
X452343Y493510D01*
X452330Y493508D01*
X452317Y493509D01*
X452132Y493482D01*
X451944Y493458D01*
X451930Y493453D01*
X451919Y493452D01*
X451859Y493430D01*
X451628Y493356D01*
X447734Y491743D01*
X366895Y491743D01*
X366868Y491741D01*
X366842Y491743D01*
X366668Y491721D01*
X366494Y491703D01*
X366469Y491696D01*
X366442Y491692D01*
X366276Y491636D01*
X366109Y491585D01*
X366086Y491572D01*
X366060Y491564D01*
X365909Y491477D01*
X365755Y491393D01*
X365735Y491376D01*
X365712Y491363D01*
X365459Y491148D01*
X359703Y485393D01*
X351497Y485393D01*
X345693Y491197D01*
X345693Y499403D01*
X351497Y505207D01*
X359703Y505207D01*
X365459Y499452D01*
X365479Y499435D01*
X365497Y499414D01*
X365635Y499307D01*
X365770Y499197D01*
X365794Y499184D01*
X365815Y499168D01*
X365971Y499090D01*
X366126Y499008D01*
X366151Y499000D01*
X366175Y498988D01*
X366345Y498943D01*
X366512Y498893D01*
X366538Y498891D01*
X366564Y498884D01*
X366895Y498857D01*
X444500Y498857D01*
X444578Y498865D01*
X444699Y498867D01*
X446087Y499003D01*
X446217Y499029D01*
X446349Y499046D01*
X446424Y499071D01*
X446481Y499082D01*
X446553Y499112D01*
X446665Y499148D01*
X446819Y499212D01*
X446834Y499220D01*
X446852Y499226D01*
X447013Y499316D01*
X447174Y499402D01*
X447187Y499413D01*
X447203Y499422D01*
X447343Y499541D01*
X447484Y499658D01*
X447495Y499672D01*
X447509Y499684D01*
X447622Y499829D01*
X447738Y499971D01*
X447746Y499987D01*
X447757Y500001D01*
X447840Y500165D01*
X447925Y500327D01*
X447930Y500345D01*
X447938Y500361D01*
X447986Y500538D01*
X448038Y500714D01*
X448040Y500732D01*
X448044Y500749D01*
X448057Y500933D01*
X448073Y501115D01*
X448071Y501133D01*
X448072Y501151D01*
X448048Y501333D01*
X448028Y501515D01*
X448022Y501532D01*
X448020Y501550D01*
X447918Y501866D01*
X446277Y505827D01*
X446277Y510173D01*
X447940Y514187D01*
X451013Y517260D01*
X454787Y518823D01*
X454795Y518828D01*
X454804Y518830D01*
X454973Y518923D01*
X455142Y519014D01*
X455149Y519019D01*
X455157Y519024D01*
X455305Y519148D01*
X455453Y519270D01*
X455458Y519277D01*
X455465Y519283D01*
X455585Y519433D01*
X455706Y519583D01*
X455711Y519591D01*
X455716Y519598D01*
X455803Y519767D01*
X455894Y519939D01*
X455896Y519948D01*
X455900Y519956D01*
X455952Y520138D01*
X456007Y520326D01*
X456007Y520335D01*
X456010Y520343D01*
X456025Y520534D01*
X456041Y520727D01*
X456040Y520736D01*
X456041Y520744D01*
X456018Y520935D01*
X455996Y521127D01*
X455993Y521135D01*
X455992Y521144D01*
X455932Y521326D01*
X455873Y521510D01*
X455868Y521518D01*
X455866Y521526D01*
X455770Y521694D01*
X455677Y521862D01*
X455671Y521868D01*
X455666Y521876D01*
X455539Y522022D01*
X455415Y522167D01*
X455408Y522173D01*
X455402Y522180D01*
X455250Y522297D01*
X455098Y522416D01*
X455090Y522420D01*
X455083Y522425D01*
X454787Y522577D01*
X451013Y524140D01*
X447940Y527213D01*
X446277Y531227D01*
X446277Y535573D01*
X447940Y539587D01*
X451013Y542660D01*
X454787Y544223D01*
X454795Y544228D01*
X454804Y544230D01*
X454973Y544323D01*
X455142Y544414D01*
X455149Y544419D01*
X455157Y544424D01*
X455305Y544548D01*
X455453Y544670D01*
X455458Y544677D01*
X455465Y544683D01*
X455585Y544833D01*
X455706Y544983D01*
X455711Y544991D01*
X455716Y544998D01*
X455803Y545167D01*
X455894Y545339D01*
X455896Y545348D01*
X455900Y545356D01*
X455952Y545538D01*
X456007Y545726D01*
X456007Y545735D01*
X456010Y545743D01*
X456025Y545934D01*
X456041Y546127D01*
X456040Y546136D01*
X456041Y546144D01*
X456018Y546335D01*
X455996Y546527D01*
X455993Y546535D01*
X455992Y546544D01*
X455932Y546725D01*
X455873Y546910D01*
X455868Y546918D01*
X455866Y546926D01*
X455770Y547094D01*
X455677Y547262D01*
X455671Y547268D01*
X455666Y547276D01*
X455539Y547422D01*
X455415Y547567D01*
X455408Y547573D01*
X455402Y547580D01*
X455250Y547697D01*
X455098Y547816D01*
X455090Y547820D01*
X455083Y547825D01*
X454787Y547977D01*
X451013Y549540D01*
X447940Y552613D01*
X446277Y556627D01*
X446277Y560973D01*
X447940Y564987D01*
X451013Y568060D01*
X451721Y568353D01*
X451725Y568355D01*
X451730Y568357D01*
X451903Y568450D01*
X452076Y568544D01*
X452080Y568546D01*
X452084Y568549D01*
X452234Y568674D01*
X452387Y568800D01*
X452390Y568803D01*
X452393Y568806D01*
X452514Y568957D01*
X452640Y569113D01*
X452643Y569117D01*
X452645Y569120D01*
X452734Y569292D01*
X452827Y569469D01*
X452829Y569473D01*
X452831Y569477D01*
X452884Y569663D01*
X452941Y569856D01*
X452941Y569860D01*
X452942Y569864D01*
X452958Y570059D01*
X452975Y570257D01*
X452975Y570261D01*
X452975Y570266D01*
X452952Y570461D01*
X452930Y570657D01*
X452929Y570661D01*
X452928Y570665D01*
X452867Y570853D01*
X452807Y571040D01*
X452805Y571044D01*
X452803Y571048D01*
X452706Y571221D01*
X452611Y571392D01*
X452608Y571395D01*
X452605Y571399D01*
X452476Y571549D01*
X452349Y571697D01*
X452345Y571700D01*
X452342Y571704D01*
X452185Y571825D01*
X452032Y571946D01*
X452028Y571948D01*
X452024Y571950D01*
X451848Y572038D01*
X451672Y572126D01*
X451668Y572128D01*
X451664Y572130D01*
X451473Y572181D01*
X451284Y572233D01*
X451279Y572233D01*
X451275Y572234D01*
X450944Y572261D01*
X447467Y572261D01*
X446821Y572434D01*
X446242Y572769D01*
X445769Y573242D01*
X445434Y573821D01*
X445261Y574467D01*
X445261Y581661D01*
X456692Y581661D01*
X456710Y581662D01*
X456727Y581661D01*
X456910Y581682D01*
X457092Y581701D01*
X457109Y581706D01*
X457127Y581708D01*
X457205Y581733D01*
X457342Y581694D01*
X457360Y581692D01*
X457377Y581688D01*
X457708Y581661D01*
X469139Y581661D01*
X469139Y574467D01*
X468966Y573821D01*
X468631Y573242D01*
X468158Y572769D01*
X467579Y572434D01*
X466933Y572261D01*
X463456Y572261D01*
X463451Y572261D01*
X463447Y572261D01*
X463252Y572241D01*
X463055Y572221D01*
X463051Y572220D01*
X463046Y572220D01*
X462857Y572160D01*
X462670Y572103D01*
X462666Y572101D01*
X462662Y572100D01*
X462486Y572003D01*
X462316Y571911D01*
X462313Y571909D01*
X462309Y571906D01*
X462157Y571778D01*
X462007Y571654D01*
X462004Y571650D01*
X462001Y571647D01*
X461876Y571491D01*
X461755Y571340D01*
X461753Y571336D01*
X461750Y571332D01*
X461659Y571155D01*
X461569Y570983D01*
X461568Y570978D01*
X461566Y570974D01*
X461511Y570780D01*
X461458Y570596D01*
X461457Y570591D01*
X461456Y570587D01*
X461441Y570392D01*
X461425Y570194D01*
X461425Y570190D01*
X461425Y570186D01*
X461449Y569990D01*
X461472Y569795D01*
X461473Y569790D01*
X461474Y569786D01*
X461536Y569599D01*
X461597Y569412D01*
X461599Y569408D01*
X461600Y569404D01*
X461698Y569232D01*
X461795Y569061D01*
X461797Y569058D01*
X461800Y569054D01*
X461932Y568903D01*
X462058Y568757D01*
X462061Y568754D01*
X462064Y568750D01*
X462222Y568629D01*
X462376Y568510D01*
X462380Y568508D01*
X462383Y568505D01*
X462679Y568353D01*
X463387Y568060D01*
X466460Y564987D01*
X467030Y563611D01*
X467041Y563591D01*
X467047Y563570D01*
X467136Y563414D01*
X467220Y563256D01*
X467234Y563239D01*
X467245Y563219D01*
X467362Y563084D01*
X467477Y562945D01*
X467494Y562931D01*
X467509Y562914D01*
X467650Y562805D01*
X467789Y562692D01*
X467809Y562681D01*
X467827Y562668D01*
X467987Y562588D01*
X468146Y562505D01*
X468167Y562498D01*
X468187Y562488D01*
X468361Y562442D01*
X468532Y562392D01*
X468554Y562390D01*
X468576Y562384D01*
X468907Y562357D01*
X477520Y562357D01*
X477569Y562362D01*
X477634Y562360D01*
X483265Y562676D01*
X483270Y562677D01*
X483274Y562677D01*
X483603Y562724D01*
X494582Y565230D01*
X494641Y565250D01*
X494702Y565261D01*
X494885Y565331D01*
X494964Y565358D01*
X494984Y565370D01*
X495012Y565380D01*
X505158Y570266D01*
X505211Y570299D01*
X505268Y570323D01*
X505431Y570433D01*
X505502Y570476D01*
X505519Y570492D01*
X505543Y570508D01*
X514348Y577530D01*
X514393Y577573D01*
X514443Y577610D01*
X514577Y577753D01*
X514637Y577811D01*
X514650Y577830D01*
X514670Y577852D01*
X521692Y586657D01*
X521725Y586709D01*
X521766Y586756D01*
X521865Y586925D01*
X521910Y586995D01*
X521919Y587016D01*
X521934Y587042D01*
X526820Y597188D01*
X526841Y597247D01*
X526870Y597301D01*
X526929Y597488D01*
X526958Y597567D01*
X526961Y597590D01*
X526970Y597618D01*
X529476Y608597D01*
X529477Y608602D01*
X529478Y608607D01*
X529524Y608935D01*
X529840Y614566D01*
X529838Y614615D01*
X529843Y614680D01*
X529843Y628425D01*
X532569Y640366D01*
X537884Y651403D01*
X545521Y660979D01*
X555097Y668616D01*
X566134Y673931D01*
X572386Y675358D01*
X572576Y675422D01*
X572761Y675483D01*
X572764Y675485D01*
X572768Y675486D01*
X572938Y675584D01*
X573110Y675682D01*
X573114Y675685D01*
X573117Y675687D01*
X573262Y675814D01*
X573414Y675947D01*
X573416Y675950D01*
X573420Y675953D01*
X573541Y676112D01*
X573659Y676266D01*
X573661Y676270D01*
X573664Y676273D01*
X573677Y676301D01*
X573811Y676561D01*
X574940Y679287D01*
X578013Y682360D01*
X579120Y682819D01*
X580499Y683390D01*
X580577Y683432D01*
X580660Y683465D01*
X580754Y683526D01*
X580854Y683580D01*
X580922Y683636D01*
X580996Y683685D01*
X581077Y683764D01*
X581164Y683836D01*
X581220Y683905D01*
X581283Y683967D01*
X581347Y684061D01*
X581418Y684149D01*
X581459Y684227D01*
X581509Y684301D01*
X581552Y684405D01*
X581605Y684505D01*
X581630Y684590D01*
X581664Y684672D01*
X581686Y684783D01*
X581718Y684892D01*
X581726Y684980D01*
X581743Y685067D01*
X581743Y685180D01*
X581753Y685293D01*
X581743Y685381D01*
X581743Y685470D01*
X581720Y685581D01*
X581707Y685693D01*
X581680Y685778D01*
X581663Y685864D01*
X581619Y685969D01*
X581584Y686076D01*
X581541Y686154D01*
X581507Y686236D01*
X581443Y686329D01*
X581388Y686428D01*
X581330Y686495D01*
X581280Y686569D01*
X581200Y686648D01*
X581126Y686734D01*
X581056Y686788D01*
X580993Y686850D01*
X580898Y686912D01*
X580809Y686982D01*
X580730Y687022D01*
X580655Y687070D01*
X580525Y687125D01*
X580449Y687163D01*
X580405Y687175D01*
X580349Y687198D01*
X579617Y687436D01*
X577943Y688289D01*
X576422Y689394D01*
X575094Y690722D01*
X573989Y692243D01*
X573136Y693917D01*
X572555Y695704D01*
X572515Y695961D01*
X583692Y695961D01*
X583710Y695962D01*
X583727Y695961D01*
X583910Y695982D01*
X584092Y696001D01*
X584109Y696006D01*
X584127Y696008D01*
X584205Y696033D01*
X584342Y695994D01*
X584360Y695992D01*
X584377Y695988D01*
X584708Y695961D01*
X595885Y695961D01*
X595845Y695704D01*
X595264Y693917D01*
X594411Y692243D01*
X593306Y690722D01*
X591978Y689394D01*
X590457Y688289D01*
X588783Y687436D01*
X588051Y687198D01*
X587969Y687162D01*
X587885Y687136D01*
X587786Y687082D01*
X587682Y687036D01*
X587609Y686985D01*
X587532Y686943D01*
X587445Y686870D01*
X587353Y686805D01*
X587291Y686741D01*
X587223Y686684D01*
X587153Y686595D01*
X587075Y686513D01*
X587028Y686438D01*
X586972Y686369D01*
X586921Y686268D01*
X586861Y686173D01*
X586829Y686090D01*
X586789Y686011D01*
X586758Y685902D01*
X586718Y685796D01*
X586703Y685708D01*
X586679Y685623D01*
X586670Y685511D01*
X586652Y685399D01*
X586655Y685310D01*
X586648Y685222D01*
X586661Y685110D01*
X586665Y684997D01*
X586686Y684910D01*
X586696Y684822D01*
X586732Y684715D01*
X586758Y684605D01*
X586795Y684524D01*
X586823Y684440D01*
X586879Y684342D01*
X586926Y684239D01*
X586978Y684167D01*
X587022Y684090D01*
X587097Y684005D01*
X587163Y683914D01*
X587228Y683854D01*
X587287Y683787D01*
X587376Y683718D01*
X587460Y683641D01*
X587536Y683595D01*
X587606Y683541D01*
X587732Y683477D01*
X587804Y683433D01*
X587847Y683417D01*
X587901Y683390D01*
X590387Y682360D01*
X593460Y679287D01*
X595123Y675273D01*
X595123Y670927D01*
X593460Y666913D01*
X590387Y663840D01*
X586613Y662277D01*
X586605Y662272D01*
X586596Y662270D01*
X586428Y662178D01*
X586258Y662086D01*
X586251Y662081D01*
X586243Y662076D01*
X586097Y661953D01*
X585947Y661830D01*
X585942Y661823D01*
X585935Y661817D01*
X585815Y661667D01*
X585694Y661517D01*
X585689Y661509D01*
X585684Y661503D01*
X585596Y661331D01*
X585507Y661161D01*
X585504Y661152D01*
X585500Y661144D01*
X585448Y660960D01*
X585393Y660774D01*
X585393Y660766D01*
X585390Y660757D01*
X585375Y660565D01*
X585359Y660373D01*
X585360Y660364D01*
X585359Y660356D01*
X585382Y660165D01*
X585404Y659973D01*
X585407Y659965D01*
X585408Y659956D01*
X585468Y659773D01*
X585527Y659590D01*
X585531Y659582D01*
X585534Y659574D01*
X585630Y659406D01*
X585723Y659238D01*
X585729Y659232D01*
X585734Y659224D01*
X585860Y659079D01*
X585985Y658933D01*
X585992Y658927D01*
X585998Y658920D01*
X586150Y658803D01*
X586302Y658684D01*
X586310Y658680D01*
X586317Y658675D01*
X586613Y658523D01*
X590387Y656960D01*
X593460Y653887D01*
X595123Y649873D01*
X595123Y645527D01*
X593460Y641513D01*
X590387Y638440D01*
X588878Y637815D01*
X586613Y636877D01*
X586605Y636872D01*
X586596Y636870D01*
X586428Y636778D01*
X586258Y636686D01*
X586251Y636681D01*
X586243Y636676D01*
X586097Y636553D01*
X585947Y636430D01*
X585942Y636423D01*
X585935Y636417D01*
X585815Y636267D01*
X585694Y636117D01*
X585689Y636109D01*
X585684Y636103D01*
X585596Y635931D01*
X585507Y635761D01*
X585504Y635752D01*
X585500Y635744D01*
X585448Y635560D01*
X585393Y635374D01*
X585393Y635366D01*
X585390Y635357D01*
X585375Y635166D01*
X585359Y634973D01*
X585360Y634964D01*
X585359Y634956D01*
X585382Y634765D01*
X585404Y634573D01*
X585407Y634565D01*
X585408Y634556D01*
X585468Y634373D01*
X585527Y634190D01*
X585531Y634182D01*
X585534Y634174D01*
X585630Y634006D01*
X585723Y633838D01*
X585729Y633832D01*
X585734Y633824D01*
X585860Y633679D01*
X585985Y633533D01*
X585992Y633527D01*
X585998Y633520D01*
X586150Y633403D01*
X586302Y633284D01*
X586310Y633280D01*
X586317Y633275D01*
X586613Y633123D01*
X590387Y631560D01*
X593460Y628487D01*
X595123Y624473D01*
X595123Y620127D01*
X593460Y616113D01*
X590387Y613040D01*
X586613Y611477D01*
X586605Y611472D01*
X586596Y611470D01*
X586428Y611378D01*
X586258Y611286D01*
X586251Y611281D01*
X586243Y611276D01*
X586097Y611153D01*
X585947Y611030D01*
X585942Y611023D01*
X585935Y611017D01*
X585815Y610867D01*
X585694Y610717D01*
X585689Y610709D01*
X585684Y610703D01*
X585596Y610531D01*
X585507Y610361D01*
X585504Y610352D01*
X585500Y610344D01*
X585448Y610160D01*
X585393Y609974D01*
X585393Y609966D01*
X585390Y609957D01*
X585375Y609766D01*
X585359Y609573D01*
X585360Y609564D01*
X585359Y609556D01*
X585382Y609365D01*
X585404Y609173D01*
X585407Y609165D01*
X585408Y609156D01*
X585468Y608973D01*
X585527Y608790D01*
X585531Y608782D01*
X585534Y608774D01*
X585630Y608606D01*
X585723Y608438D01*
X585729Y608432D01*
X585734Y608424D01*
X585860Y608279D01*
X585985Y608133D01*
X585992Y608127D01*
X585998Y608120D01*
X586150Y608003D01*
X586302Y607884D01*
X586310Y607880D01*
X586317Y607875D01*
X586613Y607723D01*
X590387Y606160D01*
X593460Y603087D01*
X594559Y600433D01*
X594653Y600259D01*
X594745Y600085D01*
X594747Y600082D01*
X594749Y600078D01*
X594876Y599925D01*
X595000Y599774D01*
X595003Y599771D01*
X595006Y599768D01*
X595159Y599643D01*
X595312Y599519D01*
X595315Y599517D01*
X595318Y599514D01*
X595492Y599423D01*
X595667Y599330D01*
X595672Y599329D01*
X595675Y599327D01*
X595703Y599319D01*
X595984Y599230D01*
X603111Y597604D01*
X614662Y592041D01*
X624687Y584047D01*
X632681Y574022D01*
X638244Y562471D01*
X641097Y549971D01*
X641097Y542071D01*
X641039Y541997D01*
X640929Y541862D01*
X640916Y541839D01*
X640900Y541817D01*
X640822Y541661D01*
X640740Y541507D01*
X640732Y541481D01*
X640720Y541457D01*
X640675Y541288D01*
X640625Y541121D01*
X640623Y541094D01*
X640616Y541068D01*
X640589Y540737D01*
X640589Y536096D01*
X640591Y536078D01*
X640589Y536060D01*
X640610Y535878D01*
X640629Y535695D01*
X640634Y535678D01*
X640636Y535661D01*
X640693Y535486D01*
X640747Y535310D01*
X640755Y535295D01*
X640761Y535278D01*
X640851Y535118D01*
X640939Y534956D01*
X640950Y534943D01*
X640959Y534927D01*
X641079Y534788D01*
X641196Y534647D01*
X641210Y534636D01*
X641222Y534622D01*
X641367Y534510D01*
X641510Y534395D01*
X641526Y534387D01*
X641540Y534376D01*
X641705Y534294D01*
X641867Y534209D01*
X641884Y534204D01*
X641900Y534196D01*
X642079Y534149D01*
X642254Y534098D01*
X642272Y534096D01*
X642289Y534092D01*
X642620Y534065D01*
X647172Y534065D01*
X648065Y533172D01*
X648065Y515908D01*
X647172Y515015D01*
X627908Y515015D01*
X627015Y515908D01*
X627015Y533172D01*
X627908Y534065D01*
X632460Y534065D01*
X632478Y534067D01*
X632496Y534065D01*
X632678Y534086D01*
X632861Y534105D01*
X632878Y534110D01*
X632895Y534112D01*
X633070Y534169D01*
X633246Y534223D01*
X633261Y534231D01*
X633278Y534237D01*
X633438Y534327D01*
X633600Y534415D01*
X633613Y534426D01*
X633629Y534435D01*
X633768Y534555D01*
X633909Y534672D01*
X633920Y534686D01*
X633934Y534698D01*
X634046Y534843D01*
X634161Y534986D01*
X634169Y535002D01*
X634180Y535016D01*
X634262Y535181D01*
X634347Y535343D01*
X634352Y535360D01*
X634360Y535376D01*
X634407Y535555D01*
X634458Y535730D01*
X634460Y535748D01*
X634464Y535765D01*
X634491Y536096D01*
X634491Y540737D01*
X634489Y540764D01*
X634491Y540791D01*
X634469Y540964D01*
X634451Y541138D01*
X634443Y541164D01*
X634440Y541190D01*
X634385Y541356D01*
X634333Y541523D01*
X634320Y541546D01*
X634312Y541572D01*
X634225Y541724D01*
X634141Y541877D01*
X634124Y541897D01*
X634111Y541921D01*
X633983Y542071D01*
X633983Y543560D01*
X633978Y543609D01*
X633980Y543674D01*
X633680Y549020D01*
X633679Y549025D01*
X633679Y549030D01*
X633632Y549359D01*
X631253Y559783D01*
X631233Y559842D01*
X631221Y559903D01*
X631151Y560086D01*
X631125Y560165D01*
X631113Y560186D01*
X631102Y560213D01*
X626463Y569847D01*
X626431Y569900D01*
X626406Y569957D01*
X626297Y570119D01*
X626253Y570191D01*
X626237Y570208D01*
X626221Y570232D01*
X619554Y578592D01*
X619511Y578637D01*
X619474Y578686D01*
X619331Y578821D01*
X619273Y578881D01*
X619254Y578894D01*
X619232Y578914D01*
X610872Y585581D01*
X610820Y585615D01*
X610773Y585655D01*
X610604Y585754D01*
X610534Y585799D01*
X610512Y585808D01*
X610487Y585823D01*
X600853Y590462D01*
X600795Y590484D01*
X600740Y590513D01*
X600553Y590572D01*
X600475Y590600D01*
X600451Y590604D01*
X600423Y590613D01*
X595696Y591692D01*
X595647Y591698D01*
X595600Y591711D01*
X595448Y591723D01*
X595296Y591742D01*
X595248Y591738D01*
X595199Y591742D01*
X595047Y591724D01*
X594895Y591712D01*
X594848Y591699D01*
X594799Y591693D01*
X594654Y591645D01*
X594507Y591604D01*
X594463Y591582D01*
X594417Y591567D01*
X594284Y591491D01*
X594148Y591422D01*
X594110Y591392D01*
X594067Y591367D01*
X593952Y591267D01*
X593832Y591172D01*
X593801Y591135D01*
X593764Y591103D01*
X593671Y590982D01*
X593572Y590865D01*
X593548Y590822D01*
X593519Y590784D01*
X593506Y590758D01*
X590387Y587640D01*
X586613Y586077D01*
X586605Y586072D01*
X586596Y586070D01*
X586428Y585978D01*
X586258Y585886D01*
X586251Y585881D01*
X586243Y585876D01*
X586097Y585753D01*
X585947Y585630D01*
X585942Y585623D01*
X585935Y585617D01*
X585814Y585466D01*
X585694Y585317D01*
X585689Y585309D01*
X585684Y585303D01*
X585596Y585131D01*
X585507Y584961D01*
X585504Y584952D01*
X585500Y584944D01*
X585448Y584760D01*
X585393Y584574D01*
X585393Y584566D01*
X585390Y584557D01*
X585375Y584366D01*
X585359Y584173D01*
X585360Y584164D01*
X585359Y584156D01*
X585382Y583965D01*
X585404Y583773D01*
X585407Y583765D01*
X585408Y583756D01*
X585468Y583573D01*
X585527Y583390D01*
X585531Y583382D01*
X585534Y583374D01*
X585630Y583206D01*
X585723Y583038D01*
X585729Y583032D01*
X585734Y583024D01*
X585860Y582879D01*
X585985Y582733D01*
X585992Y582727D01*
X585998Y582720D01*
X586150Y582603D01*
X586302Y582484D01*
X586310Y582480D01*
X586317Y582475D01*
X586613Y582323D01*
X590387Y580760D01*
X593460Y577687D01*
X595123Y573673D01*
X595123Y569327D01*
X593460Y565313D01*
X590387Y562240D01*
X586613Y560677D01*
X586605Y560672D01*
X586596Y560670D01*
X586428Y560578D01*
X586258Y560486D01*
X586251Y560481D01*
X586243Y560476D01*
X586097Y560353D01*
X585947Y560230D01*
X585942Y560223D01*
X585935Y560217D01*
X585815Y560067D01*
X585694Y559917D01*
X585689Y559909D01*
X585684Y559903D01*
X585596Y559731D01*
X585507Y559561D01*
X585504Y559552D01*
X585500Y559544D01*
X585448Y559360D01*
X585393Y559174D01*
X585393Y559166D01*
X585390Y559157D01*
X585375Y558963D01*
X585359Y558773D01*
X585360Y558764D01*
X585359Y558756D01*
X585382Y558565D01*
X585404Y558373D01*
X585407Y558365D01*
X585408Y558356D01*
X585468Y558173D01*
X585527Y557990D01*
X585531Y557982D01*
X585534Y557974D01*
X585630Y557806D01*
X585723Y557638D01*
X585729Y557632D01*
X585734Y557624D01*
X585860Y557479D01*
X585985Y557333D01*
X585992Y557327D01*
X585998Y557320D01*
X586150Y557203D01*
X586302Y557084D01*
X586310Y557080D01*
X586317Y557075D01*
X586613Y556923D01*
X590387Y555360D01*
X593460Y552287D01*
X595123Y548273D01*
X595123Y543927D01*
X593460Y539913D01*
X590387Y536840D01*
X586613Y535277D01*
X586605Y535272D01*
X586596Y535270D01*
X586428Y535178D01*
X586258Y535086D01*
X586251Y535081D01*
X586243Y535076D01*
X586097Y534953D01*
X585947Y534830D01*
X585942Y534823D01*
X585935Y534817D01*
X585815Y534667D01*
X585694Y534517D01*
X585689Y534509D01*
X585684Y534503D01*
X585596Y534331D01*
X585507Y534161D01*
X585504Y534152D01*
X585500Y534144D01*
X585448Y533960D01*
X585393Y533774D01*
X585393Y533766D01*
X585390Y533757D01*
X585375Y533566D01*
X585359Y533373D01*
X585360Y533364D01*
X585359Y533356D01*
X585382Y533165D01*
X585404Y532973D01*
X585407Y532965D01*
X585408Y532956D01*
X585468Y532773D01*
X585527Y532590D01*
X585531Y532582D01*
X585534Y532574D01*
X585630Y532406D01*
X585723Y532238D01*
X585729Y532232D01*
X585734Y532224D01*
X585860Y532079D01*
X585985Y531933D01*
X585992Y531927D01*
X585998Y531920D01*
X586150Y531803D01*
X586302Y531684D01*
X586310Y531680D01*
X586317Y531675D01*
X586613Y531523D01*
X590387Y529960D01*
X593460Y526887D01*
X595123Y522873D01*
X595123Y518527D01*
X593460Y514513D01*
X590387Y511440D01*
X586613Y509877D01*
X586605Y509872D01*
X586596Y509870D01*
X586427Y509777D01*
X586258Y509686D01*
X586251Y509681D01*
X586243Y509676D01*
X586097Y509553D01*
X585947Y509430D01*
X585942Y509423D01*
X585935Y509417D01*
X585815Y509267D01*
X585694Y509117D01*
X585689Y509109D01*
X585684Y509103D01*
X585595Y508929D01*
X585507Y508761D01*
X585504Y508752D01*
X585500Y508744D01*
X585448Y508560D01*
X585393Y508374D01*
X585393Y508366D01*
X585390Y508357D01*
X585375Y508166D01*
X585359Y507973D01*
X585360Y507964D01*
X585359Y507956D01*
X585382Y507765D01*
X585404Y507573D01*
X585407Y507565D01*
X585408Y507556D01*
X585468Y507373D01*
X585527Y507190D01*
X585531Y507182D01*
X585534Y507174D01*
X585630Y507006D01*
X585723Y506838D01*
X585729Y506832D01*
X585734Y506824D01*
X585860Y506679D01*
X585985Y506533D01*
X585992Y506527D01*
X585998Y506520D01*
X586150Y506403D01*
X586302Y506284D01*
X586310Y506280D01*
X586317Y506275D01*
X586613Y506123D01*
X590387Y504560D01*
X593460Y501487D01*
X595123Y497473D01*
X595123Y493127D01*
X593460Y489113D01*
X590387Y486040D01*
X589014Y485471D01*
X586373Y484377D01*
X582027Y484377D01*
X578013Y486040D01*
X574940Y489113D01*
X573277Y493127D01*
X573277Y497473D01*
X574940Y501487D01*
X578013Y504560D01*
X581787Y506123D01*
X581795Y506128D01*
X581804Y506130D01*
X581973Y506223D01*
X582142Y506314D01*
X582149Y506319D01*
X582157Y506324D01*
X582305Y506448D01*
X582453Y506570D01*
X582458Y506577D01*
X582465Y506583D01*
X582585Y506733D01*
X582706Y506883D01*
X582711Y506891D01*
X582716Y506898D01*
X582803Y507067D01*
X582894Y507239D01*
X582896Y507248D01*
X582900Y507256D01*
X582952Y507438D01*
X583007Y507626D01*
X583007Y507635D01*
X583010Y507643D01*
X583025Y507834D01*
X583041Y508027D01*
X583040Y508036D01*
X583041Y508044D01*
X583018Y508235D01*
X582996Y508427D01*
X582993Y508435D01*
X582992Y508444D01*
X582932Y508626D01*
X582873Y508810D01*
X582868Y508818D01*
X582866Y508826D01*
X582770Y508994D01*
X582677Y509162D01*
X582671Y509168D01*
X582666Y509176D01*
X582539Y509322D01*
X582415Y509467D01*
X582408Y509473D01*
X582402Y509480D01*
X582250Y509597D01*
X582098Y509716D01*
X582090Y509720D01*
X582083Y509725D01*
X581787Y509877D01*
X578013Y511440D01*
X574940Y514513D01*
X573277Y518527D01*
X573277Y522873D01*
X574940Y526887D01*
X578013Y529960D01*
X581787Y531523D01*
X581795Y531528D01*
X581804Y531530D01*
X581973Y531623D01*
X582142Y531714D01*
X582149Y531719D01*
X582157Y531724D01*
X582305Y531848D01*
X582453Y531970D01*
X582458Y531977D01*
X582465Y531983D01*
X582585Y532133D01*
X582706Y532283D01*
X582711Y532291D01*
X582716Y532298D01*
X582803Y532467D01*
X582894Y532639D01*
X582896Y532648D01*
X582900Y532656D01*
X582952Y532838D01*
X583007Y533026D01*
X583007Y533035D01*
X583010Y533043D01*
X583025Y533234D01*
X583041Y533427D01*
X583040Y533436D01*
X583041Y533444D01*
X583018Y533635D01*
X582996Y533827D01*
X582993Y533835D01*
X582992Y533844D01*
X582932Y534026D01*
X582873Y534210D01*
X582868Y534218D01*
X582866Y534226D01*
X582770Y534394D01*
X582677Y534562D01*
X582671Y534568D01*
X582666Y534576D01*
X582539Y534722D01*
X582415Y534867D01*
X582408Y534873D01*
X582402Y534880D01*
X582250Y534997D01*
X582098Y535116D01*
X582090Y535120D01*
X582083Y535125D01*
X581787Y535277D01*
X578013Y536840D01*
X574940Y539913D01*
X573277Y543927D01*
X573277Y548273D01*
X574940Y552287D01*
X578013Y555360D01*
X581787Y556923D01*
X581795Y556928D01*
X581804Y556930D01*
X581973Y557023D01*
X582142Y557114D01*
X582149Y557119D01*
X582157Y557124D01*
X582305Y557248D01*
X582453Y557370D01*
X582458Y557377D01*
X582465Y557383D01*
X582585Y557533D01*
X582706Y557683D01*
X582711Y557691D01*
X582716Y557698D01*
X582803Y557867D01*
X582894Y558039D01*
X582896Y558048D01*
X582900Y558056D01*
X582952Y558238D01*
X583007Y558426D01*
X583007Y558435D01*
X583010Y558443D01*
X583025Y558634D01*
X583041Y558827D01*
X583040Y558836D01*
X583041Y558844D01*
X583018Y559035D01*
X582996Y559227D01*
X582993Y559235D01*
X582992Y559244D01*
X582932Y559426D01*
X582873Y559610D01*
X582868Y559618D01*
X582866Y559626D01*
X582770Y559794D01*
X582677Y559962D01*
X582671Y559968D01*
X582666Y559976D01*
X582539Y560122D01*
X582415Y560267D01*
X582408Y560273D01*
X582402Y560280D01*
X582250Y560397D01*
X582098Y560516D01*
X582090Y560520D01*
X582083Y560525D01*
X581787Y560677D01*
X578013Y562240D01*
X574940Y565313D01*
X573277Y569327D01*
X573277Y573673D01*
X574940Y577687D01*
X578013Y580760D01*
X579211Y581256D01*
X581787Y582323D01*
X581795Y582328D01*
X581804Y582330D01*
X581973Y582423D01*
X582142Y582514D01*
X582149Y582519D01*
X582157Y582524D01*
X582305Y582648D01*
X582453Y582770D01*
X582458Y582777D01*
X582465Y582783D01*
X582585Y582933D01*
X582706Y583083D01*
X582711Y583091D01*
X582716Y583098D01*
X582803Y583267D01*
X582894Y583439D01*
X582896Y583448D01*
X582900Y583456D01*
X582952Y583638D01*
X583007Y583826D01*
X583007Y583835D01*
X583010Y583843D01*
X583024Y584033D01*
X583041Y584227D01*
X583040Y584236D01*
X583041Y584244D01*
X583018Y584435D01*
X582996Y584627D01*
X582993Y584635D01*
X582992Y584644D01*
X582932Y584825D01*
X582873Y585010D01*
X582868Y585018D01*
X582866Y585026D01*
X582770Y585194D01*
X582677Y585362D01*
X582671Y585368D01*
X582666Y585376D01*
X582539Y585522D01*
X582415Y585667D01*
X582408Y585673D01*
X582402Y585680D01*
X582250Y585797D01*
X582098Y585916D01*
X582090Y585920D01*
X582083Y585925D01*
X581787Y586077D01*
X578013Y587640D01*
X574940Y590713D01*
X573277Y594727D01*
X573277Y599073D01*
X574940Y603087D01*
X578013Y606160D01*
X581787Y607723D01*
X581795Y607728D01*
X581804Y607730D01*
X581973Y607823D01*
X582142Y607914D01*
X582149Y607919D01*
X582157Y607924D01*
X582305Y608048D01*
X582453Y608170D01*
X582458Y608177D01*
X582465Y608183D01*
X582585Y608333D01*
X582706Y608483D01*
X582711Y608491D01*
X582716Y608498D01*
X582803Y608667D01*
X582894Y608839D01*
X582896Y608848D01*
X582900Y608856D01*
X582952Y609038D01*
X583007Y609226D01*
X583007Y609235D01*
X583010Y609243D01*
X583025Y609434D01*
X583041Y609627D01*
X583040Y609636D01*
X583041Y609644D01*
X583018Y609835D01*
X582996Y610027D01*
X582993Y610035D01*
X582992Y610044D01*
X582932Y610226D01*
X582873Y610410D01*
X582868Y610418D01*
X582866Y610426D01*
X582770Y610594D01*
X582677Y610762D01*
X582671Y610768D01*
X582666Y610776D01*
X582539Y610922D01*
X582415Y611067D01*
X582408Y611073D01*
X582402Y611080D01*
X582250Y611197D01*
X582098Y611316D01*
X582090Y611320D01*
X582083Y611325D01*
X581787Y611477D01*
X578013Y613040D01*
X574940Y616113D01*
X573277Y620127D01*
X573277Y624473D01*
X574940Y628487D01*
X578013Y631560D01*
X581787Y633123D01*
X581795Y633128D01*
X581804Y633130D01*
X581973Y633223D01*
X582142Y633314D01*
X582149Y633319D01*
X582157Y633324D01*
X582305Y633448D01*
X582453Y633570D01*
X582458Y633577D01*
X582465Y633583D01*
X582585Y633733D01*
X582706Y633883D01*
X582711Y633891D01*
X582716Y633898D01*
X582803Y634067D01*
X582894Y634239D01*
X582896Y634248D01*
X582900Y634256D01*
X582952Y634438D01*
X583007Y634626D01*
X583007Y634635D01*
X583010Y634643D01*
X583024Y634832D01*
X583041Y635027D01*
X583040Y635036D01*
X583041Y635044D01*
X583018Y635235D01*
X582996Y635427D01*
X582993Y635435D01*
X582992Y635444D01*
X582932Y635626D01*
X582873Y635810D01*
X582868Y635818D01*
X582866Y635826D01*
X582770Y635994D01*
X582677Y636162D01*
X582671Y636168D01*
X582666Y636176D01*
X582539Y636322D01*
X582415Y636467D01*
X582408Y636473D01*
X582402Y636480D01*
X582250Y636597D01*
X582098Y636716D01*
X582090Y636720D01*
X582083Y636725D01*
X581787Y636877D01*
X578013Y638440D01*
X574971Y641482D01*
X574900Y641540D01*
X574836Y641605D01*
X574745Y641667D01*
X574659Y641737D01*
X574579Y641780D01*
X574503Y641831D01*
X574401Y641874D01*
X574303Y641926D01*
X574216Y641952D01*
X574132Y641987D01*
X574024Y642009D01*
X573918Y642041D01*
X573827Y642049D01*
X573738Y642067D01*
X573627Y642067D01*
X573517Y642077D01*
X573426Y642067D01*
X573335Y642067D01*
X573200Y642043D01*
X573116Y642034D01*
X573071Y642019D01*
X573009Y642008D01*
X572204Y641793D01*
X572111Y641757D01*
X572015Y641732D01*
X571902Y641679D01*
X571828Y641650D01*
X571781Y641621D01*
X571715Y641590D01*
X564939Y637678D01*
X564887Y637641D01*
X564855Y637623D01*
X564835Y637606D01*
X564771Y637569D01*
X564676Y637489D01*
X564612Y637443D01*
X564574Y637403D01*
X564518Y637355D01*
X558985Y631822D01*
X558922Y631745D01*
X558851Y631674D01*
X558781Y631572D01*
X558730Y631511D01*
X558705Y631462D01*
X558662Y631401D01*
X554750Y624625D01*
X554709Y624534D01*
X554659Y624448D01*
X554618Y624331D01*
X554585Y624259D01*
X554572Y624205D01*
X554547Y624136D01*
X552522Y616578D01*
X552517Y616545D01*
X552506Y616513D01*
X552457Y616185D01*
X552201Y612273D01*
X552203Y612216D01*
X552197Y612140D01*
X552197Y582583D01*
X549216Y569525D01*
X543405Y557458D01*
X535054Y546986D01*
X524582Y538635D01*
X512515Y532824D01*
X499457Y529843D01*
X468907Y529843D01*
X468884Y529841D01*
X468862Y529843D01*
X468685Y529821D01*
X468506Y529803D01*
X468485Y529797D01*
X468463Y529794D01*
X468293Y529738D01*
X468121Y529685D01*
X468101Y529675D01*
X468080Y529668D01*
X467925Y529579D01*
X467767Y529493D01*
X467750Y529479D01*
X467731Y529468D01*
X467595Y529350D01*
X467458Y529236D01*
X467444Y529218D01*
X467427Y529204D01*
X467318Y529062D01*
X467206Y528922D01*
X467195Y528902D01*
X467182Y528884D01*
X467030Y528589D01*
X466460Y527213D01*
X463387Y524140D01*
X463206Y524065D01*
X459613Y522577D01*
X459605Y522572D01*
X459596Y522570D01*
X459428Y522478D01*
X459258Y522386D01*
X459251Y522381D01*
X459243Y522376D01*
X459097Y522253D01*
X458947Y522130D01*
X458942Y522123D01*
X458935Y522117D01*
X458815Y521967D01*
X458694Y521817D01*
X458689Y521809D01*
X458684Y521803D01*
X458596Y521631D01*
X458507Y521461D01*
X458504Y521452D01*
X458500Y521444D01*
X458448Y521260D01*
X458393Y521074D01*
X458393Y521066D01*
X458390Y521057D01*
X458375Y520866D01*
X458359Y520673D01*
X458360Y520664D01*
X458359Y520656D01*
X458382Y520465D01*
X458404Y520273D01*
X458407Y520265D01*
X458408Y520256D01*
X458468Y520073D01*
X458527Y519890D01*
X458531Y519882D01*
X458534Y519874D01*
X458630Y519706D01*
X458723Y519538D01*
X458729Y519532D01*
X458734Y519524D01*
X458860Y519379D01*
X458985Y519233D01*
X458992Y519227D01*
X458998Y519220D01*
X459150Y519103D01*
X459302Y518984D01*
X459310Y518980D01*
X459317Y518975D01*
X459613Y518823D01*
X463387Y517260D01*
X466460Y514187D01*
X468123Y510173D01*
X468123Y505827D01*
X466460Y501813D01*
X463387Y498740D01*
X462253Y498270D01*
X462210Y498248D01*
X462165Y498231D01*
X462033Y498153D01*
X461898Y498080D01*
X461861Y498049D01*
X461819Y498024D01*
X461706Y497921D01*
X461588Y497824D01*
X461557Y497786D01*
X461521Y497753D01*
X461430Y497630D01*
X461334Y497511D01*
X461312Y497468D01*
X461283Y497429D01*
X461218Y497290D01*
X461147Y497155D01*
X461134Y497108D01*
X461113Y497064D01*
X461077Y496915D01*
X461034Y496768D01*
X461030Y496720D01*
X461018Y496673D01*
X461013Y496519D01*
X460999Y496367D01*
X461005Y496319D01*
X461003Y496270D01*
X461037Y496032D01*
X461045Y495967D01*
X461048Y495956D01*
X461050Y495942D01*
X462004Y491765D01*
X462023Y491706D01*
X462035Y491645D01*
X462105Y491462D01*
X462132Y491383D01*
X462143Y491363D01*
X462154Y491336D01*
X466423Y482470D01*
X466455Y482417D01*
X466480Y482360D01*
X466590Y482198D01*
X466633Y482126D01*
X466649Y482109D01*
X466665Y482085D01*
X472800Y474392D01*
X472843Y474347D01*
X472880Y474298D01*
X473023Y474163D01*
X473081Y474103D01*
X473101Y474090D01*
X473122Y474070D01*
X480815Y467935D01*
X480867Y467902D01*
X480914Y467861D01*
X481083Y467762D01*
X481153Y467717D01*
X481175Y467708D01*
X481200Y467693D01*
X490066Y463424D01*
X490124Y463403D01*
X490179Y463374D01*
X490365Y463314D01*
X490444Y463286D01*
X490467Y463282D01*
X490495Y463274D01*
X500088Y461084D01*
X500093Y461083D01*
X500098Y461082D01*
X500426Y461036D01*
X505346Y460760D01*
X505395Y460762D01*
X505460Y460757D01*
X656123Y460757D01*
X670011Y457587D01*
X682846Y451406D01*
X693984Y442524D01*
X701484Y433119D01*
X701570Y433031D01*
X701648Y432937D01*
X701710Y432887D01*
X701765Y432831D01*
X701866Y432761D01*
X701962Y432684D01*
X702032Y432648D01*
X702097Y432603D01*
X702211Y432555D01*
X702319Y432499D01*
X702395Y432477D01*
X702468Y432446D01*
X702588Y432421D01*
X702706Y432387D01*
X702785Y432381D01*
X702862Y432365D01*
X702985Y432365D01*
X703108Y432355D01*
X703186Y432364D01*
X703265Y432363D01*
X703385Y432387D01*
X703507Y432401D01*
X703582Y432426D01*
X703660Y432441D01*
X703773Y432488D01*
X703890Y432526D01*
X703959Y432565D01*
X704032Y432595D01*
X704134Y432664D01*
X704241Y432724D01*
X704301Y432776D01*
X704366Y432820D01*
X704453Y432907D01*
X704546Y432987D01*
X704594Y433050D01*
X704649Y433106D01*
X704717Y433208D01*
X704792Y433305D01*
X704827Y433376D01*
X704871Y433442D01*
X704917Y433556D01*
X704972Y433666D01*
X704992Y433742D01*
X705022Y433815D01*
X705044Y433936D01*
X705076Y434055D01*
X705084Y434147D01*
X705096Y434211D01*
X705095Y434282D01*
X705103Y434385D01*
X705103Y675549D01*
X708186Y685038D01*
X714051Y693109D01*
X722122Y698974D01*
X724526Y699755D01*
X724624Y699798D01*
X724725Y699831D01*
X724808Y699878D01*
X724895Y699916D01*
X724982Y699978D01*
X725075Y700030D01*
X725147Y700093D01*
X725225Y700148D01*
X725298Y700225D01*
X725378Y700295D01*
X725436Y700370D01*
X725502Y700439D01*
X725559Y700530D01*
X725624Y700614D01*
X725676Y700716D01*
X725716Y700780D01*
X725738Y700836D01*
X725775Y700909D01*
X727340Y704687D01*
X730413Y707760D01*
X733950Y709225D01*
X734187Y709323D01*
X734195Y709328D01*
X734204Y709330D01*
X734372Y709422D01*
X734542Y709514D01*
X734549Y709519D01*
X734557Y709524D01*
X734703Y709647D01*
X734853Y709770D01*
X734858Y709777D01*
X734865Y709783D01*
X734985Y709933D01*
X735106Y710083D01*
X735111Y710091D01*
X735116Y710097D01*
X735204Y710269D01*
X735293Y710439D01*
X735296Y710448D01*
X735300Y710456D01*
X735352Y710640D01*
X735407Y710826D01*
X735407Y710834D01*
X735410Y710843D01*
X735425Y711034D01*
X735441Y711227D01*
X735440Y711236D01*
X735441Y711244D01*
X735418Y711435D01*
X735396Y711627D01*
X735393Y711635D01*
X735392Y711644D01*
X735332Y711827D01*
X735273Y712010D01*
X735269Y712018D01*
X735266Y712026D01*
X735170Y712194D01*
X735077Y712362D01*
X735071Y712368D01*
X735066Y712376D01*
X734940Y712521D01*
X734815Y712667D01*
X734808Y712673D01*
X734802Y712680D01*
X734650Y712797D01*
X734498Y712916D01*
X734490Y712920D01*
X734483Y712925D01*
X734187Y713077D01*
X730413Y714640D01*
X727340Y717713D01*
X725677Y721727D01*
X725677Y726073D01*
X727340Y730087D01*
X730413Y733160D01*
X732899Y734190D01*
X732977Y734232D01*
X733060Y734265D01*
X733154Y734326D01*
X733254Y734380D01*
X733322Y734436D01*
X733396Y734485D01*
X733477Y734564D01*
X733564Y734636D01*
X733620Y734705D01*
X733683Y734767D01*
X733747Y734861D01*
X733818Y734949D01*
X733859Y735027D01*
X733909Y735101D01*
X733952Y735205D01*
X734005Y735305D01*
X734030Y735390D01*
X734064Y735472D01*
X734086Y735583D01*
X734118Y735692D01*
X734126Y735780D01*
X734143Y735867D01*
X734143Y735980D01*
X734153Y736093D01*
X734143Y736181D01*
X734143Y736270D01*
X734120Y736381D01*
X734107Y736493D01*
X734080Y736578D01*
X734063Y736664D01*
X734019Y736769D01*
X733984Y736876D01*
X733941Y736954D01*
X733907Y737036D01*
X733843Y737129D01*
X733788Y737228D01*
X733730Y737295D01*
X733680Y737369D01*
X733600Y737448D01*
X733526Y737534D01*
X733456Y737588D01*
X733393Y737650D01*
X733298Y737712D01*
X733209Y737782D01*
X733130Y737822D01*
X733055Y737870D01*
X732925Y737925D01*
X732849Y737963D01*
X732805Y737975D01*
X732749Y737998D01*
X732017Y738236D01*
X730343Y739089D01*
X728822Y740194D01*
X727494Y741522D01*
X726389Y743043D01*
X725536Y744717D01*
X724955Y746504D01*
X724915Y746761D01*
X736092Y746761D01*
X736110Y746762D01*
X736127Y746761D01*
X736310Y746782D01*
X736492Y746801D01*
X736509Y746806D01*
X736527Y746808D01*
X736605Y746833D01*
X736742Y746794D01*
X736760Y746792D01*
X736777Y746788D01*
X737108Y746761D01*
X748285Y746761D01*
X748245Y746504D01*
X747664Y744717D01*
X746811Y743043D01*
X745706Y741522D01*
X744378Y740194D01*
X742857Y739089D01*
X741183Y738236D01*
X740451Y737998D01*
X740369Y737962D01*
X740285Y737936D01*
X740186Y737882D01*
X740082Y737836D01*
X740009Y737785D01*
X739932Y737743D01*
X739845Y737670D01*
X739753Y737605D01*
X739691Y737541D01*
X739623Y737484D01*
X739553Y737395D01*
X739475Y737313D01*
X739428Y737238D01*
X739372Y737169D01*
X739321Y737068D01*
X739261Y736973D01*
X739229Y736890D01*
X739189Y736811D01*
X739158Y736702D01*
X739118Y736596D01*
X739103Y736508D01*
X739079Y736423D01*
X739070Y736311D01*
X739052Y736199D01*
X739055Y736110D01*
X739048Y736022D01*
X739061Y735910D01*
X739065Y735797D01*
X739086Y735710D01*
X739096Y735622D01*
X739132Y735515D01*
X739158Y735405D01*
X739195Y735324D01*
X739223Y735240D01*
X739279Y735142D01*
X739326Y735039D01*
X739378Y734967D01*
X739422Y734890D01*
X739497Y734805D01*
X739563Y734714D01*
X739628Y734654D01*
X739687Y734587D01*
X739776Y734518D01*
X739860Y734441D01*
X739936Y734395D01*
X740006Y734341D01*
X740132Y734277D01*
X740204Y734233D01*
X740247Y734217D01*
X740301Y734190D01*
X742787Y733160D01*
X745860Y730087D01*
X747523Y726073D01*
X747523Y721727D01*
X745860Y717713D01*
X742787Y714640D01*
X739013Y713077D01*
X739005Y713072D01*
X738996Y713070D01*
X738827Y712977D01*
X738658Y712886D01*
X738651Y712881D01*
X738643Y712876D01*
X738495Y712752D01*
X738347Y712630D01*
X738342Y712623D01*
X738335Y712617D01*
X738215Y712467D01*
X738094Y712317D01*
X738089Y712309D01*
X738084Y712302D01*
X737997Y712133D01*
X737906Y711961D01*
X737904Y711952D01*
X737900Y711944D01*
X737848Y711762D01*
X737793Y711574D01*
X737793Y711565D01*
X737790Y711557D01*
X737775Y711366D01*
X737759Y711173D01*
X737760Y711164D01*
X737759Y711156D01*
X737782Y710965D01*
X737804Y710773D01*
X737807Y710765D01*
X737808Y710756D01*
X737869Y710572D01*
X737927Y710390D01*
X737932Y710382D01*
X737934Y710374D01*
X738030Y710206D01*
X738123Y710038D01*
X738129Y710032D01*
X738134Y710024D01*
X738261Y709878D01*
X738385Y709733D01*
X738392Y709727D01*
X738398Y709720D01*
X738550Y709603D01*
X738702Y709484D01*
X738710Y709480D01*
X738717Y709475D01*
X739013Y709323D01*
X742787Y707760D01*
X745860Y704687D01*
X747523Y700673D01*
X747523Y696327D01*
X745860Y692313D01*
X742787Y689240D01*
X739013Y687677D01*
X739005Y687672D01*
X738996Y687670D01*
X738827Y687577D01*
X738658Y687486D01*
X738651Y687481D01*
X738643Y687476D01*
X738495Y687352D01*
X738347Y687230D01*
X738342Y687223D01*
X738335Y687217D01*
X738215Y687067D01*
X738094Y686917D01*
X738089Y686909D01*
X738084Y686902D01*
X737997Y686733D01*
X737906Y686561D01*
X737904Y686552D01*
X737900Y686544D01*
X737848Y686362D01*
X737793Y686174D01*
X737793Y686165D01*
X737790Y686157D01*
X737775Y685966D01*
X737759Y685773D01*
X737760Y685764D01*
X737759Y685756D01*
X737782Y685565D01*
X737804Y685373D01*
X737807Y685365D01*
X737808Y685356D01*
X737868Y685174D01*
X737927Y684990D01*
X737932Y684982D01*
X737934Y684974D01*
X738030Y684806D01*
X738123Y684638D01*
X738129Y684632D01*
X738134Y684624D01*
X738261Y684478D01*
X738385Y684333D01*
X738392Y684327D01*
X738398Y684320D01*
X738550Y684203D01*
X738702Y684084D01*
X738710Y684080D01*
X738717Y684075D01*
X739013Y683923D01*
X742787Y682360D01*
X745860Y679287D01*
X747523Y675273D01*
X747523Y670927D01*
X745860Y666913D01*
X742787Y663840D01*
X739013Y662277D01*
X739005Y662272D01*
X738996Y662270D01*
X738827Y662177D01*
X738658Y662086D01*
X738651Y662081D01*
X738643Y662076D01*
X738495Y661952D01*
X738347Y661830D01*
X738342Y661823D01*
X738335Y661817D01*
X738215Y661667D01*
X738094Y661517D01*
X738089Y661509D01*
X738084Y661502D01*
X737997Y661333D01*
X737906Y661161D01*
X737904Y661152D01*
X737900Y661144D01*
X737848Y660962D01*
X737793Y660774D01*
X737793Y660765D01*
X737790Y660757D01*
X737775Y660565D01*
X737759Y660373D01*
X737760Y660364D01*
X737759Y660356D01*
X737782Y660165D01*
X737804Y659973D01*
X737807Y659965D01*
X737808Y659956D01*
X737868Y659774D01*
X737927Y659590D01*
X737932Y659582D01*
X737934Y659574D01*
X738030Y659406D01*
X738123Y659238D01*
X738129Y659232D01*
X738134Y659224D01*
X738261Y659078D01*
X738385Y658933D01*
X738392Y658927D01*
X738398Y658920D01*
X738550Y658803D01*
X738702Y658684D01*
X738710Y658680D01*
X738717Y658675D01*
X739013Y658523D01*
X742787Y656960D01*
X745860Y653887D01*
X747523Y649873D01*
X747523Y645527D01*
X745860Y641513D01*
X742787Y638440D01*
X739013Y636877D01*
X739005Y636872D01*
X738996Y636870D01*
X738827Y636777D01*
X738658Y636686D01*
X738651Y636681D01*
X738643Y636676D01*
X738495Y636552D01*
X738347Y636430D01*
X738342Y636423D01*
X738335Y636417D01*
X738215Y636267D01*
X738094Y636117D01*
X738089Y636109D01*
X738084Y636102D01*
X737997Y635933D01*
X737906Y635761D01*
X737904Y635752D01*
X737900Y635744D01*
X737848Y635562D01*
X737793Y635374D01*
X737793Y635365D01*
X737790Y635357D01*
X737775Y635166D01*
X737759Y634973D01*
X737760Y634964D01*
X737759Y634956D01*
X737782Y634765D01*
X737804Y634573D01*
X737807Y634565D01*
X737808Y634556D01*
X737868Y634374D01*
X737927Y634190D01*
X737932Y634182D01*
X737934Y634174D01*
X738030Y634006D01*
X738123Y633838D01*
X738129Y633832D01*
X738134Y633824D01*
X738261Y633678D01*
X738385Y633533D01*
X738392Y633527D01*
X738398Y633520D01*
X738550Y633403D01*
X738702Y633284D01*
X738710Y633280D01*
X738717Y633275D01*
X739013Y633123D01*
X742787Y631560D01*
X745860Y628487D01*
X747523Y624473D01*
X747523Y620127D01*
X745860Y616113D01*
X742787Y613040D01*
X739013Y611477D01*
X739005Y611472D01*
X738996Y611470D01*
X738827Y611377D01*
X738658Y611286D01*
X738651Y611281D01*
X738643Y611276D01*
X738495Y611152D01*
X738347Y611030D01*
X738342Y611023D01*
X738335Y611017D01*
X738215Y610867D01*
X738094Y610717D01*
X738089Y610709D01*
X738084Y610702D01*
X737997Y610533D01*
X737906Y610361D01*
X737904Y610352D01*
X737900Y610344D01*
X737848Y610162D01*
X737793Y609974D01*
X737793Y609965D01*
X737790Y609957D01*
X737775Y609766D01*
X737759Y609573D01*
X737760Y609564D01*
X737759Y609556D01*
X737782Y609365D01*
X737804Y609173D01*
X737807Y609165D01*
X737808Y609156D01*
X737868Y608974D01*
X737927Y608790D01*
X737932Y608782D01*
X737934Y608774D01*
X738030Y608606D01*
X738123Y608438D01*
X738129Y608432D01*
X738134Y608424D01*
X738261Y608278D01*
X738385Y608133D01*
X738392Y608127D01*
X738398Y608120D01*
X738550Y608003D01*
X738702Y607884D01*
X738710Y607880D01*
X738717Y607875D01*
X739013Y607723D01*
X742787Y606160D01*
X745860Y603087D01*
X747523Y599073D01*
X747523Y594727D01*
X745860Y590713D01*
X742787Y587640D01*
X739013Y586077D01*
X739005Y586072D01*
X738996Y586070D01*
X738827Y585977D01*
X738658Y585886D01*
X738651Y585881D01*
X738643Y585876D01*
X738495Y585752D01*
X738347Y585630D01*
X738342Y585623D01*
X738335Y585617D01*
X738215Y585467D01*
X738094Y585317D01*
X738089Y585309D01*
X738084Y585302D01*
X737997Y585133D01*
X737906Y584961D01*
X737904Y584952D01*
X737900Y584944D01*
X737848Y584762D01*
X737793Y584574D01*
X737793Y584565D01*
X737790Y584557D01*
X737775Y584366D01*
X737759Y584173D01*
X737760Y584164D01*
X737759Y584156D01*
X737782Y583965D01*
X737804Y583773D01*
X737807Y583765D01*
X737808Y583756D01*
X737868Y583574D01*
X737927Y583390D01*
X737932Y583382D01*
X737934Y583374D01*
X738030Y583206D01*
X738123Y583038D01*
X738129Y583032D01*
X738134Y583024D01*
X738261Y582878D01*
X738385Y582733D01*
X738392Y582727D01*
X738398Y582720D01*
X738550Y582603D01*
X738702Y582484D01*
X738710Y582480D01*
X738717Y582475D01*
X739013Y582323D01*
X742787Y580760D01*
X745860Y577687D01*
X747523Y573673D01*
X747523Y569327D01*
X745860Y565313D01*
X742787Y562240D01*
X739013Y560677D01*
X739005Y560672D01*
X738996Y560670D01*
X738827Y560577D01*
X738658Y560486D01*
X738651Y560481D01*
X738643Y560476D01*
X738495Y560352D01*
X738347Y560230D01*
X738342Y560223D01*
X738335Y560217D01*
X738215Y560067D01*
X738094Y559917D01*
X738089Y559909D01*
X738084Y559902D01*
X737997Y559733D01*
X737906Y559561D01*
X737904Y559552D01*
X737900Y559544D01*
X737848Y559362D01*
X737793Y559174D01*
X737793Y559165D01*
X737790Y559157D01*
X737775Y558963D01*
X737759Y558773D01*
X737760Y558764D01*
X737759Y558756D01*
X737782Y558565D01*
X737804Y558373D01*
X737807Y558365D01*
X737808Y558356D01*
X737868Y558174D01*
X737927Y557990D01*
X737932Y557982D01*
X737934Y557974D01*
X738030Y557806D01*
X738123Y557638D01*
X738129Y557632D01*
X738134Y557624D01*
X738261Y557478D01*
X738385Y557333D01*
X738392Y557327D01*
X738398Y557320D01*
X738550Y557203D01*
X738702Y557084D01*
X738710Y557080D01*
X738717Y557075D01*
X739013Y556923D01*
X742787Y555360D01*
X745860Y552287D01*
X747523Y548273D01*
X747523Y543927D01*
X745860Y539913D01*
X742787Y536840D01*
X739013Y535277D01*
X739005Y535272D01*
X738996Y535270D01*
X738827Y535177D01*
X738658Y535086D01*
X738651Y535081D01*
X738643Y535076D01*
X738495Y534952D01*
X738347Y534830D01*
X738342Y534823D01*
X738335Y534817D01*
X738215Y534667D01*
X738094Y534517D01*
X738089Y534509D01*
X738084Y534502D01*
X737997Y534333D01*
X737906Y534161D01*
X737904Y534152D01*
X737900Y534144D01*
X737848Y533962D01*
X737793Y533774D01*
X737793Y533765D01*
X737790Y533757D01*
X737775Y533566D01*
X737759Y533373D01*
X737760Y533364D01*
X737759Y533356D01*
X737782Y533165D01*
X737804Y532973D01*
X737807Y532965D01*
X737808Y532956D01*
X737868Y532774D01*
X737927Y532590D01*
X737932Y532582D01*
X737934Y532574D01*
X738030Y532406D01*
X738123Y532238D01*
X738129Y532232D01*
X738134Y532224D01*
X738261Y532078D01*
X738385Y531933D01*
X738392Y531927D01*
X738398Y531920D01*
X738550Y531803D01*
X738702Y531684D01*
X738710Y531680D01*
X738717Y531675D01*
X739013Y531523D01*
X742787Y529960D01*
X745860Y526887D01*
X747523Y522873D01*
X747523Y518527D01*
X745860Y514513D01*
X742787Y511440D01*
X739013Y509877D01*
X739005Y509872D01*
X738996Y509870D01*
X738827Y509777D01*
X738658Y509686D01*
X738651Y509681D01*
X738643Y509676D01*
X738495Y509552D01*
X738347Y509430D01*
X738342Y509423D01*
X738335Y509417D01*
X738215Y509267D01*
X738094Y509117D01*
X738089Y509109D01*
X738084Y509102D01*
X737997Y508933D01*
X737906Y508761D01*
X737904Y508752D01*
X737900Y508744D01*
X737848Y508562D01*
X737793Y508374D01*
X737793Y508365D01*
X737790Y508357D01*
X737775Y508166D01*
X737759Y507973D01*
X737760Y507964D01*
X737759Y507956D01*
X737782Y507765D01*
X737804Y507573D01*
X737807Y507565D01*
X737808Y507556D01*
X737868Y507374D01*
X737927Y507190D01*
X737932Y507182D01*
X737934Y507174D01*
X738030Y507006D01*
X738123Y506838D01*
X738129Y506832D01*
X738134Y506824D01*
X738261Y506678D01*
X738385Y506533D01*
X738392Y506527D01*
X738398Y506520D01*
X738550Y506403D01*
X738702Y506284D01*
X738710Y506280D01*
X738717Y506275D01*
X739013Y506123D01*
X742787Y504560D01*
X745860Y501487D01*
X747523Y497473D01*
X747523Y493127D01*
X745860Y489113D01*
X742787Y486040D01*
X741414Y485471D01*
X738773Y484377D01*
X734427Y484377D01*
X730413Y486040D01*
X727340Y489113D01*
X725677Y493127D01*
X725677Y497473D01*
X727340Y501487D01*
X730413Y504560D01*
X734131Y506100D01*
X734187Y506123D01*
X734195Y506128D01*
X734204Y506130D01*
X734372Y506222D01*
X734542Y506314D01*
X734549Y506319D01*
X734557Y506324D01*
X734703Y506447D01*
X734853Y506570D01*
X734858Y506577D01*
X734865Y506583D01*
X734985Y506732D01*
X735106Y506883D01*
X735111Y506891D01*
X735116Y506897D01*
X735203Y507067D01*
X735293Y507239D01*
X735296Y507248D01*
X735300Y507256D01*
X735352Y507440D01*
X735407Y507626D01*
X735407Y507634D01*
X735410Y507643D01*
X735425Y507834D01*
X735441Y508027D01*
X735440Y508036D01*
X735441Y508044D01*
X735418Y508235D01*
X735396Y508427D01*
X735393Y508435D01*
X735392Y508444D01*
X735332Y508627D01*
X735273Y508810D01*
X735269Y508818D01*
X735266Y508826D01*
X735170Y508994D01*
X735077Y509162D01*
X735071Y509168D01*
X735066Y509176D01*
X734940Y509321D01*
X734815Y509467D01*
X734808Y509473D01*
X734802Y509480D01*
X734650Y509597D01*
X734498Y509716D01*
X734490Y509720D01*
X734483Y509725D01*
X734187Y509877D01*
X730413Y511440D01*
X727340Y514513D01*
X725677Y518527D01*
X725677Y522873D01*
X727340Y526887D01*
X730413Y529960D01*
X734187Y531523D01*
X734195Y531528D01*
X734204Y531530D01*
X734372Y531622D01*
X734542Y531714D01*
X734549Y531719D01*
X734557Y531724D01*
X734703Y531847D01*
X734853Y531970D01*
X734858Y531977D01*
X734865Y531983D01*
X734985Y532133D01*
X735106Y532283D01*
X735111Y532291D01*
X735116Y532297D01*
X735204Y532469D01*
X735293Y532639D01*
X735296Y532648D01*
X735300Y532656D01*
X735352Y532840D01*
X735407Y533026D01*
X735407Y533034D01*
X735410Y533043D01*
X735425Y533234D01*
X735441Y533427D01*
X735440Y533436D01*
X735441Y533444D01*
X735418Y533635D01*
X735396Y533827D01*
X735393Y533835D01*
X735392Y533844D01*
X735332Y534027D01*
X735273Y534210D01*
X735269Y534218D01*
X735266Y534226D01*
X735170Y534394D01*
X735077Y534562D01*
X735071Y534568D01*
X735066Y534576D01*
X734940Y534721D01*
X734815Y534867D01*
X734808Y534873D01*
X734802Y534880D01*
X734650Y534997D01*
X734498Y535116D01*
X734490Y535120D01*
X734483Y535125D01*
X734187Y535277D01*
X730413Y536840D01*
X727340Y539913D01*
X725677Y543927D01*
X725677Y548273D01*
X727340Y552287D01*
X730413Y555360D01*
X734187Y556923D01*
X734195Y556928D01*
X734204Y556930D01*
X734372Y557022D01*
X734542Y557114D01*
X734549Y557119D01*
X734557Y557124D01*
X734703Y557247D01*
X734853Y557370D01*
X734858Y557377D01*
X734865Y557383D01*
X734985Y557533D01*
X735106Y557683D01*
X735111Y557691D01*
X735116Y557697D01*
X735204Y557869D01*
X735293Y558039D01*
X735296Y558048D01*
X735300Y558056D01*
X735352Y558240D01*
X735407Y558426D01*
X735407Y558434D01*
X735410Y558443D01*
X735425Y558634D01*
X735441Y558827D01*
X735440Y558836D01*
X735441Y558844D01*
X735418Y559035D01*
X735396Y559227D01*
X735393Y559235D01*
X735392Y559244D01*
X735332Y559427D01*
X735273Y559610D01*
X735269Y559618D01*
X735266Y559626D01*
X735170Y559794D01*
X735077Y559962D01*
X735071Y559968D01*
X735066Y559976D01*
X734940Y560121D01*
X734815Y560267D01*
X734808Y560273D01*
X734802Y560280D01*
X734650Y560397D01*
X734498Y560516D01*
X734490Y560520D01*
X734483Y560525D01*
X734187Y560677D01*
X730413Y562240D01*
X727340Y565313D01*
X725677Y569327D01*
X725677Y573673D01*
X727340Y577687D01*
X730413Y580760D01*
X731611Y581256D01*
X734187Y582323D01*
X734195Y582328D01*
X734204Y582330D01*
X734372Y582422D01*
X734542Y582514D01*
X734549Y582519D01*
X734557Y582524D01*
X734703Y582647D01*
X734853Y582770D01*
X734858Y582777D01*
X734865Y582783D01*
X734985Y582933D01*
X735106Y583083D01*
X735111Y583091D01*
X735116Y583097D01*
X735204Y583269D01*
X735293Y583439D01*
X735296Y583448D01*
X735300Y583456D01*
X735352Y583640D01*
X735407Y583826D01*
X735407Y583834D01*
X735410Y583843D01*
X735424Y584033D01*
X735441Y584227D01*
X735440Y584236D01*
X735441Y584244D01*
X735418Y584435D01*
X735396Y584627D01*
X735393Y584635D01*
X735392Y584644D01*
X735332Y584827D01*
X735273Y585010D01*
X735269Y585018D01*
X735266Y585026D01*
X735170Y585194D01*
X735077Y585362D01*
X735071Y585368D01*
X735066Y585376D01*
X734940Y585521D01*
X734815Y585667D01*
X734808Y585673D01*
X734802Y585680D01*
X734650Y585797D01*
X734498Y585916D01*
X734490Y585920D01*
X734483Y585925D01*
X734187Y586077D01*
X730413Y587640D01*
X727340Y590713D01*
X725677Y594727D01*
X725677Y599073D01*
X727340Y603087D01*
X730413Y606160D01*
X734040Y607662D01*
X734187Y607723D01*
X734195Y607728D01*
X734204Y607730D01*
X734372Y607822D01*
X734542Y607914D01*
X734549Y607919D01*
X734557Y607924D01*
X734703Y608047D01*
X734853Y608170D01*
X734858Y608177D01*
X734865Y608183D01*
X734985Y608333D01*
X735106Y608483D01*
X735111Y608491D01*
X735116Y608497D01*
X735204Y608669D01*
X735293Y608839D01*
X735296Y608848D01*
X735300Y608856D01*
X735352Y609040D01*
X735407Y609226D01*
X735407Y609234D01*
X735410Y609243D01*
X735425Y609434D01*
X735441Y609627D01*
X735440Y609636D01*
X735441Y609644D01*
X735418Y609835D01*
X735396Y610027D01*
X735393Y610035D01*
X735392Y610044D01*
X735332Y610227D01*
X735273Y610410D01*
X735269Y610418D01*
X735266Y610426D01*
X735170Y610594D01*
X735077Y610762D01*
X735071Y610768D01*
X735066Y610776D01*
X734940Y610921D01*
X734815Y611067D01*
X734808Y611073D01*
X734802Y611080D01*
X734650Y611197D01*
X734498Y611316D01*
X734490Y611320D01*
X734483Y611325D01*
X734187Y611477D01*
X730413Y613040D01*
X727340Y616113D01*
X725677Y620127D01*
X725677Y624473D01*
X727340Y628487D01*
X730413Y631560D01*
X734187Y633123D01*
X734195Y633128D01*
X734204Y633130D01*
X734372Y633222D01*
X734542Y633314D01*
X734549Y633319D01*
X734557Y633324D01*
X734703Y633447D01*
X734853Y633570D01*
X734858Y633577D01*
X734865Y633583D01*
X734985Y633733D01*
X735106Y633883D01*
X735111Y633891D01*
X735116Y633897D01*
X735204Y634069D01*
X735293Y634239D01*
X735296Y634248D01*
X735300Y634256D01*
X735352Y634440D01*
X735407Y634626D01*
X735407Y634634D01*
X735410Y634643D01*
X735425Y634834D01*
X735441Y635027D01*
X735440Y635036D01*
X735441Y635044D01*
X735418Y635235D01*
X735396Y635427D01*
X735393Y635435D01*
X735392Y635444D01*
X735332Y635627D01*
X735273Y635810D01*
X735269Y635818D01*
X735266Y635826D01*
X735170Y635994D01*
X735077Y636162D01*
X735071Y636168D01*
X735066Y636176D01*
X734940Y636321D01*
X734815Y636467D01*
X734808Y636473D01*
X734802Y636480D01*
X734650Y636597D01*
X734498Y636716D01*
X734490Y636720D01*
X734483Y636725D01*
X734187Y636877D01*
X730413Y638440D01*
X727340Y641513D01*
X725677Y645527D01*
X725677Y649873D01*
X727340Y653887D01*
X730413Y656960D01*
X734187Y658523D01*
X734195Y658528D01*
X734204Y658530D01*
X734372Y658622D01*
X734542Y658714D01*
X734549Y658719D01*
X734557Y658724D01*
X734703Y658847D01*
X734853Y658970D01*
X734858Y658977D01*
X734865Y658983D01*
X734985Y659133D01*
X735106Y659283D01*
X735111Y659291D01*
X735116Y659297D01*
X735204Y659469D01*
X735293Y659639D01*
X735296Y659648D01*
X735300Y659656D01*
X735352Y659840D01*
X735407Y660026D01*
X735407Y660034D01*
X735410Y660043D01*
X735425Y660234D01*
X735441Y660427D01*
X735440Y660436D01*
X735441Y660444D01*
X735418Y660635D01*
X735396Y660827D01*
X735393Y660835D01*
X735392Y660844D01*
X735332Y661026D01*
X735273Y661210D01*
X735269Y661218D01*
X735266Y661226D01*
X735170Y661394D01*
X735077Y661562D01*
X735071Y661568D01*
X735066Y661576D01*
X734940Y661721D01*
X734815Y661867D01*
X734808Y661873D01*
X734802Y661880D01*
X734650Y661997D01*
X734498Y662116D01*
X734490Y662120D01*
X734483Y662125D01*
X734187Y662277D01*
X730413Y663840D01*
X727340Y666913D01*
X725677Y670927D01*
X725677Y675273D01*
X727340Y679287D01*
X730413Y682360D01*
X734187Y683923D01*
X734195Y683928D01*
X734204Y683930D01*
X734372Y684022D01*
X734542Y684114D01*
X734549Y684119D01*
X734557Y684124D01*
X734703Y684247D01*
X734853Y684370D01*
X734858Y684377D01*
X734865Y684383D01*
X734985Y684533D01*
X735106Y684683D01*
X735111Y684691D01*
X735116Y684697D01*
X735204Y684869D01*
X735293Y685039D01*
X735296Y685048D01*
X735300Y685056D01*
X735352Y685240D01*
X735407Y685426D01*
X735407Y685434D01*
X735410Y685443D01*
X735425Y685634D01*
X735441Y685827D01*
X735440Y685836D01*
X735441Y685844D01*
X735418Y686035D01*
X735396Y686227D01*
X735393Y686235D01*
X735392Y686244D01*
X735332Y686427D01*
X735273Y686610D01*
X735269Y686618D01*
X735266Y686626D01*
X735170Y686794D01*
X735077Y686962D01*
X735071Y686968D01*
X735066Y686976D01*
X734940Y687121D01*
X734815Y687267D01*
X734808Y687273D01*
X734802Y687280D01*
X734650Y687397D01*
X734498Y687516D01*
X734490Y687520D01*
X734483Y687525D01*
X734187Y687677D01*
X730413Y689240D01*
X727803Y691850D01*
X727757Y691888D01*
X727716Y691932D01*
X727601Y692015D01*
X727492Y692105D01*
X727439Y692133D01*
X727390Y692168D01*
X727261Y692227D01*
X727136Y692294D01*
X727078Y692311D01*
X727024Y692336D01*
X726886Y692368D01*
X726750Y692408D01*
X726690Y692414D01*
X726632Y692427D01*
X726490Y692432D01*
X726349Y692445D01*
X726289Y692438D01*
X726229Y692440D01*
X726090Y692417D01*
X725949Y692401D01*
X725891Y692383D01*
X725832Y692373D01*
X725700Y692323D01*
X725565Y692280D01*
X725512Y692251D01*
X725456Y692229D01*
X725284Y692125D01*
X725213Y692085D01*
X725196Y692071D01*
X725173Y692057D01*
X719601Y688009D01*
X719487Y687907D01*
X719368Y687811D01*
X719332Y687769D01*
X719300Y687741D01*
X719249Y687672D01*
X719151Y687559D01*
X715041Y681902D01*
X714964Y681770D01*
X714880Y681641D01*
X714859Y681591D01*
X714838Y681554D01*
X714810Y681473D01*
X714752Y681335D01*
X712591Y674684D01*
X712576Y674613D01*
X712551Y674544D01*
X712540Y674473D01*
X712525Y674422D01*
X712520Y674356D01*
X712505Y674291D01*
X712505Y674258D01*
X712498Y674216D01*
X712223Y670719D01*
X712224Y670653D01*
X712217Y670560D01*
X712217Y409096D01*
X712219Y409078D01*
X712217Y409060D01*
X712238Y408878D01*
X712257Y408695D01*
X712262Y408678D01*
X712264Y408661D01*
X712321Y408486D01*
X712375Y408310D01*
X712383Y408295D01*
X712389Y408278D01*
X712479Y408118D01*
X712567Y407956D01*
X712578Y407943D01*
X712587Y407927D01*
X712707Y407788D01*
X712824Y407647D01*
X712838Y407636D01*
X712850Y407622D01*
X712995Y407510D01*
X713138Y407395D01*
X713154Y407387D01*
X713168Y407376D01*
X713333Y407294D01*
X713495Y407209D01*
X713512Y407204D01*
X713528Y407196D01*
X713707Y407149D01*
X713882Y407098D01*
X713900Y407096D01*
X713917Y407092D01*
X714248Y407065D01*
X718292Y407065D01*
X719185Y406172D01*
X719185Y388908D01*
X718292Y388015D01*
X699028Y388015D01*
G37*
%LPD*%
%LPC*%
G36*
X856995Y610234D02*
X856995Y610234D01*
X844237Y613653D01*
X832797Y620257D01*
X823457Y629597D01*
X816853Y641037D01*
X813434Y653795D01*
X813434Y667005D01*
X816853Y679763D01*
X823457Y691203D01*
X832797Y700543D01*
X844237Y707147D01*
X856995Y710566D01*
X870205Y710566D01*
X882963Y707147D01*
X894403Y700543D01*
X903743Y691203D01*
X910347Y679763D01*
X913766Y667005D01*
X913766Y653795D01*
X910347Y641037D01*
X903743Y629597D01*
X894403Y620257D01*
X882963Y613653D01*
X870205Y610234D01*
X856995Y610234D01*
G37*
%LPD*%
%LPC*%
G36*
X450595Y610234D02*
X450595Y610234D01*
X437837Y613653D01*
X426397Y620257D01*
X417057Y629597D01*
X410453Y641037D01*
X407034Y653795D01*
X407034Y667005D01*
X410453Y679763D01*
X417057Y691203D01*
X426397Y700543D01*
X437837Y707147D01*
X450595Y710566D01*
X463805Y710566D01*
X476563Y707147D01*
X488003Y700543D01*
X497343Y691203D01*
X503947Y679763D01*
X507366Y667005D01*
X507366Y653795D01*
X503947Y641037D01*
X497343Y629597D01*
X488003Y620257D01*
X476563Y613653D01*
X463805Y610234D01*
X450595Y610234D01*
G37*
%LPD*%
%LPC*%
G36*
X856995Y229234D02*
X856995Y229234D01*
X844237Y232653D01*
X832797Y239257D01*
X823457Y248597D01*
X816853Y260037D01*
X813434Y272795D01*
X813434Y286005D01*
X816853Y298763D01*
X823457Y310203D01*
X832797Y319543D01*
X844237Y326147D01*
X856995Y329566D01*
X870205Y329566D01*
X882963Y326147D01*
X894403Y319543D01*
X903743Y310203D01*
X910347Y298763D01*
X913766Y286005D01*
X913766Y272795D01*
X910347Y260037D01*
X903743Y248597D01*
X894403Y239257D01*
X882963Y232653D01*
X870205Y229234D01*
X856995Y229234D01*
G37*
%LPD*%
%LPC*%
G36*
X450595Y229234D02*
X450595Y229234D01*
X437837Y232653D01*
X426397Y239257D01*
X417057Y248597D01*
X410453Y260037D01*
X407034Y272795D01*
X407034Y286005D01*
X410453Y298763D01*
X417057Y310203D01*
X426397Y319543D01*
X437837Y326147D01*
X450595Y329566D01*
X463805Y329566D01*
X476563Y326147D01*
X488003Y319543D01*
X497343Y310203D01*
X503947Y298763D01*
X507366Y286005D01*
X507366Y272795D01*
X503947Y260037D01*
X497343Y248597D01*
X488003Y239257D01*
X476563Y232653D01*
X463805Y229234D01*
X450595Y229234D01*
G37*
%LPD*%
%LPC*%
G36*
X777768Y388015D02*
X777768Y388015D01*
X776875Y388908D01*
X776875Y406172D01*
X777768Y407065D01*
X781812Y407065D01*
X781830Y407067D01*
X781848Y407065D01*
X782030Y407086D01*
X782213Y407105D01*
X782230Y407110D01*
X782247Y407112D01*
X782422Y407169D01*
X782598Y407223D01*
X782613Y407231D01*
X782630Y407237D01*
X782790Y407327D01*
X782952Y407415D01*
X782965Y407426D01*
X782981Y407435D01*
X783120Y407555D01*
X783261Y407672D01*
X783272Y407686D01*
X783286Y407698D01*
X783398Y407843D01*
X783513Y407986D01*
X783521Y408002D01*
X783532Y408016D01*
X783614Y408181D01*
X783699Y408343D01*
X783704Y408360D01*
X783712Y408376D01*
X783759Y408555D01*
X783810Y408730D01*
X783812Y408748D01*
X783816Y408765D01*
X783843Y409096D01*
X783843Y731520D01*
X783838Y731569D01*
X783840Y731634D01*
X783460Y738402D01*
X783459Y738407D01*
X783459Y738412D01*
X783412Y738740D01*
X780400Y751938D01*
X780380Y751997D01*
X780369Y752058D01*
X780299Y752240D01*
X780272Y752320D01*
X780260Y752340D01*
X780250Y752367D01*
X774376Y764564D01*
X774344Y764617D01*
X774319Y764673D01*
X774248Y764780D01*
X774207Y764851D01*
X774185Y764878D01*
X774167Y764907D01*
X774151Y764925D01*
X774134Y764949D01*
X765694Y775532D01*
X765651Y775577D01*
X765614Y775627D01*
X765471Y775761D01*
X765413Y775821D01*
X765394Y775834D01*
X765373Y775854D01*
X754789Y784294D01*
X754737Y784328D01*
X754690Y784368D01*
X754521Y784468D01*
X754451Y784513D01*
X754429Y784521D01*
X754404Y784536D01*
X742207Y790410D01*
X742149Y790431D01*
X742094Y790460D01*
X741907Y790519D01*
X741829Y790548D01*
X741806Y790551D01*
X741778Y790560D01*
X728580Y793572D01*
X728576Y793573D01*
X728571Y793574D01*
X728242Y793620D01*
X721474Y794000D01*
X721425Y793998D01*
X721360Y794003D01*
X607060Y794003D01*
X606994Y793997D01*
X606901Y793997D01*
X604199Y793784D01*
X604126Y793771D01*
X604053Y793768D01*
X603888Y793729D01*
X603802Y793713D01*
X603772Y793701D01*
X603730Y793691D01*
X598591Y792021D01*
X598451Y791960D01*
X598308Y791905D01*
X598261Y791877D01*
X598222Y791860D01*
X598152Y791810D01*
X598025Y791733D01*
X593653Y788556D01*
X593539Y788455D01*
X593420Y788359D01*
X593384Y788317D01*
X593352Y788289D01*
X593301Y788220D01*
X593204Y788107D01*
X591293Y785477D01*
X591263Y785426D01*
X591225Y785378D01*
X591161Y785252D01*
X591090Y785130D01*
X591070Y785073D01*
X591043Y785020D01*
X591005Y784883D01*
X590959Y784749D01*
X590951Y784689D01*
X590935Y784632D01*
X590925Y784490D01*
X590906Y784350D01*
X590910Y784290D01*
X590906Y784230D01*
X590923Y784089D01*
X590933Y783948D01*
X590949Y783890D01*
X590956Y783831D01*
X591001Y783696D01*
X591038Y783560D01*
X591065Y783506D01*
X591084Y783449D01*
X591155Y783326D01*
X591218Y783200D01*
X591255Y783152D01*
X591285Y783100D01*
X591416Y782946D01*
X591466Y782882D01*
X591482Y782868D01*
X591500Y782847D01*
X593460Y780887D01*
X595123Y776873D01*
X595123Y772527D01*
X593460Y768513D01*
X590387Y765440D01*
X586613Y763877D01*
X586605Y763872D01*
X586596Y763870D01*
X586428Y763778D01*
X586258Y763686D01*
X586251Y763681D01*
X586243Y763676D01*
X586097Y763553D01*
X585947Y763430D01*
X585942Y763423D01*
X585935Y763417D01*
X585815Y763267D01*
X585694Y763117D01*
X585689Y763109D01*
X585684Y763103D01*
X585596Y762931D01*
X585507Y762761D01*
X585504Y762752D01*
X585500Y762744D01*
X585447Y762559D01*
X585393Y762374D01*
X585393Y762366D01*
X585390Y762357D01*
X585375Y762166D01*
X585359Y761973D01*
X585360Y761964D01*
X585359Y761956D01*
X585383Y761763D01*
X585404Y761573D01*
X585407Y761565D01*
X585408Y761556D01*
X585469Y761371D01*
X585527Y761190D01*
X585531Y761182D01*
X585534Y761174D01*
X585630Y761006D01*
X585724Y760838D01*
X585729Y760832D01*
X585734Y760824D01*
X585860Y760679D01*
X585985Y760533D01*
X585992Y760527D01*
X585998Y760520D01*
X586151Y760403D01*
X586302Y760284D01*
X586310Y760280D01*
X586317Y760275D01*
X586613Y760123D01*
X590387Y758560D01*
X593460Y755487D01*
X595123Y751473D01*
X595123Y747127D01*
X593460Y743113D01*
X590387Y740040D01*
X586613Y738477D01*
X586605Y738472D01*
X586596Y738470D01*
X586428Y738378D01*
X586258Y738286D01*
X586251Y738281D01*
X586243Y738276D01*
X586097Y738153D01*
X585947Y738030D01*
X585942Y738023D01*
X585935Y738017D01*
X585815Y737867D01*
X585694Y737717D01*
X585689Y737709D01*
X585684Y737703D01*
X585596Y737530D01*
X585507Y737361D01*
X585504Y737352D01*
X585500Y737344D01*
X585447Y737159D01*
X585393Y736974D01*
X585393Y736966D01*
X585390Y736957D01*
X585375Y736766D01*
X585359Y736573D01*
X585360Y736564D01*
X585359Y736556D01*
X585383Y736363D01*
X585404Y736173D01*
X585407Y736165D01*
X585408Y736156D01*
X585469Y735971D01*
X585527Y735790D01*
X585531Y735782D01*
X585534Y735774D01*
X585630Y735606D01*
X585724Y735438D01*
X585729Y735432D01*
X585734Y735424D01*
X585860Y735279D01*
X585985Y735133D01*
X585992Y735127D01*
X585998Y735120D01*
X586151Y735003D01*
X586302Y734884D01*
X586310Y734880D01*
X586317Y734875D01*
X586613Y734723D01*
X590387Y733160D01*
X593460Y730087D01*
X595123Y726073D01*
X595123Y721727D01*
X593460Y717713D01*
X590387Y714640D01*
X587901Y713610D01*
X587823Y713568D01*
X587741Y713535D01*
X587646Y713474D01*
X587546Y713420D01*
X587478Y713364D01*
X587404Y713315D01*
X587323Y713236D01*
X587236Y713164D01*
X587180Y713095D01*
X587117Y713033D01*
X587053Y712939D01*
X586982Y712851D01*
X586941Y712773D01*
X586891Y712699D01*
X586848Y712595D01*
X586795Y712495D01*
X586770Y712409D01*
X586736Y712328D01*
X586714Y712217D01*
X586682Y712108D01*
X586674Y712020D01*
X586657Y711933D01*
X586657Y711820D01*
X586647Y711707D01*
X586657Y711619D01*
X586657Y711530D01*
X586680Y711419D01*
X586693Y711307D01*
X586720Y711223D01*
X586737Y711136D01*
X586781Y711031D01*
X586816Y710924D01*
X586859Y710846D01*
X586893Y710764D01*
X586957Y710671D01*
X587012Y710572D01*
X587070Y710505D01*
X587120Y710431D01*
X587200Y710352D01*
X587274Y710266D01*
X587344Y710212D01*
X587407Y710150D01*
X587502Y710088D01*
X587591Y710018D01*
X587670Y709978D01*
X587745Y709930D01*
X587875Y709875D01*
X587951Y709837D01*
X587995Y709825D01*
X588051Y709802D01*
X588783Y709564D01*
X590457Y708711D01*
X591978Y707606D01*
X593306Y706278D01*
X594411Y704757D01*
X595264Y703083D01*
X595845Y701296D01*
X595885Y701039D01*
X584708Y701039D01*
X584690Y701037D01*
X584673Y701039D01*
X584490Y701018D01*
X584308Y700999D01*
X584291Y700994D01*
X584273Y700992D01*
X584195Y700967D01*
X584058Y701006D01*
X584040Y701008D01*
X584023Y701012D01*
X583692Y701039D01*
X572515Y701039D01*
X572555Y701296D01*
X573136Y703083D01*
X573989Y704757D01*
X575094Y706278D01*
X576422Y707606D01*
X577943Y708711D01*
X579617Y709564D01*
X580349Y709802D01*
X580431Y709838D01*
X580515Y709864D01*
X580614Y709918D01*
X580718Y709964D01*
X580791Y710015D01*
X580868Y710057D01*
X580955Y710130D01*
X581047Y710195D01*
X581109Y710259D01*
X581177Y710316D01*
X581247Y710405D01*
X581325Y710487D01*
X581372Y710562D01*
X581428Y710631D01*
X581479Y710732D01*
X581539Y710827D01*
X581571Y710910D01*
X581611Y710989D01*
X581642Y711098D01*
X581682Y711204D01*
X581697Y711292D01*
X581721Y711377D01*
X581730Y711489D01*
X581748Y711601D01*
X581745Y711690D01*
X581752Y711778D01*
X581739Y711890D01*
X581735Y712003D01*
X581714Y712090D01*
X581704Y712178D01*
X581668Y712285D01*
X581642Y712395D01*
X581605Y712476D01*
X581577Y712560D01*
X581521Y712658D01*
X581474Y712761D01*
X581422Y712833D01*
X581378Y712910D01*
X581303Y712995D01*
X581237Y713086D01*
X581172Y713146D01*
X581113Y713213D01*
X581024Y713282D01*
X580940Y713359D01*
X580864Y713405D01*
X580794Y713459D01*
X580668Y713523D01*
X580596Y713567D01*
X580553Y713583D01*
X580499Y713610D01*
X578013Y714640D01*
X574940Y717713D01*
X573277Y721727D01*
X573277Y726073D01*
X574940Y730087D01*
X578013Y733160D01*
X581787Y734723D01*
X581795Y734728D01*
X581804Y734730D01*
X581973Y734823D01*
X582142Y734914D01*
X582149Y734919D01*
X582157Y734924D01*
X582305Y735048D01*
X582453Y735170D01*
X582458Y735177D01*
X582465Y735183D01*
X582585Y735334D01*
X582706Y735483D01*
X582711Y735490D01*
X582716Y735498D01*
X582803Y735668D01*
X582893Y735839D01*
X582896Y735848D01*
X582900Y735856D01*
X582952Y736038D01*
X583007Y736226D01*
X583007Y736235D01*
X583010Y736243D01*
X583025Y736434D01*
X583041Y736627D01*
X583040Y736636D01*
X583041Y736644D01*
X583018Y736835D01*
X582996Y737027D01*
X582993Y737035D01*
X582992Y737044D01*
X582932Y737225D01*
X582873Y737410D01*
X582868Y737418D01*
X582866Y737426D01*
X582772Y737591D01*
X582676Y737762D01*
X582671Y737768D01*
X582666Y737776D01*
X582539Y737922D01*
X582415Y738067D01*
X582408Y738073D01*
X582402Y738080D01*
X582249Y738197D01*
X582098Y738316D01*
X582090Y738320D01*
X582083Y738325D01*
X581787Y738477D01*
X578013Y740040D01*
X574940Y743113D01*
X573277Y747127D01*
X573277Y751473D01*
X574940Y755487D01*
X578013Y758560D01*
X581787Y760123D01*
X581795Y760128D01*
X581804Y760130D01*
X581972Y760222D01*
X582142Y760314D01*
X582149Y760319D01*
X582157Y760324D01*
X582305Y760448D01*
X582453Y760570D01*
X582458Y760577D01*
X582465Y760583D01*
X582585Y760734D01*
X582706Y760883D01*
X582711Y760890D01*
X582716Y760898D01*
X582803Y761066D01*
X582893Y761239D01*
X582896Y761248D01*
X582900Y761256D01*
X582952Y761438D01*
X583007Y761626D01*
X583007Y761635D01*
X583010Y761643D01*
X583025Y761834D01*
X583041Y762027D01*
X583040Y762036D01*
X583041Y762044D01*
X583018Y762235D01*
X582996Y762427D01*
X582993Y762435D01*
X582992Y762444D01*
X582932Y762625D01*
X582873Y762810D01*
X582868Y762818D01*
X582866Y762826D01*
X582771Y762992D01*
X582676Y763162D01*
X582671Y763168D01*
X582666Y763176D01*
X582539Y763322D01*
X582415Y763467D01*
X582408Y763473D01*
X582402Y763480D01*
X582249Y763597D01*
X582098Y763716D01*
X582090Y763720D01*
X582083Y763725D01*
X581787Y763877D01*
X578013Y765440D01*
X574940Y768513D01*
X573277Y772527D01*
X573277Y776873D01*
X574940Y780887D01*
X578013Y783960D01*
X579030Y784381D01*
X582093Y785650D01*
X582187Y785700D01*
X582285Y785742D01*
X582364Y785795D01*
X582448Y785840D01*
X582530Y785908D01*
X582618Y785968D01*
X582685Y786036D01*
X582758Y786097D01*
X582825Y786179D01*
X582900Y786255D01*
X582952Y786335D01*
X583012Y786409D01*
X583061Y786503D01*
X583120Y786593D01*
X583164Y786698D01*
X583199Y786766D01*
X583216Y786823D01*
X583217Y786826D01*
X588148Y793612D01*
X594917Y798531D01*
X602876Y801117D01*
X729202Y801117D01*
X744492Y797627D01*
X758622Y790822D01*
X770884Y781044D01*
X780662Y768782D01*
X787467Y754652D01*
X790957Y739362D01*
X790957Y409096D01*
X790959Y409078D01*
X790957Y409060D01*
X790978Y408878D01*
X790997Y408695D01*
X791002Y408678D01*
X791004Y408661D01*
X791061Y408486D01*
X791115Y408310D01*
X791123Y408295D01*
X791129Y408278D01*
X791219Y408118D01*
X791307Y407956D01*
X791318Y407943D01*
X791327Y407927D01*
X791447Y407788D01*
X791564Y407647D01*
X791578Y407636D01*
X791590Y407622D01*
X791735Y407510D01*
X791878Y407395D01*
X791894Y407387D01*
X791908Y407376D01*
X792073Y407294D01*
X792235Y407209D01*
X792252Y407204D01*
X792268Y407196D01*
X792447Y407149D01*
X792622Y407098D01*
X792640Y407096D01*
X792657Y407092D01*
X792988Y407065D01*
X797032Y407065D01*
X797925Y406172D01*
X797925Y388908D01*
X797032Y388015D01*
X777768Y388015D01*
G37*
%LPD*%
%LPC*%
G36*
X685951Y194563D02*
X685951Y194563D01*
X670005Y197735D01*
X654984Y203957D01*
X641466Y212990D01*
X629970Y224486D01*
X620937Y238004D01*
X614715Y253025D01*
X612713Y263089D01*
X612706Y263113D01*
X612703Y263137D01*
X612648Y263305D01*
X612596Y263475D01*
X612584Y263496D01*
X612577Y263519D01*
X612489Y263673D01*
X612405Y263829D01*
X612389Y263848D01*
X612377Y263869D01*
X612261Y264003D01*
X612148Y264139D01*
X612129Y264154D01*
X612113Y264173D01*
X611972Y264281D01*
X611835Y264392D01*
X611813Y264403D01*
X611793Y264418D01*
X611498Y264570D01*
X607762Y266117D01*
X604117Y269762D01*
X602145Y274523D01*
X602145Y279677D01*
X604117Y284438D01*
X607762Y288083D01*
X612523Y290055D01*
X617677Y290055D01*
X622438Y288083D01*
X626083Y284438D01*
X628055Y279677D01*
X628055Y274523D01*
X626083Y269762D01*
X622438Y266117D01*
X622387Y266096D01*
X621471Y265717D01*
X621453Y265707D01*
X621434Y265701D01*
X621275Y265612D01*
X621116Y265527D01*
X621100Y265514D01*
X621083Y265504D01*
X620944Y265385D01*
X620805Y265270D01*
X620793Y265255D01*
X620778Y265241D01*
X620666Y265098D01*
X620552Y264957D01*
X620542Y264940D01*
X620530Y264924D01*
X620449Y264761D01*
X620365Y264601D01*
X620359Y264582D01*
X620350Y264564D01*
X620303Y264389D01*
X620252Y264215D01*
X620250Y264194D01*
X620245Y264175D01*
X620233Y263994D01*
X620217Y263813D01*
X620219Y263794D01*
X620218Y263773D01*
X620256Y263444D01*
X621856Y255399D01*
X621866Y255367D01*
X621870Y255334D01*
X621972Y255018D01*
X621973Y255014D01*
X627477Y241726D01*
X627493Y241697D01*
X627504Y241665D01*
X627665Y241375D01*
X635658Y229412D01*
X635680Y229386D01*
X635696Y229357D01*
X635911Y229104D01*
X646084Y218931D01*
X646110Y218910D01*
X646132Y218885D01*
X646392Y218678D01*
X658355Y210685D01*
X658384Y210669D01*
X658411Y210649D01*
X658706Y210497D01*
X671998Y204992D01*
X672030Y204982D01*
X672060Y204967D01*
X672379Y204876D01*
X672383Y204875D01*
X672384Y204875D01*
X686490Y202069D01*
X686562Y202062D01*
X686787Y202033D01*
X693980Y201679D01*
X694024Y201681D01*
X694080Y201677D01*
X726440Y201677D01*
X726489Y201682D01*
X726554Y201680D01*
X732754Y202028D01*
X732758Y202029D01*
X732763Y202029D01*
X733092Y202076D01*
X745180Y204835D01*
X745239Y204855D01*
X745300Y204866D01*
X745483Y204936D01*
X745562Y204963D01*
X745582Y204975D01*
X745610Y204985D01*
X756781Y210365D01*
X756834Y210397D01*
X756891Y210422D01*
X757054Y210531D01*
X757125Y210575D01*
X757142Y210591D01*
X757166Y210607D01*
X766860Y218338D01*
X766905Y218381D01*
X766955Y218418D01*
X767089Y218561D01*
X767149Y218619D01*
X767162Y218638D01*
X767182Y218660D01*
X774913Y228354D01*
X774947Y228406D01*
X774987Y228453D01*
X775086Y228622D01*
X775132Y228692D01*
X775140Y228714D01*
X775155Y228739D01*
X780535Y239910D01*
X780556Y239969D01*
X780585Y240023D01*
X780644Y240210D01*
X780673Y240289D01*
X780676Y240312D01*
X780685Y240340D01*
X783444Y252428D01*
X783445Y252433D01*
X783446Y252438D01*
X783492Y252766D01*
X783840Y258966D01*
X783838Y259015D01*
X783843Y259080D01*
X783843Y357984D01*
X783841Y358002D01*
X783843Y358020D01*
X783822Y358202D01*
X783803Y358385D01*
X783798Y358402D01*
X783796Y358419D01*
X783739Y358594D01*
X783685Y358770D01*
X783677Y358785D01*
X783671Y358802D01*
X783581Y358962D01*
X783493Y359124D01*
X783482Y359137D01*
X783473Y359153D01*
X783353Y359292D01*
X783236Y359433D01*
X783222Y359444D01*
X783210Y359458D01*
X783065Y359570D01*
X782922Y359685D01*
X782906Y359693D01*
X782892Y359704D01*
X782727Y359786D01*
X782565Y359871D01*
X782548Y359876D01*
X782532Y359884D01*
X782353Y359931D01*
X782178Y359982D01*
X782160Y359984D01*
X782143Y359988D01*
X781812Y360015D01*
X777768Y360015D01*
X776875Y360908D01*
X776875Y378172D01*
X777768Y379065D01*
X797032Y379065D01*
X797925Y378172D01*
X797925Y360908D01*
X797032Y360015D01*
X792988Y360015D01*
X792970Y360013D01*
X792952Y360015D01*
X792770Y359994D01*
X792587Y359975D01*
X792570Y359970D01*
X792553Y359968D01*
X792378Y359911D01*
X792202Y359857D01*
X792187Y359849D01*
X792170Y359843D01*
X792010Y359753D01*
X791848Y359665D01*
X791835Y359654D01*
X791819Y359645D01*
X791680Y359525D01*
X791539Y359408D01*
X791528Y359394D01*
X791514Y359382D01*
X791402Y359237D01*
X791287Y359094D01*
X791279Y359078D01*
X791268Y359064D01*
X791186Y358899D01*
X791101Y358737D01*
X791096Y358720D01*
X791088Y358704D01*
X791041Y358525D01*
X790990Y358350D01*
X790988Y358332D01*
X790984Y358315D01*
X790957Y357984D01*
X790957Y251811D01*
X787722Y237637D01*
X781414Y224538D01*
X772349Y213171D01*
X760982Y204106D01*
X747883Y197798D01*
X733709Y194563D01*
X685951Y194563D01*
G37*
%LPD*%
%LPC*%
G36*
X655848Y388015D02*
X655848Y388015D01*
X654588Y389275D01*
X654585Y389281D01*
X654465Y389420D01*
X654348Y389561D01*
X654334Y389572D01*
X654322Y389586D01*
X654177Y389698D01*
X654034Y389813D01*
X654018Y389821D01*
X654004Y389832D01*
X653839Y389914D01*
X653677Y389999D01*
X653660Y390004D01*
X653644Y390012D01*
X653465Y390059D01*
X653290Y390110D01*
X653272Y390112D01*
X653255Y390116D01*
X652924Y390143D01*
X400275Y390143D01*
X388334Y392869D01*
X377297Y398184D01*
X367721Y405821D01*
X360084Y415397D01*
X354769Y426434D01*
X353267Y433014D01*
X353206Y433197D01*
X353146Y433380D01*
X353142Y433388D01*
X353139Y433396D01*
X353043Y433563D01*
X352948Y433731D01*
X352942Y433737D01*
X352938Y433745D01*
X352811Y433889D01*
X352685Y434036D01*
X352678Y434041D01*
X352672Y434047D01*
X352518Y434165D01*
X352367Y434282D01*
X352359Y434286D01*
X352352Y434291D01*
X352178Y434376D01*
X352006Y434462D01*
X351998Y434464D01*
X351990Y434468D01*
X351805Y434516D01*
X351617Y434566D01*
X351608Y434567D01*
X351601Y434569D01*
X351550Y434572D01*
X351515Y434575D01*
X345693Y440397D01*
X345693Y448603D01*
X351497Y454407D01*
X359703Y454407D01*
X365507Y448603D01*
X365507Y440397D01*
X361141Y436031D01*
X361108Y435990D01*
X361068Y435954D01*
X360980Y435835D01*
X360886Y435720D01*
X360861Y435673D01*
X360830Y435630D01*
X360767Y435495D01*
X360698Y435364D01*
X360683Y435313D01*
X360660Y435265D01*
X360625Y435120D01*
X360583Y434978D01*
X360578Y434925D01*
X360566Y434874D01*
X360560Y434725D01*
X360546Y434577D01*
X360552Y434524D01*
X360550Y434471D01*
X360582Y434250D01*
X360590Y434177D01*
X360595Y434162D01*
X360597Y434143D01*
X361745Y429115D01*
X361765Y429057D01*
X361776Y428996D01*
X361846Y428813D01*
X361873Y428734D01*
X361885Y428713D01*
X361895Y428686D01*
X366288Y419564D01*
X366320Y419512D01*
X366345Y419455D01*
X366454Y419292D01*
X366498Y419221D01*
X366513Y419204D01*
X366530Y419179D01*
X372842Y411264D01*
X372885Y411219D01*
X372922Y411170D01*
X373044Y411055D01*
X373065Y411031D01*
X373083Y411016D01*
X373123Y410975D01*
X373142Y410962D01*
X373164Y410942D01*
X381079Y404630D01*
X381131Y404596D01*
X381178Y404556D01*
X381347Y404457D01*
X381417Y404411D01*
X381439Y404403D01*
X381464Y404388D01*
X390586Y399995D01*
X390644Y399974D01*
X390699Y399945D01*
X390886Y399886D01*
X390964Y399857D01*
X390988Y399854D01*
X391015Y399845D01*
X400886Y397592D01*
X400891Y397591D01*
X400895Y397590D01*
X401224Y397544D01*
X406286Y397260D01*
X406335Y397262D01*
X406400Y397257D01*
X652924Y397257D01*
X652942Y397259D01*
X652960Y397257D01*
X653142Y397278D01*
X653325Y397297D01*
X653342Y397302D01*
X653359Y397304D01*
X653534Y397361D01*
X653710Y397415D01*
X653725Y397423D01*
X653742Y397429D01*
X653902Y397519D01*
X654064Y397607D01*
X654077Y397618D01*
X654093Y397627D01*
X654232Y397747D01*
X654373Y397864D01*
X654384Y397878D01*
X654398Y397890D01*
X654510Y398035D01*
X654625Y398178D01*
X654633Y398194D01*
X654644Y398208D01*
X654726Y398373D01*
X654811Y398535D01*
X654816Y398552D01*
X654824Y398568D01*
X654871Y398747D01*
X654922Y398922D01*
X654924Y398940D01*
X654928Y398957D01*
X654955Y399288D01*
X654955Y406172D01*
X655848Y407065D01*
X675112Y407065D01*
X676005Y406172D01*
X676005Y388908D01*
X675112Y388015D01*
X655848Y388015D01*
G37*
%LPD*%
%LPC*%
G36*
X536519Y466343D02*
X536519Y466343D01*
X529610Y469205D01*
X525193Y473622D01*
X525172Y473639D01*
X525155Y473660D01*
X525017Y473767D01*
X524882Y473877D01*
X524858Y473890D01*
X524837Y473906D01*
X524680Y473984D01*
X524526Y474066D01*
X524500Y474074D01*
X524476Y474086D01*
X524307Y474131D01*
X524140Y474181D01*
X524113Y474183D01*
X524088Y474190D01*
X523757Y474217D01*
X522845Y474217D01*
X518831Y475880D01*
X515758Y478953D01*
X514095Y482967D01*
X514095Y487313D01*
X515758Y491327D01*
X518831Y494400D01*
X522845Y496063D01*
X527191Y496063D01*
X531205Y494400D01*
X534278Y491327D01*
X535941Y487313D01*
X535941Y482967D01*
X534278Y478953D01*
X533754Y478429D01*
X533745Y478419D01*
X533735Y478410D01*
X533618Y478263D01*
X533499Y478117D01*
X533493Y478105D01*
X533484Y478095D01*
X533399Y477929D01*
X533310Y477762D01*
X533306Y477749D01*
X533300Y477737D01*
X533250Y477557D01*
X533195Y477376D01*
X533194Y477362D01*
X533191Y477350D01*
X533176Y477164D01*
X533159Y476975D01*
X533161Y476961D01*
X533160Y476948D01*
X533182Y476763D01*
X533202Y476575D01*
X533207Y476562D01*
X533208Y476548D01*
X533267Y476370D01*
X533324Y476191D01*
X533330Y476179D01*
X533335Y476166D01*
X533428Y476002D01*
X533519Y475838D01*
X533527Y475828D01*
X533534Y475816D01*
X533659Y475673D01*
X533779Y475531D01*
X533790Y475523D01*
X533799Y475513D01*
X533948Y475398D01*
X534095Y475282D01*
X534107Y475276D01*
X534118Y475268D01*
X534413Y475116D01*
X537598Y473797D01*
X537725Y473758D01*
X537849Y473711D01*
X537927Y473697D01*
X537983Y473680D01*
X538060Y473673D01*
X538176Y473652D01*
X540059Y473467D01*
X540138Y473467D01*
X540258Y473457D01*
X610900Y473457D01*
X610966Y473463D01*
X611059Y473463D01*
X614353Y473722D01*
X614425Y473735D01*
X614498Y473739D01*
X614663Y473778D01*
X614749Y473793D01*
X614780Y473806D01*
X614821Y473815D01*
X621085Y475851D01*
X621225Y475912D01*
X621368Y475967D01*
X621415Y475995D01*
X621454Y476012D01*
X621524Y476062D01*
X621651Y476139D01*
X626980Y480011D01*
X627094Y480112D01*
X627213Y480208D01*
X627249Y480250D01*
X627281Y480278D01*
X627332Y480347D01*
X627429Y480460D01*
X629849Y483790D01*
X629875Y483834D01*
X629907Y483874D01*
X629976Y484007D01*
X630052Y484138D01*
X630069Y484186D01*
X630092Y484231D01*
X630134Y484376D01*
X630183Y484518D01*
X630189Y484569D01*
X630204Y484618D01*
X630216Y484768D01*
X630236Y484918D01*
X630232Y484969D01*
X630236Y485020D01*
X630219Y485169D01*
X630209Y485319D01*
X630195Y485369D01*
X630189Y485419D01*
X630143Y485563D01*
X630103Y485708D01*
X630080Y485754D01*
X630065Y485802D01*
X629991Y485933D01*
X629923Y486068D01*
X629892Y486108D01*
X629867Y486153D01*
X629768Y486267D01*
X629676Y486386D01*
X629637Y486419D01*
X629604Y486458D01*
X629485Y486550D01*
X629370Y486648D01*
X629326Y486673D01*
X629285Y486704D01*
X629151Y486771D01*
X629019Y486845D01*
X628971Y486861D01*
X628925Y486884D01*
X628780Y486923D01*
X628636Y486969D01*
X628586Y486975D01*
X628536Y486988D01*
X628305Y487007D01*
X628236Y487015D01*
X628223Y487014D01*
X628205Y487015D01*
X627908Y487015D01*
X627015Y487908D01*
X627015Y505172D01*
X627908Y506065D01*
X647172Y506065D01*
X648065Y505172D01*
X648065Y487908D01*
X647172Y487015D01*
X641032Y487015D01*
X640930Y487005D01*
X640828Y487005D01*
X640730Y486985D01*
X640631Y486975D01*
X640534Y486945D01*
X640433Y486925D01*
X640342Y486886D01*
X640246Y486857D01*
X640157Y486809D01*
X640062Y486769D01*
X639980Y486713D01*
X639892Y486665D01*
X639814Y486600D01*
X639729Y486543D01*
X639659Y486471D01*
X639583Y486408D01*
X639519Y486328D01*
X639447Y486255D01*
X639393Y486172D01*
X639331Y486094D01*
X639284Y486003D01*
X639228Y485918D01*
X639181Y485806D01*
X639145Y485737D01*
X639129Y485683D01*
X639100Y485612D01*
X638141Y482660D01*
X632519Y474922D01*
X624780Y469299D01*
X615683Y466343D01*
X536519Y466343D01*
G37*
%LPD*%
%LPC*%
G36*
X712523Y264245D02*
X712523Y264245D01*
X707762Y266217D01*
X704117Y269862D01*
X702145Y274623D01*
X702145Y279777D01*
X704117Y284538D01*
X707762Y288183D01*
X709146Y288756D01*
X709147Y288756D01*
X710289Y289229D01*
X710309Y289240D01*
X710330Y289247D01*
X710487Y289335D01*
X710644Y289420D01*
X710661Y289434D01*
X710681Y289445D01*
X710817Y289562D01*
X710955Y289676D01*
X710969Y289693D01*
X710986Y289708D01*
X711095Y289849D01*
X711208Y289989D01*
X711219Y290008D01*
X711232Y290026D01*
X711312Y290186D01*
X711395Y290345D01*
X711402Y290367D01*
X711412Y290387D01*
X711458Y290560D01*
X711508Y290732D01*
X711510Y290754D01*
X711516Y290775D01*
X711543Y291106D01*
X711543Y357984D01*
X711541Y358002D01*
X711543Y358020D01*
X711522Y358202D01*
X711503Y358385D01*
X711498Y358402D01*
X711496Y358419D01*
X711439Y358594D01*
X711385Y358770D01*
X711377Y358785D01*
X711371Y358802D01*
X711281Y358962D01*
X711193Y359124D01*
X711182Y359137D01*
X711173Y359153D01*
X711053Y359292D01*
X710936Y359433D01*
X710922Y359444D01*
X710910Y359458D01*
X710765Y359570D01*
X710622Y359685D01*
X710606Y359693D01*
X710592Y359704D01*
X710427Y359786D01*
X710265Y359871D01*
X710248Y359876D01*
X710232Y359884D01*
X710053Y359931D01*
X709878Y359982D01*
X709860Y359984D01*
X709843Y359988D01*
X709512Y360015D01*
X699028Y360015D01*
X698135Y360908D01*
X698135Y378172D01*
X699028Y379065D01*
X718292Y379065D01*
X719185Y378172D01*
X719185Y360899D01*
X719107Y360799D01*
X718997Y360664D01*
X718984Y360640D01*
X718968Y360619D01*
X718890Y360462D01*
X718808Y360308D01*
X718800Y360283D01*
X718788Y360259D01*
X718743Y360089D01*
X718693Y359922D01*
X718691Y359896D01*
X718684Y359870D01*
X718657Y359539D01*
X718657Y291106D01*
X718659Y291084D01*
X718657Y291062D01*
X718679Y290884D01*
X718697Y290705D01*
X718703Y290684D01*
X718706Y290662D01*
X718762Y290492D01*
X718815Y290321D01*
X718825Y290301D01*
X718832Y290280D01*
X718921Y290124D01*
X719007Y289967D01*
X719021Y289949D01*
X719032Y289930D01*
X719150Y289795D01*
X719264Y289657D01*
X719282Y289643D01*
X719296Y289626D01*
X719439Y289517D01*
X719578Y289405D01*
X719598Y289395D01*
X719615Y289381D01*
X719911Y289229D01*
X722438Y288183D01*
X726083Y284538D01*
X728055Y279777D01*
X728055Y274623D01*
X726083Y269862D01*
X722438Y266217D01*
X717677Y264245D01*
X712523Y264245D01*
G37*
%LPD*%
%LPC*%
G36*
X736458Y751806D02*
X736458Y751806D01*
X736440Y751808D01*
X736423Y751812D01*
X736092Y751839D01*
X724915Y751839D01*
X724955Y752096D01*
X725536Y753883D01*
X726389Y755557D01*
X727494Y757078D01*
X728822Y758406D01*
X730343Y759511D01*
X732017Y760364D01*
X732749Y760602D01*
X732831Y760638D01*
X732915Y760664D01*
X733014Y760718D01*
X733118Y760764D01*
X733191Y760815D01*
X733268Y760857D01*
X733355Y760930D01*
X733447Y760995D01*
X733509Y761059D01*
X733577Y761116D01*
X733647Y761205D01*
X733725Y761287D01*
X733772Y761362D01*
X733828Y761431D01*
X733879Y761532D01*
X733939Y761627D01*
X733971Y761710D01*
X734011Y761789D01*
X734042Y761898D01*
X734082Y762004D01*
X734097Y762091D01*
X734121Y762177D01*
X734130Y762289D01*
X734148Y762401D01*
X734145Y762490D01*
X734152Y762578D01*
X734139Y762690D01*
X734135Y762803D01*
X734114Y762890D01*
X734104Y762978D01*
X734068Y763085D01*
X734042Y763195D01*
X734005Y763276D01*
X733977Y763360D01*
X733921Y763458D01*
X733874Y763561D01*
X733822Y763633D01*
X733778Y763710D01*
X733704Y763795D01*
X733637Y763886D01*
X733571Y763946D01*
X733513Y764013D01*
X733424Y764082D01*
X733340Y764159D01*
X733264Y764205D01*
X733194Y764259D01*
X733068Y764323D01*
X732996Y764367D01*
X732953Y764383D01*
X732899Y764410D01*
X730413Y765440D01*
X727340Y768513D01*
X725677Y772527D01*
X725677Y776873D01*
X727340Y780887D01*
X730413Y783960D01*
X734427Y785623D01*
X738773Y785623D01*
X742787Y783960D01*
X745860Y780887D01*
X747523Y776873D01*
X747523Y772527D01*
X745860Y768513D01*
X742787Y765440D01*
X740301Y764410D01*
X740223Y764368D01*
X740140Y764335D01*
X740046Y764274D01*
X739946Y764220D01*
X739878Y764164D01*
X739804Y764115D01*
X739723Y764036D01*
X739636Y763964D01*
X739580Y763895D01*
X739517Y763833D01*
X739453Y763739D01*
X739382Y763651D01*
X739341Y763573D01*
X739291Y763499D01*
X739248Y763395D01*
X739195Y763295D01*
X739170Y763210D01*
X739136Y763128D01*
X739114Y763017D01*
X739082Y762908D01*
X739074Y762820D01*
X739057Y762733D01*
X739057Y762620D01*
X739047Y762507D01*
X739057Y762419D01*
X739057Y762330D01*
X739080Y762219D01*
X739093Y762107D01*
X739120Y762022D01*
X739137Y761936D01*
X739181Y761831D01*
X739216Y761724D01*
X739259Y761646D01*
X739293Y761564D01*
X739357Y761471D01*
X739412Y761372D01*
X739470Y761305D01*
X739520Y761231D01*
X739600Y761152D01*
X739674Y761066D01*
X739744Y761012D01*
X739807Y760950D01*
X739902Y760888D01*
X739991Y760818D01*
X740070Y760778D01*
X740145Y760730D01*
X740275Y760675D01*
X740351Y760637D01*
X740395Y760625D01*
X740451Y760602D01*
X741183Y760364D01*
X742857Y759511D01*
X744378Y758406D01*
X745706Y757078D01*
X746811Y755557D01*
X747664Y753883D01*
X748245Y752096D01*
X748285Y751839D01*
X737108Y751839D01*
X737090Y751837D01*
X737073Y751839D01*
X736890Y751818D01*
X736708Y751799D01*
X736691Y751794D01*
X736673Y751792D01*
X736595Y751767D01*
X736458Y751806D01*
G37*
%LPD*%
%LPC*%
G36*
X587123Y238945D02*
X587123Y238945D01*
X582362Y240917D01*
X578717Y244562D01*
X576745Y249323D01*
X576745Y254477D01*
X578717Y259238D01*
X582362Y262883D01*
X587123Y264855D01*
X592277Y264855D01*
X597038Y262883D01*
X600683Y259238D01*
X602655Y254477D01*
X602655Y249323D01*
X600683Y244562D01*
X597038Y240917D01*
X594075Y239690D01*
X592277Y238945D01*
X587123Y238945D01*
G37*
%LPD*%
%LPC*%
G36*
X737223Y238945D02*
X737223Y238945D01*
X732462Y240917D01*
X728817Y244562D01*
X726845Y249323D01*
X726845Y254477D01*
X728817Y259238D01*
X732462Y262883D01*
X737223Y264855D01*
X742377Y264855D01*
X747138Y262883D01*
X750783Y259238D01*
X752755Y254477D01*
X752755Y249323D01*
X750783Y244562D01*
X747138Y240917D01*
X744175Y239690D01*
X742377Y238945D01*
X737223Y238945D01*
G37*
%LPD*%
%LPC*%
G36*
X612523Y139123D02*
X612523Y139123D01*
X607762Y141095D01*
X604117Y144740D01*
X602145Y149501D01*
X602145Y154655D01*
X604117Y159416D01*
X607762Y163061D01*
X612082Y164850D01*
X612523Y165033D01*
X617677Y165033D01*
X622438Y163061D01*
X626083Y159416D01*
X628055Y154655D01*
X628055Y149501D01*
X626083Y144740D01*
X622438Y141095D01*
X620177Y140159D01*
X617677Y139123D01*
X612523Y139123D01*
G37*
%LPD*%
%LPC*%
G36*
X712599Y139123D02*
X712599Y139123D01*
X707838Y141095D01*
X704193Y144740D01*
X702221Y149501D01*
X702221Y154655D01*
X704193Y159416D01*
X707838Y163061D01*
X712158Y164850D01*
X712599Y165033D01*
X717753Y165033D01*
X722514Y163061D01*
X726159Y159416D01*
X728131Y154655D01*
X728131Y149501D01*
X726159Y144740D01*
X722514Y141095D01*
X720253Y140159D01*
X717753Y139123D01*
X712599Y139123D01*
G37*
%LPD*%
%LPC*%
G36*
X858887Y546099D02*
X858887Y546099D01*
X854873Y547762D01*
X851800Y550835D01*
X850137Y554849D01*
X850137Y559195D01*
X851800Y563209D01*
X854873Y566282D01*
X856697Y567037D01*
X858887Y567945D01*
X863233Y567945D01*
X867247Y566282D01*
X870320Y563209D01*
X871983Y559195D01*
X871983Y554849D01*
X870320Y550835D01*
X867247Y547762D01*
X863233Y546099D01*
X858887Y546099D01*
G37*
%LPD*%
%LPC*%
G36*
X376897Y459993D02*
X376897Y459993D01*
X371093Y465797D01*
X371093Y474003D01*
X376897Y479807D01*
X385103Y479807D01*
X390907Y474003D01*
X390907Y465797D01*
X385103Y459993D01*
X376897Y459993D01*
G37*
%LPD*%
%LPC*%
G36*
X459739Y586739D02*
X459739Y586739D01*
X459739Y596139D01*
X466933Y596139D01*
X467579Y595966D01*
X468158Y595631D01*
X468631Y595158D01*
X468966Y594579D01*
X469139Y593933D01*
X469139Y586739D01*
X459739Y586739D01*
G37*
%LPD*%
%LPC*%
G36*
X445261Y586739D02*
X445261Y586739D01*
X445261Y593933D01*
X445434Y594579D01*
X445769Y595158D01*
X446242Y595631D01*
X446821Y595966D01*
X447467Y596139D01*
X454661Y596139D01*
X454661Y586739D01*
X445261Y586739D01*
G37*
%LPD*%
%LPC*%
G36*
X668499Y255499D02*
X668499Y255499D01*
X668499Y265553D01*
X670363Y264947D01*
X672322Y263949D01*
X674101Y262656D01*
X675656Y261101D01*
X676949Y259322D01*
X677947Y257363D01*
X678553Y255499D01*
X668499Y255499D01*
G37*
%LPD*%
%LPC*%
G36*
X651447Y255499D02*
X651447Y255499D01*
X652053Y257363D01*
X653051Y259322D01*
X654344Y261101D01*
X655899Y262656D01*
X657678Y263949D01*
X659637Y264947D01*
X661501Y265553D01*
X661501Y255499D01*
X651447Y255499D01*
G37*
%LPD*%
%LPC*%
G36*
X668499Y248501D02*
X668499Y248501D01*
X678553Y248501D01*
X677947Y246637D01*
X676949Y244678D01*
X675656Y242899D01*
X674101Y241344D01*
X672322Y240051D01*
X670363Y239053D01*
X668499Y238447D01*
X668499Y248501D01*
G37*
%LPD*%
%LPC*%
G36*
X659637Y239053D02*
X659637Y239053D01*
X657678Y240051D01*
X655899Y241344D01*
X654344Y242899D01*
X653051Y244678D01*
X652053Y246637D01*
X651447Y248501D01*
X661501Y248501D01*
X661501Y238447D01*
X659637Y239053D01*
G37*
%LPD*%
%LPC*%
G36*
X498601Y487679D02*
X498601Y487679D01*
X498601Y496825D01*
X498858Y496785D01*
X500645Y496204D01*
X502319Y495351D01*
X503840Y494246D01*
X505168Y492918D01*
X506273Y491397D01*
X507126Y489723D01*
X507707Y487936D01*
X507747Y487679D01*
X498601Y487679D01*
G37*
%LPD*%
%LPC*%
G36*
X863599Y588517D02*
X863599Y588517D01*
X863599Y597663D01*
X863856Y597623D01*
X865643Y597042D01*
X867317Y596189D01*
X868838Y595084D01*
X870166Y593756D01*
X871271Y592235D01*
X872124Y590561D01*
X872705Y588774D01*
X872745Y588517D01*
X863599Y588517D01*
G37*
%LPD*%
%LPC*%
G36*
X484377Y487679D02*
X484377Y487679D01*
X484417Y487936D01*
X484998Y489723D01*
X485851Y491397D01*
X486956Y492918D01*
X488284Y494246D01*
X489805Y495351D01*
X491479Y496204D01*
X493266Y496785D01*
X493523Y496825D01*
X493523Y487679D01*
X484377Y487679D01*
G37*
%LPD*%
%LPC*%
G36*
X849375Y588517D02*
X849375Y588517D01*
X849415Y588774D01*
X849996Y590561D01*
X850849Y592235D01*
X851954Y593756D01*
X853282Y595084D01*
X854803Y596189D01*
X856477Y597042D01*
X858264Y597623D01*
X858521Y597663D01*
X858521Y588517D01*
X849375Y588517D01*
G37*
%LPD*%
%LPC*%
G36*
X498601Y482601D02*
X498601Y482601D01*
X507747Y482601D01*
X507707Y482344D01*
X507126Y480557D01*
X506273Y478883D01*
X505168Y477362D01*
X503840Y476034D01*
X502319Y474929D01*
X500645Y474076D01*
X498858Y473495D01*
X498601Y473455D01*
X498601Y482601D01*
G37*
%LPD*%
%LPC*%
G36*
X863599Y583439D02*
X863599Y583439D01*
X872745Y583439D01*
X872705Y583182D01*
X872124Y581395D01*
X871271Y579721D01*
X870166Y578200D01*
X868838Y576872D01*
X867317Y575767D01*
X865643Y574914D01*
X863856Y574333D01*
X863599Y574293D01*
X863599Y583439D01*
G37*
%LPD*%
%LPC*%
G36*
X858264Y574333D02*
X858264Y574333D01*
X856477Y574914D01*
X854803Y575767D01*
X853282Y576872D01*
X851954Y578200D01*
X850849Y579721D01*
X849996Y581395D01*
X849415Y583182D01*
X849375Y583439D01*
X858521Y583439D01*
X858521Y574293D01*
X858264Y574333D01*
G37*
%LPD*%
%LPC*%
G36*
X493266Y473495D02*
X493266Y473495D01*
X491479Y474076D01*
X489805Y474929D01*
X488284Y476034D01*
X486956Y477362D01*
X485851Y478883D01*
X484998Y480557D01*
X484417Y482344D01*
X484377Y482601D01*
X493523Y482601D01*
X493523Y473455D01*
X493266Y473495D01*
G37*
%LPD*%
%LPC*%
G36*
X669479Y373539D02*
X669479Y373539D01*
X669479Y380081D01*
X674815Y380081D01*
X675461Y379908D01*
X676040Y379573D01*
X676513Y379100D01*
X676848Y378521D01*
X677021Y377875D01*
X677021Y373539D01*
X669479Y373539D01*
G37*
%LPD*%
%LPC*%
G36*
X653939Y373539D02*
X653939Y373539D01*
X653939Y377875D01*
X654112Y378521D01*
X654447Y379100D01*
X654920Y379573D01*
X655499Y379908D01*
X656145Y380081D01*
X661481Y380081D01*
X661481Y373539D01*
X653939Y373539D01*
G37*
%LPD*%
%LPC*%
G36*
X669479Y358999D02*
X669479Y358999D01*
X669479Y365541D01*
X677021Y365541D01*
X677021Y361205D01*
X676848Y360559D01*
X676513Y359980D01*
X676040Y359507D01*
X675461Y359172D01*
X674815Y358999D01*
X669479Y358999D01*
G37*
%LPD*%
%LPC*%
G36*
X656145Y358999D02*
X656145Y358999D01*
X655499Y359172D01*
X654920Y359507D01*
X654447Y359980D01*
X654112Y360559D01*
X653939Y361205D01*
X653939Y365541D01*
X661481Y365541D01*
X661481Y358999D01*
X656145Y358999D01*
G37*
%LPD*%
D10*
X584200Y774700D03*
X584200Y749300D03*
X584200Y723900D03*
X584200Y698500D03*
X584200Y673100D03*
X584200Y647700D03*
X584200Y622300D03*
X584200Y596900D03*
X584200Y571500D03*
X584200Y546100D03*
X584200Y520700D03*
X584200Y495300D03*
X736600Y495300D03*
X736600Y520700D03*
X736600Y546100D03*
X736600Y571500D03*
X736600Y596900D03*
X736600Y622300D03*
X736600Y647700D03*
X736600Y673100D03*
X736600Y698500D03*
X736600Y723900D03*
X736600Y749300D03*
X736600Y774700D03*
D11*
X665000Y252000D03*
X739800Y251900D03*
X589700Y251900D03*
X615100Y277100D03*
X715100Y277200D03*
X615100Y152078D03*
X715176Y152078D03*
D12*
X355600Y444500D03*
X355600Y495300D03*
X381000Y469900D03*
D13*
X457200Y584200D03*
D10*
X457200Y558800D03*
X457200Y533400D03*
X457200Y508000D03*
X525018Y485140D03*
X496062Y485140D03*
X861060Y557022D03*
X861060Y585978D03*
D14*
X787400Y397540D03*
X787400Y369540D03*
X708660Y397540D03*
X708660Y369540D03*
X665480Y369540D03*
X665480Y397540D03*
X637540Y524540D03*
X637540Y496540D03*
D15*
X665480Y369540D02*
X665438Y369538D01*
X665397Y369533D01*
X665356Y369524D01*
X665316Y369511D01*
X665277Y369495D01*
X665240Y369476D01*
X665205Y369453D01*
X665171Y369428D01*
X665141Y369399D01*
X665112Y369369D01*
X665087Y369335D01*
X665064Y369300D01*
X665045Y369263D01*
X665029Y369224D01*
X665016Y369184D01*
X665007Y369143D01*
X665002Y369102D01*
X665000Y369060D01*
X665000Y252000D01*
X736600Y749300D02*
X746760Y749300D01*
X525780Y652780D02*
X525760Y651123D01*
X525700Y649467D01*
X525600Y647812D01*
X525460Y646161D01*
X525280Y644514D01*
X525060Y642871D01*
X524801Y641234D01*
X524502Y639604D01*
X524164Y637982D01*
X523787Y636368D01*
X523371Y634764D01*
X522916Y633170D01*
X522423Y631588D01*
X521892Y630018D01*
X521323Y628461D01*
X520717Y626919D01*
X520074Y625392D01*
X519393Y623880D01*
X518677Y622386D01*
X517925Y620909D01*
X517137Y619451D01*
X516314Y618013D01*
X515457Y616594D01*
X514565Y615197D01*
X513640Y613822D01*
X512682Y612470D01*
X511692Y611141D01*
X510670Y609836D01*
X509617Y608557D01*
X508533Y607303D01*
X507419Y606076D01*
X506276Y604876D01*
X505104Y603704D01*
X503904Y602561D01*
X502677Y601447D01*
X501423Y600363D01*
X500144Y599310D01*
X498839Y598288D01*
X497510Y597298D01*
X496158Y596340D01*
X494783Y595415D01*
X493386Y594523D01*
X491967Y593666D01*
X490529Y592843D01*
X489071Y592055D01*
X487594Y591303D01*
X486100Y590587D01*
X484588Y589906D01*
X483061Y589263D01*
X481519Y588657D01*
X479962Y588088D01*
X478392Y587557D01*
X476810Y587064D01*
X475216Y586609D01*
X473612Y586193D01*
X471998Y585816D01*
X470376Y585478D01*
X468746Y585179D01*
X467109Y584920D01*
X465466Y584700D01*
X463819Y584520D01*
X462168Y584380D01*
X460513Y584280D01*
X458857Y584220D01*
X457200Y584200D01*
X525780Y652780D02*
X525780Y655320D01*
X525793Y656363D01*
X525830Y657406D01*
X525893Y658448D01*
X525982Y659487D01*
X526095Y660525D01*
X526233Y661559D01*
X526396Y662590D01*
X526584Y663616D01*
X526797Y664638D01*
X527035Y665654D01*
X527297Y666664D01*
X527583Y667667D01*
X527893Y668663D01*
X528228Y669652D01*
X528586Y670632D01*
X528968Y671603D01*
X529373Y672565D01*
X529801Y673516D01*
X530252Y674457D01*
X530726Y675387D01*
X531222Y676305D01*
X531740Y677211D01*
X532280Y678104D01*
X532841Y678983D01*
X533424Y679849D01*
X534027Y680701D01*
X534650Y681537D01*
X535294Y682359D01*
X535957Y683164D01*
X536639Y683954D01*
X537341Y684726D01*
X538060Y685482D01*
X538798Y686220D01*
X539554Y686939D01*
X540326Y687641D01*
X541116Y688323D01*
X541921Y688986D01*
X542743Y689630D01*
X543579Y690253D01*
X544431Y690856D01*
X545297Y691439D01*
X546176Y692000D01*
X547069Y692540D01*
X547975Y693058D01*
X548893Y693554D01*
X549823Y694028D01*
X550764Y694479D01*
X551715Y694907D01*
X552677Y695312D01*
X553648Y695694D01*
X554628Y696052D01*
X555617Y696387D01*
X556613Y696697D01*
X557616Y696983D01*
X558626Y697245D01*
X559642Y697483D01*
X560664Y697696D01*
X561690Y697884D01*
X562721Y698047D01*
X563755Y698185D01*
X564793Y698298D01*
X565832Y698387D01*
X566874Y698450D01*
X567917Y698487D01*
X568960Y698500D01*
X584200Y698500D01*
X683260Y749300D02*
X736600Y749300D01*
X683260Y749300D02*
X682830Y749295D01*
X682401Y749279D01*
X681972Y749253D01*
X681544Y749217D01*
X681117Y749170D01*
X680691Y749113D01*
X680267Y749046D01*
X679844Y748969D01*
X679423Y748881D01*
X679005Y748783D01*
X678589Y748675D01*
X678176Y748558D01*
X677766Y748430D01*
X677359Y748292D01*
X676955Y748145D01*
X676555Y747987D01*
X676159Y747821D01*
X675767Y747644D01*
X675380Y747458D01*
X674997Y747263D01*
X674619Y747059D01*
X674246Y746846D01*
X673879Y746624D01*
X673516Y746392D01*
X673160Y746153D01*
X672809Y745904D01*
X672465Y745648D01*
X672126Y745383D01*
X671795Y745110D01*
X671470Y744829D01*
X671152Y744540D01*
X670840Y744243D01*
X670537Y743940D01*
X670240Y743628D01*
X669951Y743310D01*
X669670Y742985D01*
X669397Y742654D01*
X669132Y742315D01*
X668876Y741971D01*
X668627Y741620D01*
X668388Y741264D01*
X668156Y740901D01*
X667934Y740534D01*
X667721Y740161D01*
X667517Y739783D01*
X667322Y739400D01*
X667136Y739013D01*
X666959Y738621D01*
X666793Y738225D01*
X666635Y737825D01*
X666488Y737421D01*
X666350Y737014D01*
X666222Y736604D01*
X666105Y736191D01*
X665997Y735775D01*
X665899Y735357D01*
X665811Y734936D01*
X665734Y734513D01*
X665667Y734089D01*
X665610Y733663D01*
X665563Y733236D01*
X665527Y732808D01*
X665501Y732379D01*
X665485Y731950D01*
X665480Y731520D01*
X665470Y730722D01*
X665441Y729925D01*
X665393Y729128D01*
X665326Y728333D01*
X665239Y727540D01*
X665134Y726749D01*
X665009Y725961D01*
X664865Y725176D01*
X664702Y724395D01*
X664520Y723618D01*
X664320Y722845D01*
X664101Y722078D01*
X663864Y721316D01*
X663608Y720560D01*
X663334Y719811D01*
X663042Y719068D01*
X662732Y718333D01*
X662405Y717605D01*
X662060Y716886D01*
X661698Y716175D01*
X661318Y715473D01*
X660922Y714780D01*
X660509Y714097D01*
X660080Y713425D01*
X659635Y712763D01*
X659174Y712111D01*
X658697Y711471D01*
X658205Y710843D01*
X657698Y710227D01*
X657176Y709624D01*
X656640Y709033D01*
X656089Y708455D01*
X655525Y707891D01*
X654947Y707340D01*
X654356Y706804D01*
X653753Y706282D01*
X653137Y705775D01*
X652509Y705283D01*
X651869Y704806D01*
X651217Y704345D01*
X650555Y703900D01*
X649883Y703471D01*
X649200Y703058D01*
X648507Y702662D01*
X647805Y702282D01*
X647094Y701920D01*
X646375Y701575D01*
X645647Y701248D01*
X644912Y700938D01*
X644169Y700646D01*
X643420Y700372D01*
X642664Y700116D01*
X641902Y699879D01*
X641135Y699660D01*
X640362Y699460D01*
X639585Y699278D01*
X638804Y699115D01*
X638019Y698971D01*
X637231Y698846D01*
X636440Y698741D01*
X635647Y698654D01*
X634852Y698587D01*
X634055Y698539D01*
X633258Y698510D01*
X632460Y698500D01*
X584200Y698500D01*
X736600Y749300D02*
X737275Y749292D01*
X737950Y749267D01*
X738624Y749227D01*
X739297Y749170D01*
X739968Y749096D01*
X740637Y749007D01*
X741304Y748901D01*
X741968Y748779D01*
X742629Y748642D01*
X743286Y748488D01*
X743940Y748319D01*
X744589Y748133D01*
X745234Y747933D01*
X745874Y747716D01*
X746508Y747484D01*
X747136Y747237D01*
X747758Y746975D01*
X748374Y746698D01*
X748983Y746406D01*
X749584Y746100D01*
X750178Y745779D01*
X750764Y745443D01*
X751342Y745094D01*
X751911Y744731D01*
X752472Y744354D01*
X753023Y743964D01*
X753564Y743561D01*
X754096Y743144D01*
X754617Y742715D01*
X755128Y742273D01*
X755628Y741820D01*
X756116Y741354D01*
X756594Y740876D01*
X757060Y740388D01*
X757513Y739888D01*
X757955Y739377D01*
X758384Y738856D01*
X758801Y738324D01*
X759204Y737783D01*
X759594Y737232D01*
X759971Y736671D01*
X760334Y736102D01*
X760683Y735524D01*
X761019Y734938D01*
X761340Y734344D01*
X761646Y733743D01*
X761938Y733134D01*
X762215Y732518D01*
X762477Y731896D01*
X762724Y731268D01*
X762956Y730634D01*
X763173Y729994D01*
X763373Y729349D01*
X763559Y728700D01*
X763728Y728046D01*
X763882Y727389D01*
X764019Y726728D01*
X764141Y726064D01*
X764247Y725397D01*
X764336Y724728D01*
X764410Y724057D01*
X764467Y723384D01*
X764507Y722710D01*
X764532Y722035D01*
X764540Y721360D01*
X764540Y251460D02*
X764532Y250785D01*
X764507Y250110D01*
X764467Y249436D01*
X764410Y248763D01*
X764336Y248092D01*
X764247Y247423D01*
X764141Y246756D01*
X764019Y246092D01*
X763882Y245431D01*
X763728Y244774D01*
X763559Y244120D01*
X763373Y243471D01*
X763173Y242826D01*
X762956Y242186D01*
X762724Y241552D01*
X762477Y240924D01*
X762215Y240302D01*
X761938Y239686D01*
X761646Y239077D01*
X761340Y238476D01*
X761019Y237882D01*
X760683Y237296D01*
X760334Y236718D01*
X759971Y236149D01*
X759594Y235588D01*
X759204Y235037D01*
X758801Y234496D01*
X758384Y233964D01*
X757955Y233443D01*
X757513Y232932D01*
X757060Y232432D01*
X756594Y231944D01*
X756116Y231466D01*
X755628Y231000D01*
X755128Y230547D01*
X754617Y230105D01*
X754096Y229676D01*
X753564Y229259D01*
X753023Y228856D01*
X752472Y228466D01*
X751911Y228089D01*
X751342Y227726D01*
X750764Y227377D01*
X750178Y227041D01*
X749584Y226720D01*
X748983Y226414D01*
X748374Y226122D01*
X747758Y225845D01*
X747136Y225583D01*
X746508Y225336D01*
X745874Y225104D01*
X745234Y224887D01*
X744589Y224687D01*
X743940Y224501D01*
X743286Y224332D01*
X742629Y224178D01*
X741968Y224041D01*
X741304Y223919D01*
X740637Y223813D01*
X739968Y223724D01*
X739297Y223650D01*
X738624Y223593D01*
X737950Y223553D01*
X737275Y223528D01*
X736600Y223520D01*
X693480Y223520D01*
X692792Y223528D01*
X692104Y223553D01*
X691417Y223595D01*
X690731Y223653D01*
X690047Y223728D01*
X689365Y223819D01*
X688685Y223927D01*
X688008Y224051D01*
X687334Y224191D01*
X686664Y224348D01*
X685998Y224520D01*
X685336Y224709D01*
X684679Y224914D01*
X684027Y225134D01*
X683381Y225371D01*
X682740Y225623D01*
X682106Y225890D01*
X681478Y226172D01*
X680858Y226470D01*
X680245Y226782D01*
X679639Y227109D01*
X679042Y227451D01*
X678453Y227807D01*
X677873Y228177D01*
X677302Y228561D01*
X676740Y228959D01*
X676188Y229370D01*
X675646Y229795D01*
X675115Y230232D01*
X674594Y230682D01*
X674085Y231145D01*
X673586Y231620D01*
X673100Y232106D01*
X672625Y232605D01*
X672162Y233114D01*
X671712Y233635D01*
X671275Y234166D01*
X670850Y234708D01*
X670439Y235260D01*
X670041Y235822D01*
X669657Y236393D01*
X669287Y236973D01*
X668931Y237562D01*
X668589Y238159D01*
X668262Y238765D01*
X667950Y239378D01*
X667652Y239998D01*
X667370Y240626D01*
X667103Y241260D01*
X666851Y241901D01*
X666614Y242547D01*
X666394Y243199D01*
X666189Y243856D01*
X666000Y244518D01*
X665828Y245184D01*
X665671Y245854D01*
X665531Y246528D01*
X665407Y247205D01*
X665299Y247885D01*
X665208Y248567D01*
X665133Y249251D01*
X665075Y249937D01*
X665033Y250624D01*
X665008Y251312D01*
X665000Y252000D01*
X764540Y251460D02*
X764540Y721360D01*
X787400Y369540D02*
X787400Y259080D01*
X787382Y257607D01*
X787329Y256135D01*
X787240Y254664D01*
X787115Y253197D01*
X786956Y251732D01*
X786760Y250272D01*
X786530Y248817D01*
X786264Y247368D01*
X785964Y245926D01*
X785629Y244491D01*
X785259Y243065D01*
X784855Y241649D01*
X784416Y240242D01*
X783944Y238847D01*
X783439Y237463D01*
X782900Y236092D01*
X782328Y234735D01*
X781723Y233391D01*
X781086Y232063D01*
X780417Y230750D01*
X779717Y229454D01*
X778986Y228176D01*
X778224Y226915D01*
X777431Y225673D01*
X776609Y224451D01*
X775758Y223249D01*
X774877Y222067D01*
X773969Y220908D01*
X773033Y219770D01*
X772069Y218656D01*
X771079Y217565D01*
X770063Y216499D01*
X769021Y215457D01*
X767955Y214441D01*
X766864Y213451D01*
X765750Y212487D01*
X764612Y211551D01*
X763453Y210643D01*
X762271Y209762D01*
X761069Y208911D01*
X759847Y208089D01*
X758605Y207296D01*
X757344Y206534D01*
X756066Y205803D01*
X754770Y205103D01*
X753457Y204434D01*
X752129Y203797D01*
X750785Y203192D01*
X749428Y202620D01*
X748057Y202081D01*
X746673Y201576D01*
X745278Y201104D01*
X743871Y200665D01*
X742455Y200261D01*
X741029Y199891D01*
X739594Y199556D01*
X738152Y199256D01*
X736703Y198990D01*
X735248Y198760D01*
X733788Y198564D01*
X732323Y198405D01*
X730856Y198280D01*
X729385Y198191D01*
X727913Y198138D01*
X726440Y198120D01*
X694080Y198120D01*
X692172Y198143D01*
X690264Y198212D01*
X688359Y198327D01*
X686457Y198489D01*
X684560Y198696D01*
X682668Y198949D01*
X680783Y199247D01*
X678906Y199591D01*
X677037Y199981D01*
X675179Y200415D01*
X673331Y200894D01*
X671496Y201418D01*
X669674Y201986D01*
X667866Y202597D01*
X666073Y203252D01*
X664297Y203951D01*
X662538Y204692D01*
X660798Y205475D01*
X659077Y206300D01*
X657376Y207167D01*
X655697Y208074D01*
X654040Y209022D01*
X652407Y210009D01*
X650798Y211036D01*
X649214Y212101D01*
X647657Y213204D01*
X646126Y214344D01*
X644624Y215521D01*
X643150Y216734D01*
X641707Y217983D01*
X640293Y219265D01*
X638912Y220582D01*
X637562Y221932D01*
X636245Y223313D01*
X634963Y224727D01*
X633714Y226170D01*
X632501Y227644D01*
X631324Y229146D01*
X630184Y230677D01*
X629081Y232234D01*
X628016Y233818D01*
X626989Y235427D01*
X626002Y237060D01*
X625054Y238717D01*
X624147Y240396D01*
X623280Y242097D01*
X622455Y243818D01*
X621672Y245558D01*
X620931Y247317D01*
X620232Y249093D01*
X619577Y250886D01*
X618966Y252694D01*
X618398Y254516D01*
X617874Y256351D01*
X617395Y258199D01*
X616961Y260057D01*
X616571Y261926D01*
X616227Y263803D01*
X615929Y265688D01*
X615676Y267580D01*
X615469Y269477D01*
X615307Y271379D01*
X615192Y273284D01*
X615123Y275192D01*
X615100Y277100D01*
X708660Y369540D02*
X708818Y369538D01*
X708976Y369532D01*
X709134Y369523D01*
X709291Y369509D01*
X709448Y369492D01*
X709605Y369470D01*
X709761Y369445D01*
X709916Y369416D01*
X710071Y369384D01*
X710225Y369347D01*
X710378Y369307D01*
X710529Y369263D01*
X710680Y369215D01*
X710830Y369164D01*
X710978Y369108D01*
X711124Y369050D01*
X711270Y368988D01*
X711413Y368922D01*
X711555Y368852D01*
X711696Y368780D01*
X711834Y368703D01*
X711971Y368624D01*
X712105Y368541D01*
X712238Y368455D01*
X712368Y368365D01*
X712496Y368273D01*
X712622Y368177D01*
X712745Y368078D01*
X712866Y367976D01*
X712985Y367872D01*
X713101Y367764D01*
X713214Y367654D01*
X713324Y367541D01*
X713432Y367425D01*
X713536Y367306D01*
X713638Y367185D01*
X713737Y367062D01*
X713833Y366936D01*
X713925Y366808D01*
X714015Y366678D01*
X714101Y366545D01*
X714184Y366411D01*
X714263Y366274D01*
X714340Y366136D01*
X714412Y365995D01*
X714482Y365853D01*
X714548Y365710D01*
X714610Y365564D01*
X714668Y365418D01*
X714724Y365270D01*
X714775Y365120D01*
X714823Y364969D01*
X714867Y364818D01*
X714907Y364665D01*
X714944Y364511D01*
X714976Y364356D01*
X715005Y364201D01*
X715030Y364045D01*
X715052Y363888D01*
X715069Y363731D01*
X715083Y363574D01*
X715092Y363416D01*
X715098Y363258D01*
X715100Y363100D01*
X715100Y277200D01*
D16*
X457200Y508000D02*
X455930Y506730D01*
D15*
X708660Y670560D02*
X708668Y671235D01*
X708693Y671910D01*
X708733Y672584D01*
X708790Y673257D01*
X708864Y673928D01*
X708953Y674597D01*
X709059Y675264D01*
X709181Y675928D01*
X709318Y676589D01*
X709472Y677246D01*
X709641Y677900D01*
X709827Y678549D01*
X710027Y679194D01*
X710244Y679834D01*
X710476Y680468D01*
X710723Y681096D01*
X710985Y681718D01*
X711262Y682334D01*
X711554Y682943D01*
X711860Y683544D01*
X712181Y684138D01*
X712517Y684724D01*
X712866Y685302D01*
X713229Y685871D01*
X713606Y686432D01*
X713996Y686983D01*
X714399Y687524D01*
X714816Y688056D01*
X715245Y688577D01*
X715687Y689088D01*
X716140Y689588D01*
X716606Y690076D01*
X717084Y690554D01*
X717572Y691020D01*
X718072Y691473D01*
X718583Y691915D01*
X719104Y692344D01*
X719636Y692761D01*
X720177Y693164D01*
X720728Y693554D01*
X721289Y693931D01*
X721858Y694294D01*
X722436Y694643D01*
X723022Y694979D01*
X723616Y695300D01*
X724217Y695606D01*
X724826Y695898D01*
X725442Y696175D01*
X726064Y696437D01*
X726692Y696684D01*
X727326Y696916D01*
X727966Y697133D01*
X728611Y697333D01*
X729260Y697519D01*
X729914Y697688D01*
X730571Y697842D01*
X731232Y697979D01*
X731896Y698101D01*
X732563Y698207D01*
X733232Y698296D01*
X733903Y698370D01*
X734576Y698427D01*
X735250Y698467D01*
X735925Y698492D01*
X736600Y698500D01*
X708660Y670560D02*
X708660Y397540D01*
X708643Y398982D01*
X708590Y400422D01*
X708503Y401861D01*
X708381Y403298D01*
X708225Y404731D01*
X708034Y406160D01*
X707808Y407584D01*
X707549Y409002D01*
X707254Y410414D01*
X706926Y411818D01*
X706564Y413213D01*
X706169Y414600D01*
X705740Y415976D01*
X705278Y417342D01*
X704783Y418696D01*
X704256Y420037D01*
X703696Y421366D01*
X703104Y422681D01*
X702481Y423981D01*
X701826Y425265D01*
X701141Y426534D01*
X700425Y427785D01*
X699679Y429019D01*
X698904Y430234D01*
X698099Y431431D01*
X697266Y432607D01*
X696405Y433763D01*
X695515Y434898D01*
X694599Y436011D01*
X693656Y437102D01*
X692687Y438169D01*
X691693Y439213D01*
X690673Y440233D01*
X689629Y441227D01*
X688562Y442196D01*
X687471Y443139D01*
X686358Y444055D01*
X685223Y444945D01*
X684067Y445806D01*
X682891Y446639D01*
X681694Y447444D01*
X680479Y448219D01*
X679245Y448965D01*
X677994Y449681D01*
X676725Y450366D01*
X675441Y451021D01*
X674141Y451644D01*
X672826Y452236D01*
X671497Y452796D01*
X670156Y453323D01*
X668802Y453818D01*
X667436Y454280D01*
X666060Y454709D01*
X664673Y455104D01*
X663278Y455466D01*
X661874Y455794D01*
X660462Y456089D01*
X659044Y456348D01*
X657620Y456574D01*
X656191Y456765D01*
X654758Y456921D01*
X653321Y457043D01*
X651882Y457130D01*
X650442Y457183D01*
X649000Y457200D01*
X505460Y457200D02*
X504263Y457214D01*
X503067Y457258D01*
X501872Y457330D01*
X500680Y457431D01*
X499490Y457561D01*
X498303Y457720D01*
X497121Y457907D01*
X495944Y458123D01*
X494772Y458367D01*
X493607Y458639D01*
X492448Y458940D01*
X491297Y459268D01*
X490154Y459624D01*
X489021Y460008D01*
X487896Y460419D01*
X486782Y460857D01*
X485679Y461321D01*
X484588Y461813D01*
X483509Y462330D01*
X482442Y462873D01*
X481389Y463442D01*
X480350Y464037D01*
X479326Y464656D01*
X478317Y465300D01*
X477324Y465968D01*
X476347Y466659D01*
X475387Y467375D01*
X474445Y468113D01*
X473521Y468873D01*
X472616Y469656D01*
X471729Y470461D01*
X470863Y471286D01*
X470016Y472133D01*
X469191Y472999D01*
X468386Y473886D01*
X467603Y474791D01*
X466843Y475715D01*
X466105Y476657D01*
X465389Y477617D01*
X464698Y478594D01*
X464030Y479587D01*
X463386Y480596D01*
X462767Y481620D01*
X462172Y482659D01*
X461603Y483712D01*
X461060Y484779D01*
X460543Y485858D01*
X460051Y486949D01*
X459587Y488052D01*
X459149Y489166D01*
X458738Y490291D01*
X458354Y491424D01*
X457998Y492567D01*
X457670Y493718D01*
X457369Y494877D01*
X457097Y496042D01*
X456853Y497214D01*
X456637Y498391D01*
X456450Y499573D01*
X456291Y500760D01*
X456161Y501950D01*
X456060Y503142D01*
X455988Y504337D01*
X455944Y505533D01*
X455930Y506730D01*
X505460Y457200D02*
X649000Y457200D01*
X457200Y508000D02*
X457196Y507693D01*
X457185Y507386D01*
X457167Y507080D01*
X457141Y506774D01*
X457107Y506469D01*
X457067Y506165D01*
X457019Y505862D01*
X456963Y505560D01*
X456901Y505260D01*
X456831Y504961D01*
X456754Y504664D01*
X456670Y504368D01*
X456578Y504075D01*
X456480Y503785D01*
X456375Y503497D01*
X456262Y503211D01*
X456143Y502928D01*
X456017Y502648D01*
X455885Y502371D01*
X455745Y502098D01*
X455599Y501828D01*
X455447Y501562D01*
X455288Y501299D01*
X455123Y501040D01*
X454952Y500786D01*
X454775Y500535D01*
X454591Y500289D01*
X454402Y500047D01*
X454207Y499811D01*
X454006Y499578D01*
X453800Y499351D01*
X453588Y499129D01*
X453371Y498912D01*
X453149Y498700D01*
X452922Y498494D01*
X452689Y498293D01*
X452453Y498098D01*
X452211Y497909D01*
X451965Y497725D01*
X451714Y497548D01*
X451460Y497377D01*
X451201Y497212D01*
X450938Y497053D01*
X450672Y496901D01*
X450402Y496755D01*
X450129Y496615D01*
X449852Y496483D01*
X449572Y496357D01*
X449289Y496238D01*
X449003Y496125D01*
X448715Y496020D01*
X448425Y495922D01*
X448132Y495830D01*
X447836Y495746D01*
X447539Y495669D01*
X447240Y495599D01*
X446940Y495537D01*
X446638Y495481D01*
X446335Y495433D01*
X446031Y495393D01*
X445726Y495359D01*
X445420Y495333D01*
X445114Y495315D01*
X444807Y495304D01*
X444500Y495300D01*
X355600Y495300D01*
X787400Y397540D02*
X787400Y731520D01*
X787381Y733116D01*
X787323Y734711D01*
X787227Y736304D01*
X787092Y737894D01*
X786918Y739480D01*
X786707Y741062D01*
X786457Y742638D01*
X786170Y744208D01*
X785844Y745770D01*
X785481Y747324D01*
X785080Y748869D01*
X784643Y750404D01*
X784168Y751927D01*
X783656Y753439D01*
X783108Y754938D01*
X782525Y756423D01*
X781905Y757894D01*
X781250Y759349D01*
X780560Y760788D01*
X779836Y762210D01*
X779077Y763614D01*
X778284Y765000D01*
X777459Y766365D01*
X776600Y767711D01*
X775710Y769035D01*
X774787Y770337D01*
X773834Y771617D01*
X772850Y772873D01*
X771835Y774105D01*
X770792Y775313D01*
X769719Y776494D01*
X768618Y777650D01*
X767490Y778778D01*
X766334Y779879D01*
X765153Y780952D01*
X763945Y781995D01*
X762713Y783010D01*
X761457Y783994D01*
X760177Y784947D01*
X758875Y785870D01*
X757551Y786760D01*
X756205Y787619D01*
X754840Y788444D01*
X753454Y789237D01*
X752050Y789996D01*
X750628Y790720D01*
X749189Y791410D01*
X747734Y792065D01*
X746263Y792685D01*
X744778Y793268D01*
X743279Y793816D01*
X741767Y794328D01*
X740244Y794803D01*
X738709Y795240D01*
X737164Y795641D01*
X735610Y796004D01*
X734048Y796330D01*
X732478Y796617D01*
X730902Y796867D01*
X729320Y797078D01*
X727734Y797252D01*
X726144Y797387D01*
X724551Y797483D01*
X722956Y797541D01*
X721360Y797560D01*
X607060Y797560D01*
X606508Y797553D01*
X605956Y797533D01*
X605404Y797500D01*
X604854Y797453D01*
X604305Y797393D01*
X603757Y797320D01*
X603211Y797234D01*
X602668Y797134D01*
X602127Y797021D01*
X601589Y796896D01*
X601055Y796757D01*
X600523Y796605D01*
X599996Y796441D01*
X599473Y796264D01*
X598954Y796074D01*
X598440Y795872D01*
X597931Y795658D01*
X597427Y795431D01*
X596929Y795192D01*
X596436Y794942D01*
X595950Y794679D01*
X595471Y794405D01*
X594998Y794119D01*
X594532Y793822D01*
X594074Y793513D01*
X593623Y793194D01*
X593180Y792864D01*
X592745Y792523D01*
X592319Y792172D01*
X591901Y791811D01*
X591492Y791440D01*
X591092Y791059D01*
X590701Y790668D01*
X590320Y790268D01*
X589949Y789859D01*
X589588Y789441D01*
X589237Y789015D01*
X588896Y788580D01*
X588566Y788137D01*
X588247Y787686D01*
X587938Y787228D01*
X587641Y786762D01*
X587355Y786289D01*
X587081Y785810D01*
X586818Y785324D01*
X586568Y784831D01*
X586329Y784333D01*
X586102Y783829D01*
X585888Y783320D01*
X585686Y782806D01*
X585496Y782287D01*
X585319Y781764D01*
X585155Y781237D01*
X585003Y780705D01*
X584864Y780171D01*
X584739Y779633D01*
X584626Y779092D01*
X584526Y778549D01*
X584440Y778003D01*
X584367Y777455D01*
X584307Y776906D01*
X584260Y776356D01*
X584227Y775804D01*
X584207Y775252D01*
X584200Y774700D01*
X584200Y673100D02*
X582972Y673085D01*
X581746Y673041D01*
X580520Y672967D01*
X579297Y672863D01*
X578077Y672730D01*
X576860Y672567D01*
X575647Y672375D01*
X574440Y672154D01*
X573238Y671903D01*
X572043Y671624D01*
X570854Y671316D01*
X569674Y670979D01*
X568502Y670614D01*
X567339Y670220D01*
X566186Y669799D01*
X565044Y669350D01*
X563912Y668873D01*
X562793Y668369D01*
X561686Y667838D01*
X560592Y667281D01*
X559512Y666698D01*
X558446Y666088D01*
X557396Y665453D01*
X556361Y664793D01*
X555342Y664108D01*
X554341Y663398D01*
X553356Y662665D01*
X552390Y661907D01*
X551442Y661127D01*
X550513Y660324D01*
X549604Y659499D01*
X548716Y658652D01*
X547848Y657784D01*
X547001Y656896D01*
X546176Y655987D01*
X545373Y655058D01*
X544593Y654110D01*
X543835Y653144D01*
X543102Y652159D01*
X542392Y651158D01*
X541707Y650139D01*
X541047Y649104D01*
X540412Y648054D01*
X539802Y646988D01*
X539219Y645908D01*
X538662Y644814D01*
X538131Y643707D01*
X537627Y642588D01*
X537150Y641456D01*
X536701Y640314D01*
X536280Y639161D01*
X535886Y637998D01*
X535521Y636826D01*
X535184Y635646D01*
X534876Y634457D01*
X534597Y633262D01*
X534346Y632060D01*
X534125Y630853D01*
X533933Y629640D01*
X533770Y628423D01*
X533637Y627203D01*
X533533Y625980D01*
X533459Y624754D01*
X533415Y623528D01*
X533400Y622300D01*
X533400Y614680D01*
X533384Y613330D01*
X533335Y611980D01*
X533253Y610632D01*
X533139Y609287D01*
X532993Y607944D01*
X532814Y606606D01*
X532602Y605272D01*
X532359Y603944D01*
X532084Y602622D01*
X531776Y601307D01*
X531437Y600000D01*
X531067Y598701D01*
X530665Y597412D01*
X530232Y596133D01*
X529769Y594865D01*
X529275Y593608D01*
X528750Y592364D01*
X528196Y591132D01*
X527612Y589914D01*
X526999Y588711D01*
X526357Y587523D01*
X525687Y586351D01*
X524988Y585195D01*
X524262Y584057D01*
X523508Y582937D01*
X522728Y581835D01*
X521921Y580752D01*
X521088Y579689D01*
X520230Y578646D01*
X519347Y577625D01*
X518439Y576625D01*
X517508Y575647D01*
X516553Y574692D01*
X515575Y573761D01*
X514575Y572853D01*
X513554Y571970D01*
X512511Y571112D01*
X511448Y570279D01*
X510365Y569472D01*
X509263Y568692D01*
X508143Y567938D01*
X507005Y567212D01*
X505849Y566513D01*
X504677Y565843D01*
X503489Y565201D01*
X502286Y564588D01*
X501068Y564004D01*
X499836Y563450D01*
X498592Y562925D01*
X497335Y562431D01*
X496067Y561968D01*
X494788Y561535D01*
X493499Y561133D01*
X492200Y560763D01*
X490893Y560424D01*
X489578Y560116D01*
X488256Y559841D01*
X486928Y559598D01*
X485594Y559386D01*
X484256Y559207D01*
X482913Y559061D01*
X481568Y558947D01*
X480220Y558865D01*
X478870Y558816D01*
X477520Y558800D01*
X457200Y558800D01*
X548640Y612140D02*
X548650Y612999D01*
X548682Y613858D01*
X548733Y614716D01*
X548806Y615572D01*
X548899Y616426D01*
X549013Y617278D01*
X549148Y618127D01*
X549302Y618972D01*
X549478Y619813D01*
X549673Y620650D01*
X549889Y621482D01*
X550125Y622308D01*
X550380Y623129D01*
X550656Y623943D01*
X550951Y624750D01*
X551265Y625549D01*
X551599Y626341D01*
X551952Y627125D01*
X552323Y627900D01*
X552713Y628666D01*
X553122Y629422D01*
X553548Y630167D01*
X553993Y630903D01*
X554455Y631627D01*
X554935Y632340D01*
X555431Y633042D01*
X555945Y633731D01*
X556475Y634407D01*
X557021Y635071D01*
X557583Y635721D01*
X558161Y636357D01*
X558753Y636979D01*
X559361Y637587D01*
X559983Y638179D01*
X560619Y638757D01*
X561269Y639319D01*
X561933Y639865D01*
X562609Y640395D01*
X563298Y640909D01*
X564000Y641405D01*
X564713Y641885D01*
X565437Y642347D01*
X566173Y642792D01*
X566918Y643218D01*
X567674Y643627D01*
X568440Y644017D01*
X569215Y644388D01*
X569999Y644741D01*
X570791Y645075D01*
X571590Y645389D01*
X572397Y645684D01*
X573211Y645960D01*
X574032Y646215D01*
X574858Y646451D01*
X575690Y646667D01*
X576527Y646862D01*
X577368Y647038D01*
X578213Y647192D01*
X579062Y647327D01*
X579914Y647441D01*
X580768Y647534D01*
X581624Y647607D01*
X582482Y647658D01*
X583341Y647690D01*
X584200Y647700D01*
X548640Y612140D02*
X548640Y589280D01*
X548624Y587930D01*
X548575Y586580D01*
X548493Y585232D01*
X548379Y583887D01*
X548233Y582544D01*
X548054Y581206D01*
X547842Y579872D01*
X547599Y578544D01*
X547324Y577222D01*
X547016Y575907D01*
X546677Y574600D01*
X546307Y573301D01*
X545905Y572012D01*
X545472Y570733D01*
X545009Y569465D01*
X544515Y568208D01*
X543990Y566964D01*
X543436Y565732D01*
X542852Y564514D01*
X542239Y563311D01*
X541597Y562123D01*
X540927Y560951D01*
X540228Y559795D01*
X539502Y558657D01*
X538748Y557537D01*
X537968Y556435D01*
X537161Y555352D01*
X536328Y554289D01*
X535470Y553246D01*
X534587Y552225D01*
X533679Y551225D01*
X532748Y550247D01*
X531793Y549292D01*
X530815Y548361D01*
X529815Y547453D01*
X528794Y546570D01*
X527751Y545712D01*
X526688Y544879D01*
X525605Y544072D01*
X524503Y543292D01*
X523383Y542538D01*
X522245Y541812D01*
X521089Y541113D01*
X519917Y540443D01*
X518729Y539801D01*
X517526Y539188D01*
X516308Y538604D01*
X515076Y538050D01*
X513832Y537525D01*
X512575Y537031D01*
X511307Y536568D01*
X510028Y536135D01*
X508739Y535733D01*
X507440Y535363D01*
X506133Y535024D01*
X504818Y534716D01*
X503496Y534441D01*
X502168Y534198D01*
X500834Y533986D01*
X499496Y533807D01*
X498153Y533661D01*
X496808Y533547D01*
X495460Y533465D01*
X494110Y533416D01*
X492760Y533400D01*
X457200Y533400D01*
X355600Y444500D02*
X355615Y443272D01*
X355659Y442046D01*
X355733Y440820D01*
X355837Y439597D01*
X355970Y438377D01*
X356133Y437160D01*
X356325Y435947D01*
X356546Y434740D01*
X356797Y433538D01*
X357076Y432343D01*
X357384Y431154D01*
X357721Y429974D01*
X358086Y428802D01*
X358480Y427639D01*
X358901Y426486D01*
X359350Y425344D01*
X359827Y424212D01*
X360331Y423093D01*
X360862Y421986D01*
X361419Y420892D01*
X362002Y419812D01*
X362612Y418746D01*
X363247Y417696D01*
X363907Y416661D01*
X364592Y415642D01*
X365302Y414641D01*
X366035Y413656D01*
X366793Y412690D01*
X367573Y411742D01*
X368376Y410813D01*
X369201Y409904D01*
X370048Y409016D01*
X370916Y408148D01*
X371804Y407301D01*
X372713Y406476D01*
X373642Y405673D01*
X374590Y404893D01*
X375556Y404135D01*
X376541Y403402D01*
X377542Y402692D01*
X378561Y402007D01*
X379596Y401347D01*
X380646Y400712D01*
X381712Y400102D01*
X382792Y399519D01*
X383886Y398962D01*
X384993Y398431D01*
X386112Y397927D01*
X387244Y397450D01*
X388386Y397001D01*
X389539Y396580D01*
X390702Y396186D01*
X391874Y395821D01*
X393054Y395484D01*
X394243Y395176D01*
X395438Y394897D01*
X396640Y394646D01*
X397847Y394425D01*
X399060Y394233D01*
X400277Y394070D01*
X401497Y393937D01*
X402720Y393833D01*
X403946Y393759D01*
X405172Y393715D01*
X406400Y393700D01*
X668020Y393700D01*
X610900Y469900D02*
X611544Y469908D01*
X612187Y469931D01*
X612830Y469970D01*
X613471Y470024D01*
X614111Y470094D01*
X614749Y470180D01*
X615385Y470280D01*
X616018Y470396D01*
X616648Y470528D01*
X617275Y470674D01*
X617899Y470836D01*
X618518Y471012D01*
X619132Y471204D01*
X619742Y471410D01*
X620347Y471631D01*
X620946Y471867D01*
X621539Y472117D01*
X622126Y472381D01*
X622707Y472659D01*
X623280Y472951D01*
X623847Y473257D01*
X624405Y473577D01*
X624956Y473910D01*
X625499Y474256D01*
X626033Y474616D01*
X626559Y474988D01*
X627075Y475372D01*
X627582Y475769D01*
X628079Y476179D01*
X628566Y476600D01*
X629042Y477032D01*
X629508Y477476D01*
X629964Y477932D01*
X630408Y478398D01*
X630840Y478874D01*
X631261Y479361D01*
X631671Y479858D01*
X632068Y480365D01*
X632452Y480881D01*
X632824Y481407D01*
X633184Y481941D01*
X633530Y482484D01*
X633863Y483035D01*
X634183Y483593D01*
X634489Y484160D01*
X634781Y484733D01*
X635059Y485314D01*
X635323Y485901D01*
X635573Y486494D01*
X635809Y487093D01*
X636030Y487698D01*
X636236Y488308D01*
X636428Y488922D01*
X636604Y489541D01*
X636766Y490165D01*
X636912Y490792D01*
X637044Y491422D01*
X637160Y492055D01*
X637260Y492691D01*
X637346Y493329D01*
X637416Y493969D01*
X637470Y494610D01*
X637509Y495253D01*
X637532Y495896D01*
X637540Y496540D01*
X540258Y469900D02*
X539890Y469904D01*
X539522Y469918D01*
X539154Y469940D01*
X538787Y469971D01*
X538421Y470011D01*
X538056Y470060D01*
X537692Y470118D01*
X537330Y470184D01*
X536969Y470259D01*
X536611Y470343D01*
X536254Y470435D01*
X535900Y470536D01*
X535549Y470646D01*
X535200Y470764D01*
X534854Y470890D01*
X534511Y471025D01*
X534172Y471168D01*
X533836Y471319D01*
X533504Y471478D01*
X533176Y471646D01*
X532852Y471821D01*
X532532Y472004D01*
X532217Y472194D01*
X531906Y472392D01*
X531601Y472598D01*
X531300Y472811D01*
X531005Y473031D01*
X530715Y473258D01*
X530431Y473492D01*
X530152Y473733D01*
X529879Y473980D01*
X529613Y474234D01*
X529352Y474495D01*
X529098Y474761D01*
X528851Y475034D01*
X528610Y475313D01*
X528376Y475597D01*
X528149Y475887D01*
X527929Y476182D01*
X527716Y476483D01*
X527510Y476788D01*
X527312Y477099D01*
X527122Y477414D01*
X526939Y477734D01*
X526764Y478058D01*
X526596Y478386D01*
X526437Y478718D01*
X526286Y479054D01*
X526143Y479393D01*
X526008Y479736D01*
X525882Y480082D01*
X525764Y480431D01*
X525654Y480782D01*
X525553Y481136D01*
X525461Y481493D01*
X525377Y481851D01*
X525302Y482212D01*
X525236Y482574D01*
X525178Y482938D01*
X525129Y483303D01*
X525089Y483669D01*
X525058Y484036D01*
X525036Y484404D01*
X525022Y484772D01*
X525018Y485140D01*
X540258Y469900D02*
X610900Y469900D01*
X637540Y543560D02*
X637524Y544849D01*
X637478Y546137D01*
X637400Y547424D01*
X637291Y548708D01*
X637151Y549989D01*
X636980Y551267D01*
X636779Y552540D01*
X636546Y553808D01*
X636283Y555070D01*
X635990Y556325D01*
X635666Y557573D01*
X635313Y558812D01*
X634929Y560043D01*
X634516Y561264D01*
X634074Y562475D01*
X633602Y563674D01*
X633102Y564862D01*
X632573Y566038D01*
X632015Y567200D01*
X631430Y568348D01*
X630817Y569482D01*
X630177Y570601D01*
X629511Y571704D01*
X628817Y572791D01*
X628098Y573861D01*
X627353Y574912D01*
X626583Y575946D01*
X625788Y576961D01*
X624969Y577956D01*
X624126Y578931D01*
X623259Y579885D01*
X622370Y580819D01*
X621459Y581730D01*
X620525Y582619D01*
X619571Y583486D01*
X618596Y584329D01*
X617601Y585148D01*
X616586Y585943D01*
X615552Y586713D01*
X614501Y587458D01*
X613431Y588177D01*
X612344Y588871D01*
X611241Y589537D01*
X610122Y590177D01*
X608988Y590790D01*
X607840Y591375D01*
X606678Y591933D01*
X605502Y592462D01*
X604314Y592962D01*
X603115Y593434D01*
X601904Y593876D01*
X600683Y594289D01*
X599452Y594673D01*
X598213Y595026D01*
X596965Y595350D01*
X595710Y595643D01*
X594448Y595906D01*
X593180Y596139D01*
X591907Y596340D01*
X590629Y596511D01*
X589348Y596651D01*
X588064Y596760D01*
X586777Y596838D01*
X585489Y596884D01*
X584200Y596900D01*
D17*
X637540Y543560D02*
X637540Y524540D01*
M02*
