M48
;GenerationSoftware,Autodesk,EAGLE,8.6.0*%
;CreationDate,2018-09-12T16:35:12Z*%
FMAT,2
ICI,OFF
METRIC,TZ,000.000
T4C0.813
T3C1.016
T2C1.400
T1C8.001
%
G90
M71
T1
X45720Y66040
X45720Y27940
X86360Y66040
X86360Y27940
T2
X71518Y15208
X61510Y15208
X71510Y27720
X61510Y27710
X58970Y25190
X73980Y25190
X66500Y25200
T3
X58420Y59690
X58420Y57150
X58420Y54610
X58420Y52070
X58420Y49530
X73660Y49530
X73660Y52070
X73660Y54610
X73660Y57150
X73660Y59690
X73660Y62230
X73660Y64770
X73660Y67310
X73660Y69850
X73660Y72390
X73660Y74930
X73660Y77470
X58420Y62230
X58420Y64770
X58420Y67310
X58420Y69850
X58420Y72390
X58420Y74930
X58420Y77470
X86106Y58598
X86106Y55702
X49606Y48514
X45720Y58420
X45720Y55880
X45720Y53340
X45720Y50800
X52502Y48514
T4
X38100Y46990
X35560Y49530
X35560Y44450
M30