G04 EAGLE Gerber X2 export*
%TF.Part,Single*%
%TF.FileFunction,Profile,NP*%
%TF.FilePolarity,Positive*%
%TF.GenerationSoftware,Autodesk,EAGLE,8.6.0*%
%TF.CreationDate,2018-09-12T16:30:21Z*%
G75*
%MOMM*%
%FSLAX34Y34*%
%LPD*%
%AMOC8*
5,1,8,0,0,1.08239X$1,22.5*%
G01*
%ADD10C,0.254000*%


D10*
X1015238Y465545D02*
X1015024Y456838D01*
X1014597Y448139D01*
X1013956Y439454D01*
X1013103Y430786D01*
X1012036Y422142D01*
X1010758Y413527D01*
X1009269Y404946D01*
X1007570Y396403D01*
X1005662Y387906D01*
X1003546Y379457D01*
X1001223Y371063D01*
X998695Y362729D01*
X995963Y354459D01*
X993029Y346259D01*
X989894Y338133D01*
X986561Y330086D01*
X983032Y322124D01*
X979308Y314251D01*
X975392Y306471D01*
X971286Y298790D01*
X966994Y291212D01*
X962516Y283742D01*
X957856Y276383D01*
X953018Y269142D01*
X948003Y262021D01*
X942814Y255026D01*
X937456Y248159D01*
X931931Y241427D01*
X926242Y234832D01*
X920393Y228379D01*
X914388Y222071D01*
X908229Y215912D01*
X901921Y209907D01*
X895468Y204058D01*
X888873Y198369D01*
X882141Y192844D01*
X875275Y187486D01*
X868279Y182297D01*
X861158Y177282D01*
X853917Y172444D01*
X846558Y167784D01*
X839088Y163307D01*
X831510Y159014D01*
X823829Y154908D01*
X816049Y150992D01*
X808176Y147268D01*
X800214Y143739D01*
X792167Y140406D01*
X784042Y137271D01*
X775841Y134337D01*
X767571Y131605D01*
X759237Y129077D01*
X750843Y126754D01*
X742394Y124638D01*
X733897Y122730D01*
X725354Y121031D01*
X716773Y119542D01*
X708158Y118264D01*
X699514Y117197D01*
X690846Y116344D01*
X682161Y115703D01*
X673462Y115276D01*
X664755Y115062D01*
X656045Y115062D01*
X647338Y115276D01*
X638639Y115703D01*
X629954Y116344D01*
X621286Y117197D01*
X612642Y118264D01*
X604027Y119542D01*
X595446Y121031D01*
X586903Y122730D01*
X578406Y124638D01*
X569957Y126754D01*
X561563Y129077D01*
X553229Y131605D01*
X544959Y134337D01*
X536759Y137271D01*
X528633Y140406D01*
X520586Y143739D01*
X512624Y147268D01*
X504751Y150992D01*
X496971Y154908D01*
X489290Y159014D01*
X481712Y163307D01*
X474242Y167784D01*
X466883Y172444D01*
X459642Y177282D01*
X452521Y182297D01*
X445526Y187486D01*
X438659Y192844D01*
X431927Y198369D01*
X425332Y204058D01*
X418879Y209907D01*
X412571Y215912D01*
X406412Y222071D01*
X400407Y228379D01*
X394558Y234832D01*
X388869Y241427D01*
X383344Y248159D01*
X377986Y255026D01*
X372797Y262021D01*
X367782Y269142D01*
X362944Y276383D01*
X358284Y283742D01*
X353807Y291212D01*
X349514Y298790D01*
X345408Y306471D01*
X341492Y314251D01*
X337768Y322124D01*
X334239Y330086D01*
X330906Y338133D01*
X327771Y346259D01*
X324837Y354459D01*
X322105Y362729D01*
X319577Y371063D01*
X317254Y379457D01*
X315138Y387906D01*
X313230Y396403D01*
X311531Y404946D01*
X310042Y413527D01*
X308764Y422142D01*
X307697Y430786D01*
X306844Y439454D01*
X306203Y448139D01*
X305776Y456838D01*
X305562Y465545D01*
X305562Y474255D01*
X305776Y482962D01*
X306203Y491661D01*
X306844Y500346D01*
X307697Y509014D01*
X308764Y517658D01*
X310042Y526273D01*
X311531Y534854D01*
X313230Y543397D01*
X315138Y551894D01*
X317254Y560343D01*
X319577Y568737D01*
X322105Y577071D01*
X324837Y585341D01*
X327771Y593542D01*
X330906Y601667D01*
X334239Y609714D01*
X337768Y617676D01*
X341492Y625549D01*
X345408Y633329D01*
X349514Y641010D01*
X353807Y648588D01*
X358284Y656058D01*
X362944Y663417D01*
X367782Y670658D01*
X372797Y677779D01*
X377986Y684775D01*
X383344Y691641D01*
X388869Y698373D01*
X394558Y704968D01*
X400407Y711421D01*
X406412Y717729D01*
X412571Y723888D01*
X418879Y729893D01*
X425332Y735742D01*
X431927Y741431D01*
X438659Y746956D01*
X445526Y752314D01*
X452521Y757503D01*
X459642Y762518D01*
X466883Y767356D01*
X474242Y772016D01*
X481712Y776494D01*
X489290Y780786D01*
X496971Y784892D01*
X504751Y788808D01*
X512624Y792532D01*
X520586Y796061D01*
X528633Y799394D01*
X536759Y802529D01*
X544959Y805463D01*
X553229Y808195D01*
X561563Y810723D01*
X569957Y813046D01*
X578406Y815162D01*
X586903Y817070D01*
X595446Y818769D01*
X604027Y820258D01*
X612642Y821536D01*
X621286Y822603D01*
X629954Y823456D01*
X638639Y824097D01*
X647338Y824524D01*
X656045Y824738D01*
X664755Y824738D01*
X673462Y824524D01*
X682161Y824097D01*
X690846Y823456D01*
X699514Y822603D01*
X708158Y821536D01*
X716773Y820258D01*
X725354Y818769D01*
X733897Y817070D01*
X742394Y815162D01*
X750843Y813046D01*
X759237Y810723D01*
X767571Y808195D01*
X775841Y805463D01*
X784042Y802529D01*
X792167Y799394D01*
X800214Y796061D01*
X808176Y792532D01*
X816049Y788808D01*
X823829Y784892D01*
X831510Y780786D01*
X839088Y776494D01*
X846558Y772016D01*
X853917Y767356D01*
X861158Y762518D01*
X868279Y757503D01*
X875275Y752314D01*
X882141Y746956D01*
X888873Y741431D01*
X895468Y735742D01*
X901921Y729893D01*
X908229Y723888D01*
X914388Y717729D01*
X920393Y711421D01*
X926242Y704968D01*
X931931Y698373D01*
X937456Y691641D01*
X942814Y684775D01*
X948003Y677779D01*
X953018Y670658D01*
X957856Y663417D01*
X962516Y656058D01*
X966994Y648588D01*
X971286Y641010D01*
X975392Y633329D01*
X979308Y625549D01*
X983032Y617676D01*
X986561Y609714D01*
X989894Y601667D01*
X993029Y593542D01*
X995963Y585341D01*
X998695Y577071D01*
X1001223Y568737D01*
X1003546Y560343D01*
X1005662Y551894D01*
X1007570Y543397D01*
X1009269Y534854D01*
X1010758Y526273D01*
X1012036Y517658D01*
X1013103Y509014D01*
X1013956Y500346D01*
X1014597Y491661D01*
X1015024Y482962D01*
X1015238Y474255D01*
X1015238Y465545D01*
X497205Y659527D02*
X497129Y657783D01*
X496977Y656044D01*
X496749Y654313D01*
X496446Y652594D01*
X496068Y650889D01*
X495616Y649203D01*
X495091Y647538D01*
X494494Y645897D01*
X493826Y644284D01*
X493088Y642702D01*
X492282Y641153D01*
X491409Y639642D01*
X490471Y638169D01*
X489470Y636739D01*
X488407Y635354D01*
X487285Y634017D01*
X486105Y632729D01*
X484871Y631495D01*
X483583Y630316D01*
X482246Y629193D01*
X480861Y628131D01*
X479431Y627129D01*
X477958Y626191D01*
X476447Y625318D01*
X474898Y624512D01*
X473316Y623774D01*
X471703Y623106D01*
X470062Y622509D01*
X468397Y621984D01*
X466711Y621532D01*
X465006Y621154D01*
X463287Y620851D01*
X461556Y620623D01*
X459817Y620471D01*
X458073Y620395D01*
X456327Y620395D01*
X454583Y620471D01*
X452844Y620623D01*
X451113Y620851D01*
X449394Y621154D01*
X447689Y621532D01*
X446003Y621984D01*
X444338Y622509D01*
X442697Y623106D01*
X441084Y623774D01*
X439502Y624512D01*
X437953Y625318D01*
X436442Y626191D01*
X434969Y627129D01*
X433539Y628131D01*
X432154Y629193D01*
X430817Y630316D01*
X429529Y631495D01*
X428295Y632729D01*
X427116Y634017D01*
X425993Y635354D01*
X424931Y636739D01*
X423929Y638169D01*
X422991Y639642D01*
X422118Y641153D01*
X421312Y642702D01*
X420574Y644284D01*
X419906Y645897D01*
X419309Y647538D01*
X418784Y649203D01*
X418332Y650889D01*
X417954Y652594D01*
X417651Y654313D01*
X417423Y656044D01*
X417271Y657783D01*
X417195Y659527D01*
X417195Y661273D01*
X417271Y663017D01*
X417423Y664756D01*
X417651Y666487D01*
X417954Y668206D01*
X418332Y669911D01*
X418784Y671597D01*
X419309Y673262D01*
X419906Y674903D01*
X420574Y676516D01*
X421312Y678098D01*
X422118Y679647D01*
X422991Y681158D01*
X423929Y682631D01*
X424931Y684061D01*
X425993Y685446D01*
X427116Y686783D01*
X428295Y688071D01*
X429529Y689305D01*
X430817Y690485D01*
X432154Y691607D01*
X433539Y692670D01*
X434969Y693671D01*
X436442Y694609D01*
X437953Y695482D01*
X439502Y696288D01*
X441084Y697026D01*
X442697Y697694D01*
X444338Y698291D01*
X446003Y698816D01*
X447689Y699268D01*
X449394Y699646D01*
X451113Y699949D01*
X452844Y700177D01*
X454583Y700329D01*
X456327Y700405D01*
X458073Y700405D01*
X459817Y700329D01*
X461556Y700177D01*
X463287Y699949D01*
X465006Y699646D01*
X466711Y699268D01*
X468397Y698816D01*
X470062Y698291D01*
X471703Y697694D01*
X473316Y697026D01*
X474898Y696288D01*
X476447Y695482D01*
X477958Y694609D01*
X479431Y693671D01*
X480861Y692670D01*
X482246Y691607D01*
X483583Y690485D01*
X484871Y689305D01*
X486105Y688071D01*
X487285Y686783D01*
X488407Y685446D01*
X489470Y684061D01*
X490471Y682631D01*
X491409Y681158D01*
X492282Y679647D01*
X493088Y678098D01*
X493826Y676516D01*
X494494Y674903D01*
X495091Y673262D01*
X495616Y671597D01*
X496068Y669911D01*
X496446Y668206D01*
X496749Y666487D01*
X496977Y664756D01*
X497129Y663017D01*
X497205Y661273D01*
X497205Y659527D01*
X497205Y278527D02*
X497129Y276783D01*
X496977Y275044D01*
X496749Y273313D01*
X496446Y271594D01*
X496068Y269889D01*
X495616Y268203D01*
X495091Y266538D01*
X494494Y264897D01*
X493826Y263284D01*
X493088Y261702D01*
X492282Y260153D01*
X491409Y258642D01*
X490471Y257169D01*
X489470Y255739D01*
X488407Y254354D01*
X487285Y253017D01*
X486105Y251729D01*
X484871Y250495D01*
X483583Y249316D01*
X482246Y248193D01*
X480861Y247131D01*
X479431Y246129D01*
X477958Y245191D01*
X476447Y244318D01*
X474898Y243512D01*
X473316Y242774D01*
X471703Y242106D01*
X470062Y241509D01*
X468397Y240984D01*
X466711Y240532D01*
X465006Y240154D01*
X463287Y239851D01*
X461556Y239623D01*
X459817Y239471D01*
X458073Y239395D01*
X456327Y239395D01*
X454583Y239471D01*
X452844Y239623D01*
X451113Y239851D01*
X449394Y240154D01*
X447689Y240532D01*
X446003Y240984D01*
X444338Y241509D01*
X442697Y242106D01*
X441084Y242774D01*
X439502Y243512D01*
X437953Y244318D01*
X436442Y245191D01*
X434969Y246129D01*
X433539Y247131D01*
X432154Y248193D01*
X430817Y249316D01*
X429529Y250495D01*
X428295Y251729D01*
X427116Y253017D01*
X425993Y254354D01*
X424931Y255739D01*
X423929Y257169D01*
X422991Y258642D01*
X422118Y260153D01*
X421312Y261702D01*
X420574Y263284D01*
X419906Y264897D01*
X419309Y266538D01*
X418784Y268203D01*
X418332Y269889D01*
X417954Y271594D01*
X417651Y273313D01*
X417423Y275044D01*
X417271Y276783D01*
X417195Y278527D01*
X417195Y280273D01*
X417271Y282017D01*
X417423Y283756D01*
X417651Y285487D01*
X417954Y287206D01*
X418332Y288911D01*
X418784Y290597D01*
X419309Y292262D01*
X419906Y293903D01*
X420574Y295516D01*
X421312Y297098D01*
X422118Y298647D01*
X422991Y300158D01*
X423929Y301631D01*
X424931Y303061D01*
X425993Y304446D01*
X427116Y305783D01*
X428295Y307071D01*
X429529Y308305D01*
X430817Y309485D01*
X432154Y310607D01*
X433539Y311670D01*
X434969Y312671D01*
X436442Y313609D01*
X437953Y314482D01*
X439502Y315288D01*
X441084Y316026D01*
X442697Y316694D01*
X444338Y317291D01*
X446003Y317816D01*
X447689Y318268D01*
X449394Y318646D01*
X451113Y318949D01*
X452844Y319177D01*
X454583Y319329D01*
X456327Y319405D01*
X458073Y319405D01*
X459817Y319329D01*
X461556Y319177D01*
X463287Y318949D01*
X465006Y318646D01*
X466711Y318268D01*
X468397Y317816D01*
X470062Y317291D01*
X471703Y316694D01*
X473316Y316026D01*
X474898Y315288D01*
X476447Y314482D01*
X477958Y313609D01*
X479431Y312671D01*
X480861Y311670D01*
X482246Y310607D01*
X483583Y309485D01*
X484871Y308305D01*
X486105Y307071D01*
X487285Y305783D01*
X488407Y304446D01*
X489470Y303061D01*
X490471Y301631D01*
X491409Y300158D01*
X492282Y298647D01*
X493088Y297098D01*
X493826Y295516D01*
X494494Y293903D01*
X495091Y292262D01*
X495616Y290597D01*
X496068Y288911D01*
X496446Y287206D01*
X496749Y285487D01*
X496977Y283756D01*
X497129Y282017D01*
X497205Y280273D01*
X497205Y278527D01*
X903605Y659527D02*
X903529Y657783D01*
X903377Y656044D01*
X903149Y654313D01*
X902846Y652594D01*
X902468Y650889D01*
X902016Y649203D01*
X901491Y647538D01*
X900894Y645897D01*
X900226Y644284D01*
X899488Y642702D01*
X898682Y641153D01*
X897809Y639642D01*
X896871Y638169D01*
X895870Y636739D01*
X894807Y635354D01*
X893685Y634017D01*
X892505Y632729D01*
X891271Y631495D01*
X889983Y630316D01*
X888646Y629193D01*
X887261Y628131D01*
X885831Y627129D01*
X884358Y626191D01*
X882847Y625318D01*
X881298Y624512D01*
X879716Y623774D01*
X878103Y623106D01*
X876462Y622509D01*
X874797Y621984D01*
X873111Y621532D01*
X871406Y621154D01*
X869687Y620851D01*
X867956Y620623D01*
X866217Y620471D01*
X864473Y620395D01*
X862727Y620395D01*
X860983Y620471D01*
X859244Y620623D01*
X857513Y620851D01*
X855794Y621154D01*
X854089Y621532D01*
X852403Y621984D01*
X850738Y622509D01*
X849097Y623106D01*
X847484Y623774D01*
X845902Y624512D01*
X844353Y625318D01*
X842842Y626191D01*
X841369Y627129D01*
X839939Y628131D01*
X838554Y629193D01*
X837217Y630316D01*
X835929Y631495D01*
X834695Y632729D01*
X833516Y634017D01*
X832393Y635354D01*
X831331Y636739D01*
X830329Y638169D01*
X829391Y639642D01*
X828518Y641153D01*
X827712Y642702D01*
X826974Y644284D01*
X826306Y645897D01*
X825709Y647538D01*
X825184Y649203D01*
X824732Y650889D01*
X824354Y652594D01*
X824051Y654313D01*
X823823Y656044D01*
X823671Y657783D01*
X823595Y659527D01*
X823595Y661273D01*
X823671Y663017D01*
X823823Y664756D01*
X824051Y666487D01*
X824354Y668206D01*
X824732Y669911D01*
X825184Y671597D01*
X825709Y673262D01*
X826306Y674903D01*
X826974Y676516D01*
X827712Y678098D01*
X828518Y679647D01*
X829391Y681158D01*
X830329Y682631D01*
X831331Y684061D01*
X832393Y685446D01*
X833516Y686783D01*
X834695Y688071D01*
X835929Y689305D01*
X837217Y690485D01*
X838554Y691607D01*
X839939Y692670D01*
X841369Y693671D01*
X842842Y694609D01*
X844353Y695482D01*
X845902Y696288D01*
X847484Y697026D01*
X849097Y697694D01*
X850738Y698291D01*
X852403Y698816D01*
X854089Y699268D01*
X855794Y699646D01*
X857513Y699949D01*
X859244Y700177D01*
X860983Y700329D01*
X862727Y700405D01*
X864473Y700405D01*
X866217Y700329D01*
X867956Y700177D01*
X869687Y699949D01*
X871406Y699646D01*
X873111Y699268D01*
X874797Y698816D01*
X876462Y698291D01*
X878103Y697694D01*
X879716Y697026D01*
X881298Y696288D01*
X882847Y695482D01*
X884358Y694609D01*
X885831Y693671D01*
X887261Y692670D01*
X888646Y691607D01*
X889983Y690485D01*
X891271Y689305D01*
X892505Y688071D01*
X893685Y686783D01*
X894807Y685446D01*
X895870Y684061D01*
X896871Y682631D01*
X897809Y681158D01*
X898682Y679647D01*
X899488Y678098D01*
X900226Y676516D01*
X900894Y674903D01*
X901491Y673262D01*
X902016Y671597D01*
X902468Y669911D01*
X902846Y668206D01*
X903149Y666487D01*
X903377Y664756D01*
X903529Y663017D01*
X903605Y661273D01*
X903605Y659527D01*
X903605Y278527D02*
X903529Y276783D01*
X903377Y275044D01*
X903149Y273313D01*
X902846Y271594D01*
X902468Y269889D01*
X902016Y268203D01*
X901491Y266538D01*
X900894Y264897D01*
X900226Y263284D01*
X899488Y261702D01*
X898682Y260153D01*
X897809Y258642D01*
X896871Y257169D01*
X895870Y255739D01*
X894807Y254354D01*
X893685Y253017D01*
X892505Y251729D01*
X891271Y250495D01*
X889983Y249316D01*
X888646Y248193D01*
X887261Y247131D01*
X885831Y246129D01*
X884358Y245191D01*
X882847Y244318D01*
X881298Y243512D01*
X879716Y242774D01*
X878103Y242106D01*
X876462Y241509D01*
X874797Y240984D01*
X873111Y240532D01*
X871406Y240154D01*
X869687Y239851D01*
X867956Y239623D01*
X866217Y239471D01*
X864473Y239395D01*
X862727Y239395D01*
X860983Y239471D01*
X859244Y239623D01*
X857513Y239851D01*
X855794Y240154D01*
X854089Y240532D01*
X852403Y240984D01*
X850738Y241509D01*
X849097Y242106D01*
X847484Y242774D01*
X845902Y243512D01*
X844353Y244318D01*
X842842Y245191D01*
X841369Y246129D01*
X839939Y247131D01*
X838554Y248193D01*
X837217Y249316D01*
X835929Y250495D01*
X834695Y251729D01*
X833516Y253017D01*
X832393Y254354D01*
X831331Y255739D01*
X830329Y257169D01*
X829391Y258642D01*
X828518Y260153D01*
X827712Y261702D01*
X826974Y263284D01*
X826306Y264897D01*
X825709Y266538D01*
X825184Y268203D01*
X824732Y269889D01*
X824354Y271594D01*
X824051Y273313D01*
X823823Y275044D01*
X823671Y276783D01*
X823595Y278527D01*
X823595Y280273D01*
X823671Y282017D01*
X823823Y283756D01*
X824051Y285487D01*
X824354Y287206D01*
X824732Y288911D01*
X825184Y290597D01*
X825709Y292262D01*
X826306Y293903D01*
X826974Y295516D01*
X827712Y297098D01*
X828518Y298647D01*
X829391Y300158D01*
X830329Y301631D01*
X831331Y303061D01*
X832393Y304446D01*
X833516Y305783D01*
X834695Y307071D01*
X835929Y308305D01*
X837217Y309485D01*
X838554Y310607D01*
X839939Y311670D01*
X841369Y312671D01*
X842842Y313609D01*
X844353Y314482D01*
X845902Y315288D01*
X847484Y316026D01*
X849097Y316694D01*
X850738Y317291D01*
X852403Y317816D01*
X854089Y318268D01*
X855794Y318646D01*
X857513Y318949D01*
X859244Y319177D01*
X860983Y319329D01*
X862727Y319405D01*
X864473Y319405D01*
X866217Y319329D01*
X867956Y319177D01*
X869687Y318949D01*
X871406Y318646D01*
X873111Y318268D01*
X874797Y317816D01*
X876462Y317291D01*
X878103Y316694D01*
X879716Y316026D01*
X881298Y315288D01*
X882847Y314482D01*
X884358Y313609D01*
X885831Y312671D01*
X887261Y311670D01*
X888646Y310607D01*
X889983Y309485D01*
X891271Y308305D01*
X892505Y307071D01*
X893685Y305783D01*
X894807Y304446D01*
X895870Y303061D01*
X896871Y301631D01*
X897809Y300158D01*
X898682Y298647D01*
X899488Y297098D01*
X900226Y295516D01*
X900894Y293903D01*
X901491Y292262D01*
X902016Y290597D01*
X902468Y288911D01*
X902846Y287206D01*
X903149Y285487D01*
X903377Y283756D01*
X903529Y282017D01*
X903605Y280273D01*
X903605Y278527D01*
X497205Y659527D02*
X497129Y657783D01*
X496977Y656044D01*
X496749Y654313D01*
X496446Y652594D01*
X496068Y650889D01*
X495616Y649203D01*
X495091Y647538D01*
X494494Y645897D01*
X493826Y644284D01*
X493088Y642702D01*
X492282Y641153D01*
X491409Y639642D01*
X490471Y638169D01*
X489470Y636739D01*
X488407Y635354D01*
X487285Y634017D01*
X486105Y632729D01*
X484871Y631495D01*
X483583Y630316D01*
X482246Y629193D01*
X480861Y628131D01*
X479431Y627129D01*
X477958Y626191D01*
X476447Y625318D01*
X474898Y624512D01*
X473316Y623774D01*
X471703Y623106D01*
X470062Y622509D01*
X468397Y621984D01*
X466711Y621532D01*
X465006Y621154D01*
X463287Y620851D01*
X461556Y620623D01*
X459817Y620471D01*
X458073Y620395D01*
X456327Y620395D01*
X454583Y620471D01*
X452844Y620623D01*
X451113Y620851D01*
X449394Y621154D01*
X447689Y621532D01*
X446003Y621984D01*
X444338Y622509D01*
X442697Y623106D01*
X441084Y623774D01*
X439502Y624512D01*
X437953Y625318D01*
X436442Y626191D01*
X434969Y627129D01*
X433539Y628131D01*
X432154Y629193D01*
X430817Y630316D01*
X429529Y631495D01*
X428295Y632729D01*
X427116Y634017D01*
X425993Y635354D01*
X424931Y636739D01*
X423929Y638169D01*
X422991Y639642D01*
X422118Y641153D01*
X421312Y642702D01*
X420574Y644284D01*
X419906Y645897D01*
X419309Y647538D01*
X418784Y649203D01*
X418332Y650889D01*
X417954Y652594D01*
X417651Y654313D01*
X417423Y656044D01*
X417271Y657783D01*
X417195Y659527D01*
X417195Y661273D01*
X417271Y663017D01*
X417423Y664756D01*
X417651Y666487D01*
X417954Y668206D01*
X418332Y669911D01*
X418784Y671597D01*
X419309Y673262D01*
X419906Y674903D01*
X420574Y676516D01*
X421312Y678098D01*
X422118Y679647D01*
X422991Y681158D01*
X423929Y682631D01*
X424931Y684061D01*
X425993Y685446D01*
X427116Y686783D01*
X428295Y688071D01*
X429529Y689305D01*
X430817Y690485D01*
X432154Y691607D01*
X433539Y692670D01*
X434969Y693671D01*
X436442Y694609D01*
X437953Y695482D01*
X439502Y696288D01*
X441084Y697026D01*
X442697Y697694D01*
X444338Y698291D01*
X446003Y698816D01*
X447689Y699268D01*
X449394Y699646D01*
X451113Y699949D01*
X452844Y700177D01*
X454583Y700329D01*
X456327Y700405D01*
X458073Y700405D01*
X459817Y700329D01*
X461556Y700177D01*
X463287Y699949D01*
X465006Y699646D01*
X466711Y699268D01*
X468397Y698816D01*
X470062Y698291D01*
X471703Y697694D01*
X473316Y697026D01*
X474898Y696288D01*
X476447Y695482D01*
X477958Y694609D01*
X479431Y693671D01*
X480861Y692670D01*
X482246Y691607D01*
X483583Y690485D01*
X484871Y689305D01*
X486105Y688071D01*
X487285Y686783D01*
X488407Y685446D01*
X489470Y684061D01*
X490471Y682631D01*
X491409Y681158D01*
X492282Y679647D01*
X493088Y678098D01*
X493826Y676516D01*
X494494Y674903D01*
X495091Y673262D01*
X495616Y671597D01*
X496068Y669911D01*
X496446Y668206D01*
X496749Y666487D01*
X496977Y664756D01*
X497129Y663017D01*
X497205Y661273D01*
X497205Y659527D01*
X497205Y278527D02*
X497129Y276783D01*
X496977Y275044D01*
X496749Y273313D01*
X496446Y271594D01*
X496068Y269889D01*
X495616Y268203D01*
X495091Y266538D01*
X494494Y264897D01*
X493826Y263284D01*
X493088Y261702D01*
X492282Y260153D01*
X491409Y258642D01*
X490471Y257169D01*
X489470Y255739D01*
X488407Y254354D01*
X487285Y253017D01*
X486105Y251729D01*
X484871Y250495D01*
X483583Y249316D01*
X482246Y248193D01*
X480861Y247131D01*
X479431Y246129D01*
X477958Y245191D01*
X476447Y244318D01*
X474898Y243512D01*
X473316Y242774D01*
X471703Y242106D01*
X470062Y241509D01*
X468397Y240984D01*
X466711Y240532D01*
X465006Y240154D01*
X463287Y239851D01*
X461556Y239623D01*
X459817Y239471D01*
X458073Y239395D01*
X456327Y239395D01*
X454583Y239471D01*
X452844Y239623D01*
X451113Y239851D01*
X449394Y240154D01*
X447689Y240532D01*
X446003Y240984D01*
X444338Y241509D01*
X442697Y242106D01*
X441084Y242774D01*
X439502Y243512D01*
X437953Y244318D01*
X436442Y245191D01*
X434969Y246129D01*
X433539Y247131D01*
X432154Y248193D01*
X430817Y249316D01*
X429529Y250495D01*
X428295Y251729D01*
X427116Y253017D01*
X425993Y254354D01*
X424931Y255739D01*
X423929Y257169D01*
X422991Y258642D01*
X422118Y260153D01*
X421312Y261702D01*
X420574Y263284D01*
X419906Y264897D01*
X419309Y266538D01*
X418784Y268203D01*
X418332Y269889D01*
X417954Y271594D01*
X417651Y273313D01*
X417423Y275044D01*
X417271Y276783D01*
X417195Y278527D01*
X417195Y280273D01*
X417271Y282017D01*
X417423Y283756D01*
X417651Y285487D01*
X417954Y287206D01*
X418332Y288911D01*
X418784Y290597D01*
X419309Y292262D01*
X419906Y293903D01*
X420574Y295516D01*
X421312Y297098D01*
X422118Y298647D01*
X422991Y300158D01*
X423929Y301631D01*
X424931Y303061D01*
X425993Y304446D01*
X427116Y305783D01*
X428295Y307071D01*
X429529Y308305D01*
X430817Y309485D01*
X432154Y310607D01*
X433539Y311670D01*
X434969Y312671D01*
X436442Y313609D01*
X437953Y314482D01*
X439502Y315288D01*
X441084Y316026D01*
X442697Y316694D01*
X444338Y317291D01*
X446003Y317816D01*
X447689Y318268D01*
X449394Y318646D01*
X451113Y318949D01*
X452844Y319177D01*
X454583Y319329D01*
X456327Y319405D01*
X458073Y319405D01*
X459817Y319329D01*
X461556Y319177D01*
X463287Y318949D01*
X465006Y318646D01*
X466711Y318268D01*
X468397Y317816D01*
X470062Y317291D01*
X471703Y316694D01*
X473316Y316026D01*
X474898Y315288D01*
X476447Y314482D01*
X477958Y313609D01*
X479431Y312671D01*
X480861Y311670D01*
X482246Y310607D01*
X483583Y309485D01*
X484871Y308305D01*
X486105Y307071D01*
X487285Y305783D01*
X488407Y304446D01*
X489470Y303061D01*
X490471Y301631D01*
X491409Y300158D01*
X492282Y298647D01*
X493088Y297098D01*
X493826Y295516D01*
X494494Y293903D01*
X495091Y292262D01*
X495616Y290597D01*
X496068Y288911D01*
X496446Y287206D01*
X496749Y285487D01*
X496977Y283756D01*
X497129Y282017D01*
X497205Y280273D01*
X497205Y278527D01*
X903605Y659527D02*
X903529Y657783D01*
X903377Y656044D01*
X903149Y654313D01*
X902846Y652594D01*
X902468Y650889D01*
X902016Y649203D01*
X901491Y647538D01*
X900894Y645897D01*
X900226Y644284D01*
X899488Y642702D01*
X898682Y641153D01*
X897809Y639642D01*
X896871Y638169D01*
X895870Y636739D01*
X894807Y635354D01*
X893685Y634017D01*
X892505Y632729D01*
X891271Y631495D01*
X889983Y630316D01*
X888646Y629193D01*
X887261Y628131D01*
X885831Y627129D01*
X884358Y626191D01*
X882847Y625318D01*
X881298Y624512D01*
X879716Y623774D01*
X878103Y623106D01*
X876462Y622509D01*
X874797Y621984D01*
X873111Y621532D01*
X871406Y621154D01*
X869687Y620851D01*
X867956Y620623D01*
X866217Y620471D01*
X864473Y620395D01*
X862727Y620395D01*
X860983Y620471D01*
X859244Y620623D01*
X857513Y620851D01*
X855794Y621154D01*
X854089Y621532D01*
X852403Y621984D01*
X850738Y622509D01*
X849097Y623106D01*
X847484Y623774D01*
X845902Y624512D01*
X844353Y625318D01*
X842842Y626191D01*
X841369Y627129D01*
X839939Y628131D01*
X838554Y629193D01*
X837217Y630316D01*
X835929Y631495D01*
X834695Y632729D01*
X833516Y634017D01*
X832393Y635354D01*
X831331Y636739D01*
X830329Y638169D01*
X829391Y639642D01*
X828518Y641153D01*
X827712Y642702D01*
X826974Y644284D01*
X826306Y645897D01*
X825709Y647538D01*
X825184Y649203D01*
X824732Y650889D01*
X824354Y652594D01*
X824051Y654313D01*
X823823Y656044D01*
X823671Y657783D01*
X823595Y659527D01*
X823595Y661273D01*
X823671Y663017D01*
X823823Y664756D01*
X824051Y666487D01*
X824354Y668206D01*
X824732Y669911D01*
X825184Y671597D01*
X825709Y673262D01*
X826306Y674903D01*
X826974Y676516D01*
X827712Y678098D01*
X828518Y679647D01*
X829391Y681158D01*
X830329Y682631D01*
X831331Y684061D01*
X832393Y685446D01*
X833516Y686783D01*
X834695Y688071D01*
X835929Y689305D01*
X837217Y690485D01*
X838554Y691607D01*
X839939Y692670D01*
X841369Y693671D01*
X842842Y694609D01*
X844353Y695482D01*
X845902Y696288D01*
X847484Y697026D01*
X849097Y697694D01*
X850738Y698291D01*
X852403Y698816D01*
X854089Y699268D01*
X855794Y699646D01*
X857513Y699949D01*
X859244Y700177D01*
X860983Y700329D01*
X862727Y700405D01*
X864473Y700405D01*
X866217Y700329D01*
X867956Y700177D01*
X869687Y699949D01*
X871406Y699646D01*
X873111Y699268D01*
X874797Y698816D01*
X876462Y698291D01*
X878103Y697694D01*
X879716Y697026D01*
X881298Y696288D01*
X882847Y695482D01*
X884358Y694609D01*
X885831Y693671D01*
X887261Y692670D01*
X888646Y691607D01*
X889983Y690485D01*
X891271Y689305D01*
X892505Y688071D01*
X893685Y686783D01*
X894807Y685446D01*
X895870Y684061D01*
X896871Y682631D01*
X897809Y681158D01*
X898682Y679647D01*
X899488Y678098D01*
X900226Y676516D01*
X900894Y674903D01*
X901491Y673262D01*
X902016Y671597D01*
X902468Y669911D01*
X902846Y668206D01*
X903149Y666487D01*
X903377Y664756D01*
X903529Y663017D01*
X903605Y661273D01*
X903605Y659527D01*
X903605Y278527D02*
X903529Y276783D01*
X903377Y275044D01*
X903149Y273313D01*
X902846Y271594D01*
X902468Y269889D01*
X902016Y268203D01*
X901491Y266538D01*
X900894Y264897D01*
X900226Y263284D01*
X899488Y261702D01*
X898682Y260153D01*
X897809Y258642D01*
X896871Y257169D01*
X895870Y255739D01*
X894807Y254354D01*
X893685Y253017D01*
X892505Y251729D01*
X891271Y250495D01*
X889983Y249316D01*
X888646Y248193D01*
X887261Y247131D01*
X885831Y246129D01*
X884358Y245191D01*
X882847Y244318D01*
X881298Y243512D01*
X879716Y242774D01*
X878103Y242106D01*
X876462Y241509D01*
X874797Y240984D01*
X873111Y240532D01*
X871406Y240154D01*
X869687Y239851D01*
X867956Y239623D01*
X866217Y239471D01*
X864473Y239395D01*
X862727Y239395D01*
X860983Y239471D01*
X859244Y239623D01*
X857513Y239851D01*
X855794Y240154D01*
X854089Y240532D01*
X852403Y240984D01*
X850738Y241509D01*
X849097Y242106D01*
X847484Y242774D01*
X845902Y243512D01*
X844353Y244318D01*
X842842Y245191D01*
X841369Y246129D01*
X839939Y247131D01*
X838554Y248193D01*
X837217Y249316D01*
X835929Y250495D01*
X834695Y251729D01*
X833516Y253017D01*
X832393Y254354D01*
X831331Y255739D01*
X830329Y257169D01*
X829391Y258642D01*
X828518Y260153D01*
X827712Y261702D01*
X826974Y263284D01*
X826306Y264897D01*
X825709Y266538D01*
X825184Y268203D01*
X824732Y269889D01*
X824354Y271594D01*
X824051Y273313D01*
X823823Y275044D01*
X823671Y276783D01*
X823595Y278527D01*
X823595Y280273D01*
X823671Y282017D01*
X823823Y283756D01*
X824051Y285487D01*
X824354Y287206D01*
X824732Y288911D01*
X825184Y290597D01*
X825709Y292262D01*
X826306Y293903D01*
X826974Y295516D01*
X827712Y297098D01*
X828518Y298647D01*
X829391Y300158D01*
X830329Y301631D01*
X831331Y303061D01*
X832393Y304446D01*
X833516Y305783D01*
X834695Y307071D01*
X835929Y308305D01*
X837217Y309485D01*
X838554Y310607D01*
X839939Y311670D01*
X841369Y312671D01*
X842842Y313609D01*
X844353Y314482D01*
X845902Y315288D01*
X847484Y316026D01*
X849097Y316694D01*
X850738Y317291D01*
X852403Y317816D01*
X854089Y318268D01*
X855794Y318646D01*
X857513Y318949D01*
X859244Y319177D01*
X860983Y319329D01*
X862727Y319405D01*
X864473Y319405D01*
X866217Y319329D01*
X867956Y319177D01*
X869687Y318949D01*
X871406Y318646D01*
X873111Y318268D01*
X874797Y317816D01*
X876462Y317291D01*
X878103Y316694D01*
X879716Y316026D01*
X881298Y315288D01*
X882847Y314482D01*
X884358Y313609D01*
X885831Y312671D01*
X887261Y311670D01*
X888646Y310607D01*
X889983Y309485D01*
X891271Y308305D01*
X892505Y307071D01*
X893685Y305783D01*
X894807Y304446D01*
X895870Y303061D01*
X896871Y301631D01*
X897809Y300158D01*
X898682Y298647D01*
X899488Y297098D01*
X900226Y295516D01*
X900894Y293903D01*
X901491Y292262D01*
X902016Y290597D01*
X902468Y288911D01*
X902846Y287206D01*
X903149Y285487D01*
X903377Y283756D01*
X903529Y282017D01*
X903605Y280273D01*
X903605Y278527D01*
M02*
