G04 EAGLE Gerber X2 export*
%TF.Part,Single*%
%TF.FileFunction,Soldermask,Top,1*%
%TF.FilePolarity,Negative*%
%TF.GenerationSoftware,Autodesk,EAGLE,8.6.0*%
%TF.CreationDate,2018-09-12T16:30:21Z*%
G75*
%MOMM*%
%FSLAX34Y34*%
%LPD*%
%AMOC8*
5,1,8,0,0,1.08239X$1,22.5*%
G01*
%ADD10C,8.204200*%
%ADD11C,2.082800*%
%ADD12C,2.489200*%
%ADD13P,2.034460X8X112.500000*%
%ADD14R,2.082800X2.082800*%
%ADD15R,2.003200X1.803200*%


D10*
X457200Y660400D03*
X457200Y279400D03*
X863600Y660400D03*
X863600Y279400D03*
D11*
X584200Y774700D03*
X584200Y749300D03*
X584200Y723900D03*
X584200Y698500D03*
X584200Y673100D03*
X584200Y647700D03*
X584200Y622300D03*
X584200Y596900D03*
X584200Y571500D03*
X584200Y546100D03*
X584200Y520700D03*
X584200Y495300D03*
X736600Y495300D03*
X736600Y520700D03*
X736600Y546100D03*
X736600Y571500D03*
X736600Y596900D03*
X736600Y622300D03*
X736600Y647700D03*
X736600Y673100D03*
X736600Y698500D03*
X736600Y723900D03*
X736600Y749300D03*
X736600Y774700D03*
D12*
X665000Y252000D03*
X739800Y251900D03*
X589700Y251900D03*
X615100Y277100D03*
X715100Y277200D03*
X615100Y152078D03*
X715176Y152078D03*
D13*
X355600Y444500D03*
X355600Y495300D03*
X381000Y469900D03*
D14*
X457200Y584200D03*
D11*
X457200Y558800D03*
X457200Y533400D03*
X457200Y508000D03*
X525018Y485140D03*
X496062Y485140D03*
X861060Y557022D03*
X861060Y585978D03*
D15*
X787400Y397540D03*
X787400Y369540D03*
X708660Y397540D03*
X708660Y369540D03*
X665480Y369540D03*
X665480Y397540D03*
X637540Y524540D03*
X637540Y496540D03*
M02*
